<?xml version="1.0" encoding="UTF-8" standalone="no"?>
<!-- Created with Inkscape (http://www.inkscape.org/) -->

<svg
   xmlns:dc="http://purl.org/dc/elements/1.1/"
   xmlns:cc="http://creativecommons.org/ns#"
   xmlns:rdf="http://www.w3.org/1999/02/22-rdf-syntax-ns#"
   xmlns:svg="http://www.w3.org/2000/svg"
   xmlns="http://www.w3.org/2000/svg"
   xmlns:sodipodi="http://sodipodi.sourceforge.net/DTD/sodipodi-0.dtd"
   xmlns:inkscape="http://www.inkscape.org/namespaces/inkscape"
   width="386.23013mm"
   height="108.52668mm"
   viewBox="0 0 386.23013 108.52668"
   version="1.1"
   id="svg2279"
   inkscape:version="0.92.2 5c3e80d, 2017-08-06"
   sodipodi:docname="logo-horizontal-fr.svg">
  <defs
     id="defs2273">
    <inkscape:path-effect
       effect="spiro"
       id="path-effect3365"
       is_visible="true" />
    <marker
       inkscape:stockid="Arrow1Lstart"
       orient="auto"
       refY="0"
       refX="0"
       id="marker2345"
       style="overflow:visible"
       inkscape:isstock="true"
       inkscape:collect="always">
      <path
         inkscape:connector-curvature="0"
         id="path2343"
         d="M 0,0 5,-5 -12.5,0 5,5 Z"
         style="fill:#fcfcfc;fill-opacity:1;fill-rule:evenodd;stroke:none;stroke-width:1.00000003pt;stroke-opacity:1"
         transform="matrix(0.8,0,0,0.8,10,0)" />
    </marker>
  </defs>
  <sodipodi:namedview
     id="base"
     pagecolor="#ffffff"
     bordercolor="#666666"
     borderopacity="1.0"
     inkscape:pageopacity="0.0"
     inkscape:pageshadow="2"
     inkscape:zoom="0.35"
     inkscape:cx="321.31232"
     inkscape:cy="270.80407"
     inkscape:document-units="mm"
     inkscape:current-layer="layer1"
     showgrid="false"
     fit-margin-top="0"
     fit-margin-left="0"
     fit-margin-right="0"
     fit-margin-bottom="0"
     inkscape:window-width="1440"
     inkscape:window-height="856"
     inkscape:window-x="0"
     inkscape:window-y="0"
     inkscape:window-maximized="1" />
  <metadata
     id="metadata2276">
    <rdf:RDF>
      <cc:Work
         rdf:about="">
        <dc:format>image/svg+xml</dc:format>
        <dc:type
           rdf:resource="http://purl.org/dc/dcmitype/StillImage" />
        <dc:title />
      </cc:Work>
    </rdf:RDF>
  </metadata>
  <g
     inkscape:label="Layer 1"
     inkscape:groupmode="layer"
     id="layer1"
     transform="translate(252.83532,-111.9569)">
    <g
       id="g7419"
       transform="matrix(0.26420138,0,0,0.26420138,472.18758,96.306531)">
      <path
         id="path7393"
         d="m -2528,74.681641 a 191.18198,220.88731 0 0 0 -191.1816,220.886719 191.18198,220.88731 0 0 0 23.4453,105.52344 183.76776,216.53238 0 0 1 -15.9102,-87.47071 183.76776,216.53238 0 0 1 183.7676,-216.531246 183.76776,216.53238 0 0 1 183.7676,216.531246 183.76776,216.53238 0 0 1 -14.127,83.10157 191.18198,220.88731 0 0 0 21.4199,-101.1543 A 191.18198,220.88731 0 0 0 -2528,74.681641 Z"
         style="opacity:1;fill:#fff;fill-opacity:1;stroke:#87aade;stroke-width:0;stroke-linecap:round;stroke-linejoin:round;stroke-miterlimit:4;stroke-dasharray:none;stroke-dashoffset:0;stroke-opacity:1;paint-order:normal"
         inkscape:connector-curvature="0" />
      <g
         id="g7401"
         transform="translate(-2823.9242,-1075.4837)">
        <path
           sodipodi:nodetypes="cccccccc"
           d="m 295.92418,1511.8876 v 9.2141 l -158.47621,-12.06 c -9.59175,-1.0324 -9.39551,-1.4648 -9.39551,-8.6643 l 3.89847,-152.4752 c 0.51316,-10.2693 0.51464,-8.7937 22.4873,-8.6807 l 1.40518,143.8573 z"
           id="path7395"
           inkscape:connector-curvature="0"
           style="clip-rule:evenodd;fill:#27628d;fill-rule:evenodd;stroke-width:0.8700431" />
        <path
           style="clip-rule:evenodd;fill:#006db5;fill-rule:evenodd;stroke-width:0.8700431"
           inkscape:connector-curvature="0"
           id="path7397"
           d="m 151.61716,1492.8917 c -4.18947,-0.6089 -5.82161,-1.7734 -6.09265,-8.8125 l 3.94878,-180.2846 c 0.67341,-8.4641 11.08107,-5.9411 6.65946,-6.2925 l 15.63098,0.1962 0.48946,178.5886 c 47.53393,-7.6359 90.74618,-3.0924 123.67099,30.4429 v 5.1578 z"
           sodipodi:nodetypes="ccccccccc" />
        <path
           style="clip-rule:evenodd;fill:#48b1e7;fill-rule:evenodd;stroke-width:0.8700431"
           inkscape:connector-curvature="0"
           id="path7399"
           d="m 295.92418,1309.2086 v 197.5212 c 0,0 -42.93839,-27.2974 -119.93904,-23.9695 -9.80856,-1.4623 -10.55661,-1.0769 -10.87669,-9.8631 -0.32008,-8.7862 1.72795,-175.8948 2.21423,-182.547 0.48628,-6.6522 2.20689,-6.9625 7.93148,-7.3443 28.41026,-2.578 77.08654,-4.0135 113.39083,20.4226 3.709,2.4944 3.67895,3.13 7.27919,5.7801 z"
           sodipodi:nodetypes="ccczzccc" />
      </g>
      <path
         sodipodi:nodetypes="cccccccc"
         d="m -2528,436.40391 v 9.21411 l 156.3474,-12.05998 c 9.3981,-1.03242 9.2059,-1.46483 9.2059,-8.6643 l -3.8198,-152.47522 c -0.5028,-10.26931 -0.5043,-8.79371 -22.0333,-8.6807 l -2.3567,144.54482 z"
         id="path7403"
         inkscape:connector-curvature="0"
         style="clip-rule:evenodd;fill:#27628d;fill-rule:evenodd;stroke-width:0.86121643" />
      <path
         style="clip-rule:evenodd;fill:#006db5;fill-rule:evenodd;stroke-width:0.86121643"
         inkscape:connector-curvature="0"
         id="path7405"
         d="m -2385.5357,417.40801 c 4.1049,-0.60889 5.7041,-1.7734 5.9696,-8.8125 l -3.869,-180.2846 c 0.7258,-8.11049 -6.354,-6.2939 -6.5251,-6.2925 l -24.5078,0.19616 -2.2473,166.56782 c -39.2023,9.03651 -80.8878,12.0426 -111.2847,42.46371 v 5.15777 z"
         sodipodi:nodetypes="cccsccccc" />
      <path
         sodipodi:nodetypes="cccccccc"
         d="m -2528,233.72493 v 197.52121 c 0.3962,-2.9718 64.6289,-48.34911 118.5882,-23.96954 9.6106,-1.4623 11.0564,-2.14847 10.6571,-9.86309 -1.7447,-54.40411 -1.1897,-147.52759 -2.1695,-182.54699 0.026,-5.8594 -2.1623,-6.96249 -7.7714,-7.3443 -27.8367,-2.57802 -75.5303,-4.01352 -111.1017,20.4226 -3.6342,2.49441 -4.6751,3.13002 -8.2027,5.78011 z"
         id="path7407"
         inkscape:connector-curvature="0"
         style="clip-rule:evenodd;fill:#48b1e7;fill-rule:evenodd;stroke-width:0.86121643" />
      <path
         style="clip-rule:evenodd;fill:#0192d6;fill-opacity:1;fill-rule:evenodd;stroke-width:0.86121643"
         inkscape:connector-curvature="0"
         id="path7409"
         d="m -2528,233.72493 v 197.52121 c 0,0 53.7887,-30.7974 118.5882,-23.96954 9.6106,-1.4623 11.0564,-2.14847 10.6571,-9.86309 -1.7447,-54.40411 -1.1897,-147.52759 -2.1695,-182.54699 0.026,-5.8594 -2.1623,-6.96249 -7.7714,-7.3443 -27.8367,-2.57802 -75.5303,-4.01352 -111.1017,20.4226 -3.6342,2.49441 -4.6751,3.13002 -8.2027,5.78011 z"
         sodipodi:nodetypes="cccccccc" />
      <circle
         r="63.28125"
         cy="322.54245"
         cx="-2528.9062"
         id="circle7411"
         style="fill:#fcfcfc;fill-opacity:1;stroke:none;stroke-width:0.05;stroke-linecap:round;stroke-miterlimit:4;stroke-dasharray:none;stroke-opacity:1;marker-start:url(#marker2345)" />
      <g
         transform="translate(0,-0.32980502)"
         id="g7417">
        <g
           id="g7415">
          <path
             inkscape:connector-curvature="0"
             id="path7413"
             d="m -2544.6971,360.38445 -0.065,-72.08479 45.6517,35.96226 z"
             style="opacity:1;fill:#48b1e7;fill-opacity:1;stroke:#87aade;stroke-width:0;stroke-linecap:round;stroke-linejoin:round;stroke-miterlimit:4;stroke-dasharray:none;stroke-dashoffset:0;stroke-opacity:1;paint-order:normal"
             sodipodi:nodetypes="cccc" />
        </g>
      </g>
    </g>
    <g
       id="g3324"
       transform="matrix(0.32403362,0,0,0.31935536,-119.46127,36.500891)"
       inkscape:export-xdpi="96"
       inkscape:export-ydpi="96">
      <path
         id="path3250"
         d="m 412.045,291.379 c -0.228,0.357 -0.406,0.76 -0.692,1.063 -0.513,0.546 -1.025,1.146 -1.661,1.513 -0.746,0.431 -1.199,0.125 -1.275,-0.749 -0.13,-1.488 -0.853,-2.631 -1.952,-3.58 -1.266,-1.095 -2.176,-0.852 -2.632,0.748 -0.31,1.085 -0.521,2.198 -0.808,3.291 -1.028,3.925 -2.045,7.854 -3.123,11.764 -0.244,0.884 -0.006,1.432 0.759,1.787 3.23,1.5 4.916,4.483 6.874,7.188 0.64,0.886 0.345,2.397 -0.484,3.446 -0.796,1.011 -1.839,1.158 -2.962,0.751 -2.484,-0.903 -5.01,-0.918 -7.576,-0.491 -2.416,0.402 -3.141,1.534 -2.598,3.92 1.206,5.314 2.489,10.619 3.5,15.973 0.647,3.426 0.889,6.937 0.13,10.412 -0.162,0.741 -0.375,1.507 -0.755,2.148 -0.221,0.374 -0.82,0.523 -1.25,0.773 -0.226,-0.403 -0.604,-0.788 -0.65,-1.209 -0.452,-4.164 -0.634,-8.373 -1.319,-12.497 -0.731,-4.386 -1.856,-8.713 -2.941,-13.032 -0.817,-3.254 0.165,-5.955 2.151,-8.438 0.981,-1.224 2.329,-1.861 3.825,-2.188 1.229,-0.266 2.472,-0.467 3.708,-0.695 -0.513,-1.758 -2.507,-2.426 -3.908,-1.299 -0.466,0.376 -0.863,0.881 -1.386,1.125 -0.419,0.193 -0.98,0.081 -1.479,0.105 0.006,-0.494 -0.163,-1.086 0.049,-1.464 0.748,-1.331 1.592,-2.612 2.468,-3.864 0.471,-0.674 0.697,-1.329 0.5,-2.142 -0.868,-3.573 -2.472,-6.795 -4.587,-9.78 -0.414,-0.585 -0.9,-0.875 -1.613,-0.506 -0.142,0.074 -0.369,0.156 -0.475,0.094 -1.355,-0.803 -2.792,-1.514 -4.009,-2.491 -0.917,-0.737 -0.697,-1.999 -0.427,-3.015 0.286,-1.077 0.767,-2.122 1.289,-3.115 0.523,-0.996 1.21,-1.063 2.121,-0.346 3.965,3.12 7.5,6.589 9.324,11.454 0.092,0.247 0.234,0.478 0.375,0.702 0.044,0.07 0.165,0.091 0.341,0.182 0.088,-0.268 0.174,-0.502 0.239,-0.739 0.96,-3.495 1.898,-6.995 2.884,-10.482 0.369,-1.296 0.951,-2.507 2.183,-3.229 1.313,-0.769 2.6,-0.843 3.913,0.108 1.576,1.143 2.835,2.503 3.513,4.357 0.086,0.234 0.276,0.434 0.417,0.648 -10e-4,0.602 -10e-4,1.199 -10e-4,1.799 z"
         inkscape:connector-curvature="0"
         style="clip-rule:evenodd;fill:#fff;fill-rule:evenodd" />
      <path
         id="path3252"
         d="m 351.345,426.555 c -0.054,-0.509 -0.299,-1.096 -0.128,-1.511 0.618,-1.499 1.263,-3.012 2.129,-4.37 0.421,-0.661 1.292,-1.151 2.062,-1.456 5.442,-2.149 10.901,-4.252 16.374,-6.32 1.695,-0.641 3.105,-1.569 4.251,-2.998 1.602,-1.995 3.352,-3.87 4.969,-5.853 1.177,-1.441 2.061,-3.059 1.855,-5.014 -0.055,-0.513 -0.292,-1.311 -0.628,-1.42 -0.434,-0.142 -1.107,0.187 -1.571,0.479 -0.523,0.33 -0.899,0.887 -1.397,1.269 -0.325,0.249 -0.756,0.363 -1.138,0.537 -0.087,-0.085 -0.174,-0.169 -0.26,-0.254 0.214,-0.606 0.349,-1.256 0.66,-1.807 0.913,-1.617 2.149,-2.949 3.742,-3.935 2.117,-1.308 4.111,-0.309 4.29,2.204 0.13,1.841 -0.464,3.54 -1.231,5.184 -1.297,2.778 -3.282,5.067 -5.265,7.357 -0.241,0.276 -0.475,0.556 -0.701,0.842 -0.026,0.032 0.015,0.116 0.041,0.285 1.521,-0.603 3.019,-1.197 4.517,-1.79 6.092,-2.41 12.195,-4.787 18.264,-7.252 1.53,-0.622 2.96,-1.498 4.415,-2.301 1.263,-0.695 2.021,-0.342 2.215,1.095 0.401,2.995 -1.732,5.751 -4.655,6.307 -1.417,0.27 -2.774,0.9 -4.125,1.446 -15.572,6.275 -31.138,12.566 -46.705,18.858 -0.271,0.11 -0.52,0.276 -0.778,0.416 -0.402,0.002 -0.802,0.002 -1.202,0.002 z"
         inkscape:connector-curvature="0"
         style="clip-rule:evenodd;fill:#fff;fill-rule:evenodd" />
      <path
         id="path3254"
         d="m 26.084,304.156 c 2.763,-2.492 5.607,-4.903 8.263,-7.506 1.921,-1.886 3.325,-4.187 3.689,-6.933 0.128,-0.96 0.099,-2.02 -0.174,-2.94 -0.496,-1.66 -2.087,-2.035 -3.365,-0.881 -0.613,0.553 -1.074,1.271 -1.684,1.829 -0.293,0.271 -0.77,0.337 -1.164,0.495 -0.072,-0.453 -0.345,-1.006 -0.18,-1.342 0.787,-1.599 1.537,-3.26 2.614,-4.656 0.632,-0.819 1.786,-1.393 2.819,-1.717 1.712,-0.534 3.285,0.352 4.15,2.116 1.115,2.279 0.993,4.677 0.35,7.022 -1.611,5.879 -5.363,10.158 -10.37,13.427 -1.054,0.688 -2.185,1.274 -3.336,1.786 -0.462,0.205 -1.071,0.076 -1.613,0.099 0.001,-0.266 0.001,-0.531 0.001,-0.799 z"
         inkscape:connector-curvature="0"
         style="clip-rule:evenodd;fill:#fff;fill-rule:evenodd" />
      <path
         id="path3256"
         d="m 255.919,334.252 c -3.954,-0.477 -7.909,-0.928 -11.857,-1.441 -1.614,-0.21 -3.217,-0.521 -4.813,-0.849 -0.954,-0.193 -1.562,0.058 -2.036,0.947 -0.83,1.556 -1.269,1.7 -2.985,1.232 -5.278,-1.437 -10.611,-1.187 -15.947,-0.474 -0.939,0.126 -1.827,0.6 -2.75,0.885 -0.531,0.164 -1.082,0.268 -1.649,0.406 -0.486,-0.836 -0.579,-1.581 -0.228,-2.428 0.838,-2.028 1.62,-4.079 2.433,-6.116 0.11,-0.274 0.208,-0.604 0.419,-0.783 3.275,-2.813 6.606,-5.695 11.155,-5.91 2.45,-0.114 4.964,0.353 7.396,0.827 6.722,1.314 13.389,2.943 20.233,3.541 3.115,0.272 6.235,0.48 9.352,0.713 0.322,0.022 0.646,0.003 1.061,0.003 -0.207,-1.952 -0.432,-3.79 -0.593,-5.634 -0.432,-4.97 -0.669,-9.963 -1.305,-14.906 -0.546,-4.248 -1.515,-8.441 -2.359,-12.646 -0.105,-0.52 -0.595,-1.344 -0.921,-1.352 -0.499,-0.012 -1.082,0.495 -1.495,0.914 -0.359,0.365 -0.512,0.925 -0.79,1.378 -0.512,0.841 -1.048,1.666 -1.575,2.497 -0.136,-0.02 -0.274,-0.037 -0.411,-0.057 -0.057,-0.717 -0.327,-1.498 -0.135,-2.14 1.222,-4.089 2.537,-8.15 5.59,-11.341 0.252,-0.263 0.521,-0.516 0.814,-0.73 1.753,-1.273 3.168,-0.751 3.732,1.342 1.711,6.352 2.501,12.861 3.26,19.371 0.764,6.545 1.176,13.116 1.115,19.711 -0.008,0.898 -0.018,1.798 -0.049,2.695 -0.021,0.637 0.271,0.907 0.896,0.904 5.918,-0.037 11.835,-0.078 17.753,-0.094 1.626,-0.005 3.256,0.049 4.883,0.111 0.635,0.024 0.99,0.421 0.886,1.068 -0.086,0.551 -0.164,1.146 -0.431,1.616 -0.986,1.735 -2.062,3.419 -3.079,5.135 -0.733,1.235 -1.822,1.965 -3.208,2.134 -2.044,0.252 -4.121,0.272 -6.149,0.602 -3.379,0.547 -6.733,1.256 -10.095,1.907 -0.614,0.12 -1.03,0.426 -0.959,1.158 0.588,6.123 1.046,12.262 1.792,18.365 0.468,3.846 1.76,7.492 3.74,10.874 4.025,6.868 10.153,9.903 18.037,8.756 1.968,-0.285 3.892,-0.86 5.84,-1.288 0.887,-0.193 1.323,-0.727 1.526,-1.613 2.854,-12.444 8.144,-23.888 14.39,-34.935 0.882,-1.56 1.909,-3.041 2.9,-4.54 0.213,-0.321 0.509,-0.701 0.844,-0.804 0.432,-0.132 1.032,-0.164 1.391,0.047 0.302,0.179 0.567,0.8 0.504,1.165 -0.923,5.271 -0.033,10.484 0.442,15.71 0.521,5.752 0.209,11.361 -2.52,16.631 -1.736,3.347 -4.119,6.19 -6.649,8.937 -0.291,0.315 -0.579,0.634 -1.069,1.172 0.611,-0.029 0.986,-0.002 1.342,-0.071 5.512,-1.082 11.059,-2.023 16.525,-3.311 6.664,-1.569 13.256,-3.442 19.886,-5.164 1.054,-0.274 2.218,-0.657 3.092,0.32 0.835,0.933 0.265,1.967 -0.107,2.91 -2.717,6.908 2.91,14.054 10.32,13.069 4.858,-0.645 8.248,-3.517 10.832,-7.434 1.573,-2.384 2.868,-4.95 4.376,-7.379 0.588,-0.947 1.367,-1.796 2.146,-2.604 1.099,-1.137 1.747,-1.041 2.606,0.251 0.091,0.135 0.193,0.261 0.385,0.521 0.361,-0.415 0.676,-0.775 0.991,-1.136 2.017,-2.313 4.059,-4.62 6.834,-6.042 1.105,-0.566 2.343,-0.972 3.567,-1.183 2.512,-0.436 4.442,0.702 6.009,2.593 1.617,1.953 2.849,4.133 3.388,6.601 0.811,3.698 1.474,7.43 2.168,11.152 0.25,1.34 -0.11,2.533 -0.933,3.649 -0.986,1.339 -1.85,2.766 -2.779,4.145 -1.071,1.588 -2.182,2.1 -4.015,1.517 -3.926,-1.25 -7.897,-2.381 -11.551,-4.376 -3.331,-1.818 -6.384,-3.962 -8.83,-6.897 -0.081,-0.1 -0.196,-0.171 -0.426,-0.366 -0.64,1.136 -1.28,2.209 -1.86,3.313 -1.883,3.59 -4.106,6.927 -7.13,9.668 -2.896,2.623 -6.154,4.447 -10.206,4.319 -4.937,-0.156 -9.191,-3.798 -10.336,-9.02 -0.393,-1.798 -0.369,-3.693 -0.453,-5.548 -0.086,-1.864 -0.817,-2.523 -2.608,-2.021 -6.214,1.74 -12.413,3.529 -18.617,5.304 -0.148,0.042 -0.284,0.125 -0.54,0.24 0.861,0.855 1.698,1.603 2.438,2.435 2.166,2.438 3.069,5.338 2.054,8.427 -1.178,3.588 -2.608,7.118 -4.248,10.521 -1.418,2.944 -5.247,4.129 -8.564,3.206 -5.023,-1.399 -8.857,-4.265 -11.883,-8.539 -2.306,-3.26 -3.745,-6.708 -4.114,-10.636 -0.063,-0.691 -0.336,-0.926 -1.002,-0.874 -0.661,0.053 -1.329,0.024 -1.994,0.046 -1.625,0.052 -2.234,-0.688 -1.895,-2.311 0.067,-0.318 0.121,-0.639 0.211,-1.126 -0.565,0.122 -1.002,0.204 -1.435,0.309 -3.622,0.879 -7.288,1.212 -10.991,0.695 -5.177,-0.722 -9.039,-3.512 -11.876,-7.801 -2.995,-4.527 -4.324,-9.633 -4.863,-14.944 -0.788,-7.775 -1.437,-15.563 -2.146,-23.347 -0.029,-0.325 -0.071,-0.65 -0.125,-1.12 -0.777,0.306 -1.488,0.536 -2.158,0.856 -6.714,3.224 -13.503,6.305 -20.103,9.746 -5.78,3.013 -11.009,6.884 -15.279,11.883 -5.848,6.845 -9.034,14.638 -7.9,23.787 0.869,7.005 4.14,12.844 9.161,17.739 5.505,5.367 12.167,8.476 19.621,10.049 6.682,1.412 13.445,1.751 20.248,1.527 6.846,-0.226 13.7,-0.353 20.534,-0.787 5.637,-0.358 11.248,-1.107 16.871,-1.672 0.689,-0.069 1.401,-0.149 2.077,-0.05 0.392,0.057 0.979,0.412 1.039,0.72 0.071,0.377 -0.226,0.926 -0.528,1.244 -0.327,0.347 -0.815,0.59 -1.279,0.744 -6.753,2.241 -13.518,4.451 -20.272,6.687 -12.713,4.206 -25.649,4.521 -38.744,2.293 -5.898,-1.004 -11.578,-2.651 -17.018,-5.194 -7.752,-3.625 -12.588,-9.509 -14.717,-17.798 -3.455,-13.456 -1.955,-26.269 4.779,-38.408 4.303,-7.756 10.572,-13.698 17.827,-18.67 4.818,-3.3 9.995,-5.962 15.195,-8.585 0.251,-0.128 0.496,-0.271 0.743,-0.406 -0.025,-0.111 -0.046,-0.224 -0.067,-0.339 z m 49.3,39.09 c 0.396,-0.138 0.582,-0.189 0.755,-0.265 3.025,-1.293 5.707,-3.159 8.242,-5.203 2.341,-1.885 3.927,-4.202 3.45,-7.487 -0.47,-3.221 -0.78,-6.464 -1.183,-9.694 -0.128,-1.028 -0.327,-2.051 -0.492,-3.076 -5.553,7.75 -9.382,16.111 -10.772,25.725 z m 3.381,15.978 c -0.042,0.11 -0.084,0.221 -0.125,0.331 0.484,0.533 1.011,1.035 1.446,1.605 3.191,4.173 7.569,6.363 12.564,7.481 0.749,0.167 1.578,0.092 2.351,-0.009 0.805,-0.104 1.095,-0.603 0.569,-1.332 -0.463,-0.644 -0.892,-1.338 -1.462,-1.875 -3.664,-3.45 -8.182,-5.083 -13.025,-5.976 -0.761,-0.139 -1.544,-0.153 -2.318,-0.225 z m 77.484,-18.147 c 3.728,2.401 7.059,5.094 11.236,6.438 0.038,-0.211 0.089,-0.312 0.067,-0.393 -0.752,-2.704 -1.957,-5.161 -4.041,-7.095 -1.214,-1.124 -2.683,-1.332 -4.173,-0.698 -1.021,0.431 -1.947,1.09 -3.089,1.748 z"
         inkscape:connector-curvature="0"
         style="clip-rule:evenodd;fill:#fff;fill-rule:evenodd" />
      <path
         id="path3258"
         d="m 148.598,382.676 c -0.88,1.452 -1.645,2.725 -2.419,3.994 -1.359,2.226 -2.875,4.34 -4.94,5.963 -3.094,2.435 -6.614,3.32 -10.413,2.168 -4.277,-1.295 -6.396,-4.597 -7.23,-8.76 -0.309,-1.539 -0.151,-3.17 -0.198,-4.761 -0.007,-0.254 0.028,-0.508 0.054,-0.946 -1.455,0.555 -2.794,1.025 -4.103,1.569 -3.901,1.62 -7.783,3.289 -11.688,4.897 -1.558,0.643 -2.596,1.629 -3.272,3.245 -1.051,2.511 -2.195,5.026 -3.672,7.296 -1.14,1.75 -2.763,3.228 -4.331,4.649 -5.76,5.222 -12.487,8.901 -19.562,12 -5.56,2.436 -11.239,4.506 -17.265,5.458 -6.135,0.968 -12.149,0.58 -17.915,-1.892 -8.281,-3.549 -12.163,-10.069 -12.469,-18.878 -0.213,-6.126 1.432,-11.927 3.472,-17.616 1.064,-2.967 2.4,-5.835 3.538,-8.776 0.366,-0.945 0.655,-1.976 0.703,-2.981 0.437,-9.187 3.967,-17.005 10.294,-23.614 0.871,-0.91 1.733,-1.83 2.699,-2.851 -0.803,-0.882 -1.611,-1.745 -2.394,-2.631 -3.622,-4.098 -7.088,-8.312 -9.211,-13.432 -0.89,-2.147 -1.614,-4.348 -3.046,-6.254 -0.428,-0.57 -0.555,-1.654 -0.346,-2.364 0.667,-2.258 1.511,-4.469 2.379,-6.662 0.362,-0.914 1.431,-1.072 2.12,-0.362 2.084,2.149 4.124,4.342 6.191,6.508 0.389,0.407 0.805,0.794 1.244,1.147 1.223,0.979 1.682,2.186 1.083,3.617 -0.939,2.25 -0.342,4.047 1.268,5.716 2.495,2.585 4.937,5.221 7.402,7.834 0.157,0.166 0.33,0.316 0.562,0.538 0.482,-0.384 0.96,-0.729 1.401,-1.118 5.056,-4.476 10.171,-8.885 15.138,-13.456 4.194,-3.861 7.8,-8.271 11.28,-12.781 0.48,-0.623 1.086,-1.167 1.711,-1.649 0.288,-0.222 0.76,-0.202 1.149,-0.291 -0.063,0.364 -0.022,0.794 -0.205,1.082 -2.463,3.911 -4.832,7.891 -7.472,11.681 -4.907,7.042 -10.671,13.347 -17.082,19.057 -0.591,0.526 -1.166,1.072 -1.745,1.606 7.41,8.827 7.775,17.911 1.38,27.196 -2.698,3.916 -6.65,6.256 -11.198,7.572 -4.578,1.322 -9.061,1.282 -13.438,-1.188 -0.387,0.999 -0.82,1.832 -1.034,2.717 -0.908,3.747 -1.932,7.478 -2.583,11.271 -1.461,8.515 2.352,15.448 10.212,19.086 5.713,2.645 11.701,3.244 17.85,2.349 11.902,-1.734 22.682,-6.351 32.64,-12.99 1.326,-0.884 2.603,-1.849 3.838,-2.856 1.013,-0.827 1.631,-1.868 1.549,-3.29 -0.051,-0.884 -0.264,-1.173 -1.185,-1.014 -2.588,0.448 -5.179,0.924 -7.788,1.192 -4.059,0.418 -8.047,0.186 -11.707,-1.941 -4.306,-2.503 -5.91,-6.323 -4.521,-11.076 0.409,-1.397 0.987,-2.761 1.631,-4.066 1.64,-3.331 3.781,-6.263 7.013,-8.253 5.596,-3.448 11.579,-2.479 15.854,2.517 2.522,2.947 4.303,6.312 5.71,9.89 0.318,0.809 0.634,1.103 1.513,0.744 4.557,-1.861 9.134,-3.673 13.697,-5.517 2.004,-0.81 3.992,-1.659 5.992,-2.483 0.274,-0.112 0.581,-0.267 0.854,-0.235 0.567,0.064 1.292,0.078 1.625,0.426 0.252,0.263 0.092,1.038 -0.051,1.539 -0.208,0.729 -0.583,1.412 -0.857,2.125 -1.297,3.377 -0.485,6.176 2.415,8.375 4.725,3.581 10.863,2.801 14.52,-1.986 1.345,-1.76 2.366,-3.766 3.534,-5.661 0.716,-1.16 1.42,-2.326 2.154,-3.477 0.174,-0.273 0.4,-0.595 0.677,-0.7 0.502,-0.193 1.06,-0.242 1.593,-0.354 0.079,0.464 0.26,0.935 0.218,1.385 -0.204,2.153 0.344,4.082 1.571,5.844 4.352,6.247 12.226,8.102 18.921,4.481 0.936,-0.508 1.256,-1.196 1.329,-2.236 0.45,-6.413 -0.666,-12.671 -1.834,-18.915 -2.108,-11.277 -4.279,-22.543 -6.437,-33.81 -1.732,-9.048 -3.478,-18.094 -5.227,-27.138 -0.707,-3.654 -1.53,-7.289 -2.097,-10.965 -0.181,-1.178 0.049,-2.561 0.522,-3.664 0.78,-1.822 1.891,-3.506 2.91,-5.22 0.205,-0.345 0.583,-0.653 0.953,-0.819 0.854,-0.385 1.52,-0.069 1.573,0.863 0.278,4.946 2.669,9.151 4.654,13.495 1.645,3.595 2.247,7.21 0.636,10.999 -0.228,0.536 -0.213,1.258 -0.097,1.851 2.28,11.719 4.62,23.426 6.884,35.15 1.141,5.907 2.372,11.811 3.173,17.77 0.904,6.726 0.812,13.48 -1.188,20.071 -0.943,3.108 -2.263,6.046 -4.27,8.63 -3.537,4.551 -10.588,7.071 -15.937,5.425 -4.905,-1.511 -8.351,-4.805 -10.309,-9.59 -0.169,-0.418 -0.315,-0.845 -0.547,-1.469 z m -94.477,-35.54 c -1.809,1.706 -3.685,3.265 -5.305,5.054 -2.426,2.679 -4.784,5.438 -6.954,8.325 -1.378,1.833 -0.678,3.822 1.479,4.662 1.149,0.445 2.444,0.628 3.686,0.7 4.19,0.244 8.098,-0.952 11.853,-2.656 1.188,-0.54 2.233,-1.396 3.331,-2.125 0.545,-0.364 0.597,-0.858 0.434,-1.489 -1.336,-5.155 -4.603,-8.968 -8.524,-12.471 z m 42.14,33.447 c 0.075,-0.096 0.149,-0.193 0.224,-0.289 -1.676,-1.815 -3.177,-3.844 -5.066,-5.398 -3.1,-2.551 -6.693,-2.029 -9.381,0.979 -0.505,0.565 -0.585,1.089 0.041,1.506 1.286,0.856 2.535,1.865 3.953,2.405 3.302,1.258 6.796,0.803 10.229,0.797 z"
         inkscape:connector-curvature="0"
         style="clip-rule:evenodd;fill:#fff;fill-rule:evenodd" />
      <path
         id="path3260"
         d="m 218.135,296.338 c 0.858,-2.213 0.881,-4.24 1.037,-6.248 0.125,-1.589 0.116,-3.226 0.526,-4.743 0.373,-1.374 1.089,-2.718 1.911,-3.896 1.157,-1.655 2.944,-1.929 4.675,-0.889 1.843,1.106 3.258,2.626 4.056,4.657 0.094,0.24 0.252,0.568 0.163,0.75 -0.562,1.149 -1.042,2.383 -1.83,3.362 -0.778,0.969 -1.368,0.728 -1.661,-0.497 -0.335,-1.4 -1.076,-2.484 -2.32,-3.223 -1.545,-0.918 -2.581,-0.404 -2.736,1.387 -0.082,0.926 -0.103,1.858 -0.158,2.788 -0.271,4.528 -1.67,8.815 -2.958,13.106 -2.606,8.689 -8.471,14.139 -17.083,16.78 -1.581,0.485 -3.089,1.216 -4.631,1.831 -0.678,0.27 -0.84,0.75 -0.679,1.443 1.146,4.958 2.247,9.927 3.412,14.879 1.698,7.222 3.435,14.435 4.298,21.818 0.873,7.453 0.887,14.867 -0.947,22.207 -1.776,7.111 -4.805,13.674 -8.781,19.795 -1.791,2.759 -3.77,5.397 -5.734,8.038 -4.231,5.681 -9.979,8.786 -16.941,9.646 -7.367,0.91 -14.683,2.077 -21.905,3.808 -0.381,0.091 -0.803,0.172 -1.172,0.096 -0.27,-0.056 -0.484,-0.379 -0.723,-0.583 0.192,-0.205 0.35,-0.516 0.585,-0.594 0.786,-0.26 1.596,-0.456 2.405,-0.646 13.54,-3.172 25.778,-9.021 36.419,-18.009 5.122,-4.327 9.031,-9.574 10.833,-16.176 1.032,-3.786 0.983,-7.646 0.627,-11.5 -0.821,-8.862 -2.671,-17.549 -4.491,-26.245 -2.021,-9.667 -4.046,-19.335 -5.788,-29.054 -1.103,-6.148 -1.672,-12.394 -2.517,-18.589 -0.582,-4.285 -1.264,-8.557 -1.806,-12.846 -0.101,-0.801 0.077,-1.744 0.431,-2.474 0.942,-1.942 2.044,-3.81 3.102,-5.694 0.158,-0.279 0.39,-0.539 0.645,-0.732 0.64,-0.482 1.176,-0.398 1.443,0.414 0.311,0.947 0.715,1.892 0.842,2.867 0.494,3.733 2.142,7.045 3.697,10.388 1.115,2.394 2.142,4.798 2.345,7.473 0.146,1.924 -0.292,3.718 -1.346,5.321 -0.871,1.326 -1.157,2.743 -0.945,4.28 0.315,2.273 0.666,4.542 0.988,6.813 0.081,0.585 0.223,0.926 0.946,0.697 5.645,-1.777 10.926,-4.262 15.336,-8.274 1.375,-1.253 2.494,-2.847 3.49,-4.437 0.481,-0.768 0.65,-1.915 0.54,-2.842 -0.494,-4.156 -2.621,-7.469 -5.661,-10.251 -0.537,-0.491 -1.076,-0.597 -1.682,-0.076 -0.59,0.507 -1.23,0.338 -1.701,-0.146 -1.115,-1.143 -2.232,-2.292 -3.221,-3.541 -1.053,-1.336 -0.406,-4.781 0.979,-5.766 0.568,-0.406 1.212,-0.521 1.755,-0.051 3.307,2.871 7.013,5.33 9.613,8.94 0.767,1.065 1.266,2.329 1.883,3.502 0.114,0.225 0.214,0.457 0.435,0.936 z"
         inkscape:connector-curvature="0"
         style="clip-rule:evenodd;fill:#fff;fill-rule:evenodd" />
      <path
         id="path3262"
         d="m 323.475,288.374 c 0,-0.636 -0.098,-1.003 0.015,-1.288 1.048,-2.658 2.668,-4.814 5.381,-5.988 2.527,-1.092 4.467,-0.129 5.131,2.576 0.505,2.052 -0.073,3.967 -0.868,5.813 -1.842,4.286 -4.46,8.007 -8.202,10.868 -0.202,0.155 -0.439,0.262 -0.66,0.393 0.08,0.115 0.157,0.23 0.237,0.346 0.411,-0.135 0.832,-0.247 1.233,-0.404 9.158,-3.605 18.287,-7.285 27.479,-10.803 6.146,-2.352 12.387,-4.457 18.568,-6.716 1.747,-0.638 3.435,-1.437 5.156,-2.149 1.258,-0.523 1.984,-0.051 1.885,1.301 -0.18,2.446 -0.913,4.486 -3.545,5.445 -5.621,2.046 -11.169,4.293 -16.795,6.326 -15.045,5.438 -30.004,11.09 -44.528,17.83 -4.341,2.017 -8.633,4.144 -12.947,6.221 -0.179,0.086 -0.349,0.232 -0.536,0.258 -0.622,0.09 -1.251,0.135 -1.876,0.198 0.005,-0.59 -0.094,-1.204 0.037,-1.763 0.253,-1.064 0.642,-2.098 0.965,-3.146 0.313,-1.02 0.99,-1.706 1.937,-2.158 5.161,-2.466 10.251,-5.094 15.511,-7.328 2.186,-0.928 3.862,-2.205 5.336,-3.946 1.865,-2.205 3.857,-4.308 5.638,-6.576 1.284,-1.638 1.987,-3.601 2.228,-5.695 0.023,-0.198 0.054,-0.399 0.039,-0.597 -0.081,-1.016 -0.213,-2.07 -1.254,-2.547 -1.049,-0.481 -1.839,0.227 -2.575,0.863 -0.927,0.799 -1.829,1.628 -2.99,2.666 z"
         inkscape:connector-curvature="0"
         style="clip-rule:evenodd;fill:#fff;fill-rule:evenodd" />
      <path
         id="path3264"
         d="m 139.942,301.984 c -1.856,-1.42 -3.595,-2.689 -5.262,-4.048 -0.949,-0.771 -1.814,-1.657 -2.658,-2.546 -1.334,-1.409 -1.829,-3.146 -1.351,-4.992 1.41,-5.438 4.393,-9.607 9.984,-11.337 3.715,-1.148 5.068,-0.343 6.26,3.345 1.459,4.516 1.259,8.986 -0.473,13.379 -0.356,0.902 -0.268,1.527 0.38,2.239 0.805,0.881 1.501,1.862 2.21,2.825 0.597,0.813 0.714,1.767 0.32,2.657 -0.536,1.209 -1.143,2.405 -1.871,3.509 -0.803,1.217 -1.899,1.104 -2.691,-0.139 -0.674,-1.06 -1.365,-2.107 -2.146,-3.309 -0.407,0.475 -0.735,0.791 -0.986,1.16 -3.242,4.762 -7.764,8.049 -12.559,11.058 -7.623,4.786 -16.06,7.475 -24.659,9.774 -1.831,0.488 -3.655,1.005 -5.492,1.469 -0.685,0.172 -1.399,0.226 -2.099,0.333 -0.05,-0.112 -0.101,-0.223 -0.151,-0.335 0.466,-0.306 0.904,-0.671 1.404,-0.905 6.14,-2.881 12.328,-5.664 18.427,-8.632 7.312,-3.559 14.34,-7.607 20.609,-12.848 0.959,-0.799 1.818,-1.715 2.804,-2.657 z m 2.901,-7.543 c 0,-1.428 0.117,-2.727 -0.033,-3.994 -0.15,-1.271 -0.504,-2.531 -0.888,-3.758 -0.266,-0.849 -0.962,-1.186 -1.835,-0.848 -1.206,0.465 -2.437,0.896 -3.577,1.494 -1.245,0.652 -1.26,1.279 -0.354,2.369 1.77,2.128 4.135,3.4 6.687,4.737 z"
         inkscape:connector-curvature="0"
         style="clip-rule:evenodd;fill:#fff;fill-rule:evenodd" />
      <path
         id="path3266"
         d="m 57.765,297.002 c 1.405,1.43 2.907,2.975 4.428,4.498 0.987,0.988 2.007,1.943 3.006,2.918 0.938,0.915 1.001,1.382 0.25,2.418 -1.483,2.046 -2.99,4.076 -4.492,6.108 -0.157,0.213 -0.339,0.409 -0.529,0.595 -1.028,0.998 -1.344,0.864 -2.28,-0.186 -2.121,-2.375 -4.317,-4.689 -6.553,-6.957 -1.581,-1.605 -1.69,-1.93 -0.415,-3.811 1.214,-1.788 2.448,-3.563 3.712,-5.314 0.496,-0.688 0.487,-1.21 -0.129,-1.828 -2.042,-2.049 -4.042,-4.139 -6.063,-6.208 -1.373,-1.407 -1.438,-2.051 -0.246,-3.624 1.344,-1.775 2.708,-3.539 4.105,-5.272 0.925,-1.149 1.632,-1.183 2.657,-0.165 2.243,2.224 4.482,4.451 6.679,6.722 1.373,1.417 1.41,1.833 0.348,3.462 -1.412,2.167 -2.889,4.292 -4.478,6.644 z"
         inkscape:connector-curvature="0"
         style="clip-rule:evenodd;fill:#fff;fill-rule:evenodd" />
      <path
         id="path3268"
         d="m 294.969,293.361 c 0.47,-2.248 0.908,-4.393 1.371,-6.533 0.416,-1.927 1.326,-3.613 2.618,-5.092 1.104,-1.268 2.625,-1.65 4.156,-0.975 2.161,0.953 3.705,2.578 4.673,4.711 0.596,1.313 -1.095,4.117 -2.544,4.336 -0.731,0.111 -1.042,-0.314 -1.123,-0.959 -0.148,-1.166 -0.78,-2.043 -1.666,-2.739 -1.539,-1.21 -3.134,-0.653 -3.513,1.269 -0.442,2.251 -0.813,4.518 -1.147,6.788 -0.319,2.171 -0.475,4.366 -0.856,6.525 -0.161,0.915 -0.639,1.808 -1.123,2.62 -0.208,0.349 -0.827,0.687 -1.206,0.635 -0.369,-0.051 -0.835,-0.546 -0.972,-0.944 -0.438,-1.288 -0.767,-2.616 -1.1,-3.937 -0.885,-3.516 -3.314,-5.92 -5.882,-8.226 -0.379,-0.34 -0.722,-0.425 -1.194,0.02 -0.942,0.88 -1.802,0.903 -2.87,0.169 -0.767,-0.526 -1.485,-1.123 -2.223,-1.689 -1.267,-0.976 -1.548,-2.27 -1.165,-3.746 0.174,-0.674 0.394,-1.342 0.653,-1.987 0.552,-1.368 1.44,-1.786 2.772,-1.124 1.515,0.752 3.005,1.586 4.399,2.537 2.894,1.977 5.206,4.537 7.089,7.486 0.143,0.225 0.294,0.443 0.46,0.65 0.055,0.069 0.165,0.09 0.393,0.205 z"
         inkscape:connector-curvature="0"
         style="clip-rule:evenodd;fill:#fff;fill-rule:evenodd" />
      <path
         id="path3270"
         d="m 94.807,354.943 c 0.256,-0.12 0.502,-0.269 0.768,-0.359 7.477,-2.539 14.534,-5.916 20.967,-10.529 0.971,-0.697 1.869,-1.496 2.815,-2.229 0.612,-0.473 0.51,-0.837 -0.098,-1.21 -0.85,-0.521 -1.71,-1.034 -2.517,-1.619 -2.46,-1.78 -2.832,-3.405 -1.459,-6.09 0.779,-1.524 1.684,-2.952 3.092,-3.981 0.426,-0.312 0.874,-0.64 1.364,-0.813 3.021,-1.076 4.907,-0.296 5.521,2.786 0.415,2.077 0.094,4.05 -0.88,5.9 -0.381,0.725 -0.308,1.241 0.298,1.742 0.204,0.167 0.381,0.372 0.559,0.568 1.025,1.136 0.977,1.505 0.157,2.782 -1.791,2.791 -3.542,5.609 -5.235,8.461 -0.827,1.393 -1.152,2.91 -0.355,4.475 0.406,0.796 0.889,1.536 1.893,1.561 0.934,0.021 1.249,-0.714 1.596,-1.424 0.18,-0.37 0.522,-0.663 0.93,-0.894 -0.207,2.255 -1.035,4.203 -2.696,5.696 -0.713,0.641 -1.88,0.43 -2.746,-0.334 -1.23,-1.086 -1.589,-2.498 -1.387,-4.072 0.355,-2.759 1.496,-5.23 2.885,-7.597 0.724,-1.233 1.47,-2.457 2.283,-3.633 0.506,-0.733 0.098,-1.242 -0.357,-1.622 -0.178,-0.147 -0.838,0.065 -1.126,0.301 -1.777,1.451 -3.502,2.966 -5.258,4.44 -3.88,3.258 -8.408,5.192 -13.266,6.439 -1.964,0.504 -3.925,1.03 -5.903,1.478 -0.575,0.13 -1.203,0.02 -1.807,0.02 -0.012,-0.081 -0.025,-0.162 -0.038,-0.243 z m 27.153,-17.862 c 0.083,-1.778 0.224,-3.229 -0.445,-4.571 -0.172,-0.345 -0.76,-0.739 -1.098,-0.692 -0.853,0.12 -1.72,0.384 -2.49,0.772 -0.663,0.333 -0.681,1.007 -0.085,1.47 1.267,0.986 2.586,1.905 4.118,3.021 z"
         inkscape:connector-curvature="0"
         style="clip-rule:evenodd;fill:#fff;fill-rule:evenodd" />
      <path
         id="path3272"
         d="m 49.476,389.905 c -0.97,1.021 -1.866,0.73 -2.752,0.091 -0.7,-0.507 -1.427,-0.983 -2.089,-1.536 -1.755,-1.462 -2.008,-4.827 -0.423,-6.479 0.288,-0.301 1.11,-0.438 1.487,-0.251 3.657,1.809 6.915,4.102 9.021,7.743 0.759,1.313 1.638,2.558 2.616,4.072 0.123,-0.54 0.188,-0.836 0.257,-1.128 0.773,-3.297 1.441,-6.625 2.353,-9.883 0.86,-3.072 3.183,-3.84 5.872,-2.161 1.775,1.108 2.894,2.719 3.582,4.647 0.462,1.292 -0.963,4.072 -2.255,4.508 -0.701,0.235 -1.005,-0.092 -1.064,-0.75 -0.145,-1.614 -1.041,-2.776 -2.274,-3.711 -1.407,-1.065 -2.246,-0.742 -2.551,0.996 -0.62,3.537 -1.155,7.09 -1.823,10.617 -0.313,1.651 -0.783,3.284 -1.333,4.873 -0.173,0.501 -0.836,0.832 -1.275,1.24 -0.392,-0.528 -0.975,-1.001 -1.146,-1.593 -1.213,-4.189 -3.313,-7.872 -6.203,-11.295 z"
         inkscape:connector-curvature="0"
         style="clip-rule:evenodd;fill:#fff;fill-rule:evenodd" />
      <path
         id="path3274"
         d="m 263.597,408.977 c -1.555,-0.475 -3.06,-0.785 -4.436,-1.388 -1.913,-0.837 -2.556,-2.464 -1.648,-4.366 0.884,-1.85 2.046,-3.568 3.13,-5.318 0.611,-0.988 1.331,-1.911 1.966,-2.886 0.582,-0.893 0.38,-1.437 -0.682,-1.627 -1.919,-0.344 -3.599,0.271 -5.107,1.454 -0.52,0.41 -1.042,0.837 -1.623,1.14 -0.262,0.137 -0.787,0.11 -0.983,-0.07 -0.188,-0.17 -0.226,-0.683 -0.122,-0.968 1.63,-4.457 5.894,-6.759 10.547,-5.727 1.576,0.35 2.427,1.391 2.089,2.967 -0.245,1.143 -0.752,2.276 -1.361,3.281 -1.035,1.703 -2.244,3.3 -3.377,4.942 -0.226,0.328 -0.455,0.658 -0.65,1.006 -0.627,1.123 -0.419,1.923 0.816,2.229 1.495,0.374 3.06,0.694 4.587,0.671 7.117,-0.11 12.517,-3.765 17.288,-8.633 0.604,-0.617 1.178,-1.271 1.828,-1.836 0.235,-0.205 0.65,-0.203 0.981,-0.296 0.024,0.406 0.219,0.926 0.041,1.199 -0.619,0.942 -1.367,1.799 -2.067,2.688 -3.217,4.077 -6.825,7.746 -11.885,9.392 -3.015,0.981 -6.197,1.443 -9.332,2.146 z"
         inkscape:connector-curvature="0"
         style="clip-rule:evenodd;fill:#fff;fill-rule:evenodd" />
      <path
         id="path3276"
         d="m 139.072,334.426 c 0.467,0.219 0.869,0.328 1.175,0.563 2.983,2.282 5.985,4.543 8.908,6.902 1.472,1.189 1.47,1.738 0.315,3.255 -1.511,1.982 -3.053,3.943 -4.611,5.892 -0.679,0.85 -1.199,0.913 -2.029,0.234 -2.96,-2.422 -5.913,-4.853 -8.838,-7.315 -1.129,-0.952 -1.242,-1.487 -0.411,-2.711 1.399,-2.062 2.9,-4.058 4.402,-6.048 0.256,-0.341 0.723,-0.52 1.089,-0.772 z"
         inkscape:connector-curvature="0"
         style="clip-rule:evenodd;fill:#fff;fill-rule:evenodd" />
      <path
         id="path3278"
         d="m 110.292,403.281 c 0.486,0.232 0.882,0.34 1.175,0.575 2.878,2.313 5.748,4.634 8.598,6.98 1.184,0.975 1.267,1.505 0.325,2.685 -1.618,2.026 -3.279,4.02 -4.977,5.979 -0.893,1.03 -1.348,1.038 -2.361,0.203 -2.695,-2.22 -5.384,-4.449 -8.055,-6.696 -1.108,-0.933 -1.203,-1.48 -0.388,-2.646 1.45,-2.07 2.944,-4.112 4.463,-6.132 0.292,-0.387 0.789,-0.622 1.22,-0.948 z"
         inkscape:connector-curvature="0"
         style="clip-rule:evenodd;fill:#fff;fill-rule:evenodd" />
      <path
         id="path3280"
         d="m 112.758,279.436 c 0.782,-0.015 1.1,0.182 0.829,0.837 -0.704,1.698 -1.638,3.067 -3.485,3.857 -3.421,1.461 -6.77,3.103 -10.089,4.787 -7.411,3.761 -14.802,7.562 -22.16,11.428 -1.728,0.907 -3.289,2.13 -4.926,3.209 -0.332,0.22 -0.636,0.514 -0.999,0.65 -0.304,0.114 -0.74,0.165 -0.995,0.024 -0.177,-0.098 -0.232,-0.584 -0.193,-0.876 0.251,-1.945 1.242,-3.28 3.021,-4.259 8.944,-4.92 17.879,-9.855 27.112,-14.225 3.515,-1.662 7.027,-3.334 10.549,-4.985 0.474,-0.222 1.001,-0.337 1.336,-0.447 z"
         inkscape:connector-curvature="0"
         style="clip-rule:evenodd;fill:#fff;fill-rule:evenodd" />
      <path
         id="path3282"
         d="m 246.99,367.727 c 0.433,0.187 0.821,0.294 1.143,0.504 2.674,1.741 5.344,3.491 8.001,5.261 1.001,0.668 1.186,1.375 0.674,2.493 -1.137,2.486 -2.79,4.592 -4.813,6.42 -0.778,0.702 -1.566,0.769 -2.442,0.179 -2.398,-1.617 -4.81,-3.218 -7.214,-4.824 -0.138,-0.093 -0.274,-0.188 -0.405,-0.293 -1.229,-0.987 -1.271,-1.314 -0.637,-2.723 1.113,-2.474 2.923,-4.43 4.676,-6.43 0.237,-0.271 0.654,-0.384 1.017,-0.587 z"
         inkscape:connector-curvature="0"
         style="clip-rule:evenodd;fill:#fff;fill-rule:evenodd" />
      <path
         id="path3284"
         d="m 348.088,330.506 c 0.525,0.261 1.019,0.405 1.384,0.706 2.465,2.025 4.911,4.078 7.347,6.14 1.243,1.052 1.28,1.409 0.205,2.602 -1.758,1.952 -3.521,3.901 -5.348,5.787 -1.092,1.124 -1.412,1.001 -2.542,-0.028 -1.917,-1.743 -3.911,-3.4 -5.877,-5.092 -0.302,-0.261 -0.636,-0.486 -0.928,-0.754 -0.933,-0.855 -1.042,-1.529 -0.271,-2.515 1.597,-2.044 3.232,-4.059 4.886,-6.056 0.274,-0.33 0.727,-0.509 1.144,-0.79 z"
         inkscape:connector-curvature="0"
         style="clip-rule:evenodd;fill:#fff;fill-rule:evenodd" />
      <path
         id="path3286"
         d="m 236.126,304.098 c 0.273,-4.566 1.189,-8.364 2.788,-11.916 1.739,-3.869 3.841,-7.576 5.788,-11.351 0.093,-0.175 0.205,-0.345 0.33,-0.499 0.439,-0.541 1.016,-0.877 1.648,-0.468 0.655,0.423 0.274,1.018 -0.018,1.491 -2.324,3.788 -4.197,7.781 -5.458,12.045 -0.632,2.133 -1.386,4.287 -0.923,6.543 0.198,0.965 0.713,1.911 1.267,2.742 0.484,0.724 1.365,0.801 2.179,0.545 0.803,-0.25 1.037,-0.924 1.162,-1.699 0.086,-0.54 0.213,-1.143 0.53,-1.561 0.569,-0.748 1.459,-0.551 1.594,0.371 0.142,0.97 0.188,2.005 0.006,2.959 -0.411,2.141 -1.504,3.968 -3.087,5.471 -2.466,2.34 -5.642,1.775 -6.985,-1.338 -0.527,-1.219 -0.652,-2.612 -0.821,-3.335 z"
         inkscape:connector-curvature="0"
         style="clip-rule:evenodd;fill:#fff;fill-rule:evenodd" />
      <path
         id="path3288"
         d="m 363.634,321.239 c -0.776,-0.152 -1.581,-0.228 -2.325,-0.476 -1.571,-0.521 -2.348,-1.737 -2.416,-3.518 -0.096,-2.508 0.767,-4.765 1.795,-6.979 0.686,-1.475 1.388,-2.943 2.124,-4.396 0.17,-0.338 0.455,-0.674 0.773,-0.873 0.76,-0.473 1.342,-0.227 1.404,0.656 0.052,0.76 0.457,0.979 1.055,1.215 1.542,0.607 3.121,1.164 4.574,1.947 2.481,1.336 3.196,3.582 2.153,6.184 -1.476,3.67 -5.164,6.155 -9.137,6.24 z m -1.77,-7.55 c -0.076,1.809 0.587,2.679 1.948,3.122 1.407,0.456 2.756,0.167 4.109,-0.19 0.831,-0.219 1.867,-0.365 2.012,-1.357 0.148,-1.025 -0.767,-1.603 -1.496,-2.18 -0.026,-0.02 -0.057,-0.035 -0.086,-0.049 -1.557,-0.746 -3.115,-1.486 -4.668,-2.237 -0.728,-0.351 -1.148,-0.081 -1.323,0.648 -0.21,0.869 -0.387,1.745 -0.496,2.243 z"
         inkscape:connector-curvature="0"
         style="clip-rule:evenodd;fill:#fff;fill-rule:evenodd" />
      <path
         id="path3290"
         d="m 319.77,425.3 c 0.496,-0.24 0.97,-0.546 1.488,-0.711 4.019,-1.287 8.052,-2.53 12.07,-3.82 3.052,-0.98 5.549,-2.836 7.75,-5.109 0.996,-1.028 1.599,-2.287 1.709,-3.737 0.084,-1.107 -0.049,-2.194 -1.146,-2.774 -1.075,-0.567 -2.161,-0.275 -3.111,0.367 -0.848,0.573 -1.624,1.254 -2.603,2.021 0,-0.542 -0.14,-1.009 0.022,-1.315 1.24,-2.345 2.767,-4.412 5.538,-5.101 1.68,-0.418 3.184,-0.11 4.37,1.212 0.919,1.025 1.035,2.252 0.778,3.561 -0.762,3.89 -3.209,6.626 -6.132,9.052 -4.748,3.94 -10.266,5.897 -16.355,6.41 -1.29,0.109 -2.575,0.259 -3.866,0.377 -0.117,0.012 -0.24,-0.057 -0.362,-0.089 -0.05,-0.117 -0.1,-0.23 -0.15,-0.344 z"
         inkscape:connector-curvature="0"
         style="clip-rule:evenodd;fill:#fff;fill-rule:evenodd" />
      <path
         id="path3292"
         d="m 286.331,355.697 c 0.034,-3.255 1.131,-5.91 2.667,-8.407 2.694,-4.388 5.903,-8.368 9.577,-11.974 0.926,-0.91 1.708,-1.14 2.125,-0.575 0.646,0.872 -0.005,1.457 -0.544,2.066 -2.29,2.589 -4.689,5.091 -6.813,7.811 -1.786,2.288 -3.187,4.895 -3.344,7.885 -0.071,1.352 0.262,2.754 0.604,4.083 0.115,0.452 0.819,1.033 1.258,1.037 0.399,0.001 0.843,-0.666 1.192,-1.101 0.198,-0.245 0.169,-0.688 0.384,-0.903 0.321,-0.323 0.822,-0.78 1.144,-0.71 0.406,0.09 0.933,0.611 1.004,1.018 0.103,0.57 0.029,1.363 -0.311,1.789 -1.088,1.361 -2.241,2.705 -3.549,3.851 -1.005,0.883 -2.359,0.641 -3.341,-0.351 -1.579,-1.593 -1.975,-3.632 -2.053,-5.519 z"
         inkscape:connector-curvature="0"
         style="clip-rule:evenodd;fill:#fff;fill-rule:evenodd" />
      <path
         id="path3294"
         d="m 380.115,344.466 c -0.055,3.279 -1.583,5.59 -3.539,7.655 -2.84,2.996 -6.376,4.979 -10.09,6.663 -1.331,0.604 -2.691,1.147 -4.044,1.703 -0.336,0.139 -0.694,0.289 -1.046,0.301 -0.327,0.008 -0.66,-0.161 -0.99,-0.254 0.114,-0.294 0.14,-0.698 0.354,-0.862 0.759,-0.585 1.579,-1.092 2.382,-1.623 3.435,-2.271 6.886,-4.516 10.292,-6.83 0.759,-0.514 1.424,-1.212 2.009,-1.927 1.139,-1.393 1.088,-3.201 0,-4.491 -0.476,-0.565 -1,-0.769 -1.643,-0.304 -0.7,0.503 -1.358,1.07 -2.089,1.525 -0.291,0.181 -0.725,0.13 -1.092,0.186 0.012,-0.338 -0.073,-0.72 0.054,-1.008 0.717,-1.623 1.602,-3.144 3.031,-4.262 2.819,-2.207 5.318,-1.348 6.188,2.13 0.132,0.545 0.178,1.112 0.223,1.398 z"
         inkscape:connector-curvature="0"
         style="clip-rule:evenodd;fill:#fff;fill-rule:evenodd" />
      <path
         id="path3296"
         d="m 343.396,315.746 c -0.161,4.431 -2.202,7.459 -5.339,9.838 -2.44,1.848 -5.221,3.037 -8.132,3.931 -0.159,0.049 -0.357,0.141 -0.483,0.087 -0.452,-0.193 -0.879,-0.439 -1.316,-0.665 0.257,-0.343 0.443,-0.813 0.785,-1.004 1.42,-0.796 2.98,-1.373 4.314,-2.285 1.632,-1.114 3.229,-2.351 4.584,-3.779 1.362,-1.433 1.828,-3.302 1.235,-5.296 -0.367,-1.231 -1.235,-1.529 -2.291,-0.783 -0.542,0.383 -1.016,0.879 -1.592,1.193 -0.323,0.177 -0.903,0.245 -1.16,0.064 -0.21,-0.146 -0.263,-0.806 -0.12,-1.114 0.791,-1.7 1.743,-3.299 3.37,-4.362 2.397,-1.568 4.821,-0.745 5.695,1.979 0.26,0.811 0.347,1.68 0.45,2.196 z"
         inkscape:connector-curvature="0"
         style="clip-rule:evenodd;fill:#fff;fill-rule:evenodd" />
      <path
         id="path3298"
         d="m 138.487,408.221 c 0.309,-2.832 3.167,-5.549 5.909,-5.679 2.029,-0.098 3.585,1.07 4.066,3.095 0.522,2.195 -0.093,4.222 -1.041,6.167 -1.284,2.633 -3.272,4.677 -5.604,6.39 -3.757,2.755 -7.935,4.563 -12.529,5.393 -0.49,0.09 -1.037,0.195 -1.085,-0.431 -0.019,-0.235 0.526,-0.671 0.875,-0.754 4.93,-1.155 9.154,-3.559 12.648,-7.198 1.482,-1.545 2.803,-3.281 2.957,-5.517 0.054,-0.786 -0.252,-1.716 -0.687,-2.392 -0.692,-1.076 -1.665,-1.149 -2.763,-0.477 -0.791,0.484 -1.583,0.969 -2.383,1.439 -0.066,0.04 -0.188,-0.015 -0.363,-0.036 z"
         inkscape:connector-curvature="0"
         style="clip-rule:evenodd;fill:#fff;fill-rule:evenodd" />
      <path
         id="path3300"
         d="m 106.501,295.969 c 0.212,0.266 0.485,0.5 0.625,0.798 0.748,1.593 1.441,3.211 2.197,4.8 0.522,1.099 1.227,2.061 2.388,2.58 0.272,0.123 0.564,0.316 0.835,0.298 0.612,-0.037 1.218,-0.185 1.826,-0.289 -0.182,-0.507 -0.278,-1.069 -0.563,-1.51 -0.739,-1.142 -1.582,-2.218 -2.343,-3.346 -0.799,-1.185 -0.966,-2.531 -0.848,-3.919 0.027,-0.313 0.168,-0.614 0.335,-1.188 0.383,0.463 0.644,0.721 0.839,1.021 0.885,1.357 1.688,2.773 2.64,4.08 1.517,2.08 1.741,4.339 1.102,6.729 -0.394,1.469 -0.962,1.892 -2.48,1.635 -1.106,-0.186 -2.158,-0.697 -3.386,-1.116 -0.225,0.419 -0.481,1.114 -0.921,1.664 -0.609,0.763 -1.268,1.544 -2.064,2.083 -1.023,0.692 -2.359,0.318 -3.094,-0.681 -0.834,-1.134 -1.427,-2.34 -1.676,-3.78 -0.203,-1.171 -0.99,-2.236 -1.216,-3.408 -0.185,-0.954 0.071,-1.996 0.176,-2.993 0.004,-0.036 0.636,-0.132 0.741,-0.005 0.37,0.445 0.76,0.941 0.919,1.483 0.382,1.305 0.639,2.646 0.943,3.974 0.34,1.479 1.41,2.422 2.574,2.268 1.49,-0.198 2.731,-2.333 2.119,-3.696 -0.53,-1.18 -1.073,-2.358 -1.678,-3.502 -0.673,-1.271 -0.384,-2.554 -0.344,-3.84 0.118,-0.047 0.236,-0.093 0.354,-0.14 z"
         inkscape:connector-curvature="0"
         style="clip-rule:evenodd;fill:#fff;fill-rule:evenodd" />
      <path
         id="path3302"
         d="m 81.919,337.882 c -0.021,-0.392 -0.185,-0.852 -0.037,-1.165 0.607,-1.289 1.245,-2.572 1.992,-3.783 0.839,-1.359 2.103,-2.042 3.733,-1.685 1.745,0.385 3.005,1.39 3.516,3.16 0.486,1.684 0.132,3.301 -0.547,4.853 -1.461,3.342 -3.991,5.781 -6.897,7.835 -2.141,1.513 -4.388,2.879 -6.622,4.256 -0.434,0.267 -1.029,0.272 -1.549,0.399 -0.065,-0.13 -0.129,-0.26 -0.193,-0.392 0.333,-0.382 0.624,-0.813 1.006,-1.136 2.608,-2.213 5.256,-4.381 7.846,-6.615 0.949,-0.817 1.882,-1.696 2.634,-2.69 0.877,-1.16 0.946,-2.543 0.345,-3.884 -0.738,-1.649 -2.226,-1.929 -3.509,-0.678 -0.512,0.499 -0.966,1.057 -1.446,1.588 -0.09,-0.021 -0.181,-0.042 -0.272,-0.063 z"
         inkscape:connector-curvature="0"
         style="clip-rule:evenodd;fill:#fff;fill-rule:evenodd" />
      <path
         id="path3304"
         d="m 193.625,424.169 c 0.38,-0.44 0.688,-0.987 1.154,-1.303 2.09,-1.417 4.261,-2.716 6.328,-4.163 1.303,-0.912 2.535,-1.943 3.685,-3.042 1.477,-1.41 2.072,-3.221 1.904,-5.258 -0.068,-0.822 -0.295,-1.774 -1.147,-1.913 -0.642,-0.102 -1.423,0.342 -2.067,0.685 -0.416,0.221 -0.678,0.722 -1.045,1.056 -0.301,0.276 -0.655,0.494 -1.181,0.883 -0.06,-0.517 -0.195,-0.829 -0.106,-1.05 0.863,-2.122 1.934,-4.095 4.074,-5.232 2.932,-1.558 5.385,-0.132 5.271,3.179 -0.159,4.55 -2.282,8.254 -5.824,10.894 -2.828,2.108 -6.076,3.659 -9.168,5.404 -0.443,0.25 -1.056,0.201 -1.592,0.292 -0.095,-0.146 -0.192,-0.288 -0.286,-0.432 z"
         inkscape:connector-curvature="0"
         style="clip-rule:evenodd;fill:#fff;fill-rule:evenodd" />
      <path
         id="path3306"
         d="m 152.374,314.521 c 0.262,0.393 0.528,0.782 0.786,1.179 0.738,1.134 1.418,2.312 2.223,3.399 1.519,2.053 1.707,4.289 0.964,6.625 -0.421,1.319 -1.778,1.691 -3.448,1.031 -0.634,-0.25 -1.208,-0.654 -1.896,-1.038 -0.308,0.607 -0.522,1.254 -0.919,1.76 -0.563,0.715 -1.187,1.427 -1.918,1.951 -0.815,0.585 -2.086,0.444 -2.633,-0.341 -0.706,-1.016 -1.25,-2.161 -1.74,-3.304 -0.528,-1.229 -1.042,-2.494 -1.315,-3.796 -0.179,-0.861 0.065,-1.814 0.167,-2.723 0.007,-0.057 0.553,-0.176 0.64,-0.078 0.365,0.408 0.782,0.845 0.937,1.346 0.362,1.171 0.529,2.399 0.88,3.574 0.193,0.646 0.537,1.27 0.922,1.825 0.458,0.662 1.167,0.708 1.884,0.449 1.373,-0.492 2.145,-2.213 1.561,-3.527 -0.471,-1.063 -0.974,-2.112 -1.509,-3.143 -0.621,-1.196 -0.476,-2.398 -0.268,-3.612 0.094,-0.041 0.189,-0.081 0.284,-0.12 0.23,0.32 0.515,0.616 0.682,0.967 0.753,1.591 1.408,3.231 2.226,4.787 0.712,1.358 1.815,2.322 3.48,2.228 1.163,-0.064 1.309,-0.37 0.684,-1.344 -0.897,-1.396 -1.914,-2.72 -2.745,-4.151 -0.693,-1.194 -0.644,-2.522 -0.277,-3.815 0.115,-0.044 0.232,-0.086 0.348,-0.129 z"
         inkscape:connector-curvature="0"
         style="clip-rule:evenodd;fill:#fff;fill-rule:evenodd" />
      <path
         id="path3308"
         d="m 334.021,356.777 c -0.031,-0.355 -0.2,-0.773 -0.073,-1.058 0.786,-1.755 1.812,-3.36 3.594,-4.252 2.515,-1.255 5.016,0.312 5.062,3.191 0.044,2.834 -1.261,5.115 -3.206,7.068 -2.952,2.967 -6.664,4.686 -10.441,6.286 -0.153,0.063 -0.33,0.156 -0.477,0.131 -0.459,-0.085 -0.911,-0.22 -1.366,-0.337 0.263,-0.377 0.442,-0.892 0.801,-1.106 1.971,-1.177 3.993,-2.264 5.981,-3.409 1.532,-0.884 3.006,-1.855 3.996,-3.385 0.722,-1.111 1.078,-2.279 0.491,-3.579 -0.58,-1.286 -1.753,-1.591 -2.834,-0.688 -0.425,0.355 -0.77,0.809 -1.15,1.217 -0.126,-0.025 -0.252,-0.05 -0.378,-0.079 z"
         inkscape:connector-curvature="0"
         style="clip-rule:evenodd;fill:#fff;fill-rule:evenodd" />
      <path
         id="path3310"
         d="m 213.507,348.044 c 0.735,-1.109 1.44,-2.246 2.223,-3.321 0.366,-0.504 0.873,-0.91 1.342,-1.331 1.558,-1.4 3.259,-1.142 4.313,0.675 0.815,1.405 0.803,2.935 0.124,4.318 -0.904,1.838 -1.846,3.715 -3.118,5.298 -1.762,2.193 -3.827,4.146 -5.806,6.16 -0.36,0.365 -0.936,0.52 -1.41,0.771 -0.101,-0.135 -0.2,-0.27 -0.299,-0.404 0.325,-0.371 0.65,-0.744 0.979,-1.111 2.052,-2.305 4.148,-4.571 6.142,-6.926 0.949,-1.124 1.137,-2.521 0.773,-3.965 -0.231,-0.92 -0.663,-1.688 -1.667,-1.919 -0.942,-0.218 -1.441,0.418 -1.968,1.057 -0.34,0.412 -0.817,0.713 -1.232,1.063 -0.132,-0.121 -0.266,-0.243 -0.396,-0.365 z"
         inkscape:connector-curvature="0"
         style="clip-rule:evenodd;fill:#fff;fill-rule:evenodd" />
      <path
         id="path3312"
         d="m 30.184,354.647 c 0.187,-0.286 0.356,-0.587 0.562,-0.857 1.745,-2.3 3.546,-4.559 5.226,-6.903 1.016,-1.418 1.196,-3.057 0.316,-4.611 -0.3,-0.529 -0.964,-0.988 -1.559,-1.182 -0.773,-0.251 -1.228,0.398 -1.642,1.008 -0.306,0.448 -0.742,0.808 -1.12,1.206 -0.121,-0.085 -0.241,-0.169 -0.362,-0.254 0.312,-0.705 0.547,-1.457 0.954,-2.101 0.6,-0.951 1.257,-1.882 2.009,-2.714 1.25,-1.386 2.862,-1.253 3.97,0.255 0.724,0.985 1.074,2.144 0.75,3.299 -0.444,1.584 -0.854,3.275 -1.738,4.619 -1.779,2.711 -3.85,5.231 -5.849,7.792 -0.282,0.362 -0.834,0.514 -1.261,0.762 -0.086,-0.106 -0.17,-0.211 -0.256,-0.319 z"
         inkscape:connector-curvature="0"
         style="clip-rule:evenodd;fill:#fff;fill-rule:evenodd" />
      <path
         id="path3314"
         d="m 71.268,294.958 c 0.216,-0.267 0.42,-0.544 0.651,-0.798 1.832,-2.012 3.698,-3.994 5.494,-6.038 1.066,-1.214 1.497,-2.653 1.037,-4.269 -0.219,-0.769 -0.608,-1.42 -1.454,-1.618 -0.853,-0.202 -1.342,0.318 -1.828,0.919 -0.31,0.386 -0.752,0.662 -1.136,0.986 -0.077,-0.059 -0.155,-0.116 -0.233,-0.175 0.064,-0.231 0.07,-0.505 0.203,-0.683 0.953,-1.271 1.819,-2.633 2.93,-3.75 1.427,-1.438 3.253,-0.951 4.088,0.92 0.6,1.34 0.535,2.747 -0.129,3.958 -1.063,1.938 -2.223,3.855 -3.591,5.587 -1.332,1.685 -2.958,3.141 -4.497,4.651 -0.332,0.325 -0.848,0.462 -1.279,0.685 -0.086,-0.124 -0.171,-0.249 -0.256,-0.375 z"
         inkscape:connector-curvature="0"
         style="clip-rule:evenodd;fill:#fff;fill-rule:evenodd" />
      <path
         id="path3316"
         d="m 230.968,398.685 c 0.167,-0.303 0.318,-0.613 0.5,-0.903 1.446,-2.303 2.935,-4.581 4.332,-6.913 0.827,-1.383 0.877,-2.897 -0.022,-4.254 -0.356,-0.534 -1.092,-1.064 -1.693,-1.111 -0.453,-0.034 -0.991,0.676 -1.443,1.106 -0.354,0.335 -0.635,0.746 -0.947,1.125 -0.121,-0.07 -0.239,-0.141 -0.359,-0.208 0.267,-0.754 0.45,-1.552 0.819,-2.253 0.491,-0.934 1.064,-1.842 1.718,-2.671 0.838,-1.063 1.987,-1.172 3.087,-0.392 0.981,0.697 1.47,1.68 1.56,2.878 0.14,1.853 -0.327,3.618 -1.209,5.175 -1.536,2.711 -3.263,5.313 -4.955,7.932 -0.228,0.353 -0.713,0.539 -1.079,0.803 -0.102,-0.105 -0.205,-0.211 -0.309,-0.314 z"
         inkscape:connector-curvature="0"
         style="clip-rule:evenodd;fill:#fff;fill-rule:evenodd" />
      <path
         id="path3318"
         d="m 162.329,345.467 c -0.119,0.387 -0.228,0.776 -0.357,1.16 -0.864,2.579 -1.799,5.137 -2.576,7.741 -0.481,1.612 0.144,3.022 1.357,4.136 1.097,1.006 2.313,0.623 2.753,-0.797 0.15,-0.485 0.399,-0.939 0.792,-1.339 0.23,2.234 -0.185,4.303 -1.619,6.025 -0.301,0.362 -1.09,0.5 -1.627,0.45 -1.456,-0.137 -2.701,-1.434 -3.043,-3.045 -0.469,-2.207 -0.184,-4.397 0.476,-6.5 0.755,-2.404 1.704,-4.751 2.617,-7.104 0.145,-0.372 0.55,-0.642 0.834,-0.96 0.131,0.079 0.262,0.155 0.393,0.233 z"
         inkscape:connector-curvature="0"
         style="clip-rule:evenodd;fill:#fff;fill-rule:evenodd" />
      <path
         id="path3320"
         d="m 136.343,374.854 c 0.212,-0.235 0.423,-0.473 0.637,-0.709 1.544,-1.691 3.113,-3.36 4.622,-5.081 0.925,-1.056 1.384,-2.323 0.878,-3.694 -0.205,-0.553 -0.723,-1.213 -1.232,-1.358 -0.409,-0.119 -1.037,0.438 -1.534,0.749 -0.351,0.221 -0.645,0.531 -1.084,0.672 0.668,-1.886 1.722,-3.444 3.49,-4.38 0.802,-0.426 1.87,0.066 2.438,1.009 0.628,1.04 0.629,2.142 0.264,3.268 -0.704,2.168 -2.045,3.948 -3.517,5.624 -1.116,1.271 -2.342,2.448 -3.562,3.625 -0.312,0.301 -0.781,0.438 -1.178,0.651 -0.075,-0.126 -0.148,-0.251 -0.222,-0.376 z"
         inkscape:connector-curvature="0"
         style="clip-rule:evenodd;fill:#fff;fill-rule:evenodd" />
      <path
         id="path3322"
         d="m 308.6,389.32 c 0.773,0.071 1.557,0.086 2.317,0.227 4.844,0.893 9.361,2.525 13.025,5.976 0.57,0.537 1,1.231 1.462,1.875 0.526,0.729 0.236,1.229 -0.569,1.332 -0.773,0.101 -1.602,0.176 -2.351,0.009 -4.995,-1.118 -9.373,-3.309 -12.564,-7.481 -0.436,-0.57 -0.962,-1.072 -1.446,-1.605 0.042,-0.112 0.084,-0.222 0.126,-0.333 z"
         display="none"
         inkscape:connector-curvature="0"
         style="clip-rule:evenodd;display:none;fill:#fff;fill-rule:evenodd" />
    </g>
    <g
       id="g4014"
       transform="matrix(0.26450482,0.00644509,-0.00644509,0.26450482,-818.85809,241.05523)"
       inkscape:export-xdpi="96"
       inkscape:export-ydpi="96">
      <path
         id="path3326"
         d="m 3385.7962,-396.67054 c 3.2602,0.0517 6.3514,-0.30919 9.3301,-1.08274 2.9223,-0.82528 5.677,-1.91038 8.2629,-3.30466 2.6421,-1.34255 5.1154,-2.99429 7.421,-4.85294 2.3594,-1.8081 4.4961,-3.71847 6.519,-5.68058 -0.5617,-1.91037 -1.0658,-4.13111 -1.6288,-6.71276 -0.5617,-2.58166 -0.8419,-5.11276 -0.8419,-7.64268 0,-0.98164 0.2815,-1.49774 0.7869,-1.54947 0.5054,-0.0517 1.1233,0.0517 1.8552,0.36209 0.7306,0.31037 1.4612,0.67128 2.2481,1.13565 0.7869,0.46554 1.4599,0.67128 2.1342,0.67128 1.067,0.25863 3.2038,-0.41265 6.3513,-2.06439 3.1476,-1.65174 7.082,-4.07821 11.747,-7.38286 1.1809,-0.56783 2.193,-0.77474 3.0925,-0.67011 0.8432,0.10346 1.5725,0.41265 2.1905,0.92992 0.5617,0.51609 1.0683,1.13682 1.3498,1.85982 0.3365,0.67128 0.5617,1.2391 0.7856,1.70347 0.618,2.06673 1.0121,4.18402 1.0671,6.35185 0.1126,2.11729 -0.056,4.02766 -0.3941,5.57712 -0.1126,0.36209 -0.2252,0.61955 -0.3377,0.72301 -0.1689,0.10345 -0.5067,0.20691 -1.0671,0.20691 -0.1689,0 -0.3378,-0.10346 -0.5067,-0.20691 -0.2252,-0.10346 -0.4504,-0.30919 -0.6743,-0.5161 -0.2802,-0.20691 -0.618,-0.36209 -1.0671,-0.51727 -0.3928,-0.10228 -1.0121,-0.154 -1.8552,-0.154 -1.0121,0 -1.9666,0.25746 -2.9224,0.82528 -0.9558,0.51609 -1.7989,1.13564 -2.5295,1.80692 -3.7656,3.7702 -7.3072,7.69323 -10.5686,11.77262 -3.3164,4.07939 -6.8567,7.84841 -10.7361,11.25652 -3.8231,3.40694 -8.1504,6.1955 -12.8729,8.46796 -4.7764,2.27129 -10.5097,3.56212 -17.1413,3.81958 v -15.13253"
         style="fill:#fff;stroke:none;stroke-width:1.22645152"
         inkscape:connector-curvature="0" />
      <path
         id="path3328"
         d="m 3385.7937,-381.54036 c -2.1918,0.0517 -3.9907,-0.46554 -5.3956,-1.60119 -1.3499,-1.13682 -2.4732,-2.58165 -3.3151,-4.3392 -0.8995,-1.75519 -1.6301,-3.66674 -2.1918,-5.7323 -0.6167,-2.06556 -1.236,-4.02766 -1.7977,-5.83576 -0.618,-1.80692 -1.236,-3.30466 -1.9103,-4.49203 -0.7305,-1.24027 -1.63,-1.85982 -2.8097,-1.85982 -1.2923,0 -2.0792,1.18737 -2.4182,3.61502 -0.3365,2.37592 -0.6743,5.47366 -1.0134,9.19214 -0.3941,3.71847 -1.0133,7.90131 -1.8565,12.54852 -0.9008,4.59549 -2.4745,9.13924 -4.8352,13.52899 -2.3056,4.44148 -5.6783,8.51969 -10.0056,12.23816 -4.3285,3.76903 -10.1181,6.60814 -17.3677,8.51734 -1.0121,0.25864 -2.6984,0.61955 -5.1154,1.08392 -2.4732,0.46554 -4.9452,0.87819 -7.5873,1.29083 -2.5859,0.41381 -5.0591,0.77355 -7.3072,1.08391 -2.3043,0.31037 -3.8781,0.46555 -4.665,0.46555 -0.7293,0 -1.291,-0.31154 -1.6851,-0.82764 -0.3377,-0.56664 0.2252,-1.13564 1.6864,-1.70346 6.4077,-2.63103 12.4213,-5.36904 18.0983,-8.31161 5.6771,-2.94257 10.7362,-6.19549 15.176,-9.80934 4.4398,-3.56329 8.2079,-7.53922 11.2991,-12.03008 3.0913,-4.44147 5.3406,-9.50133 6.7455,-15.23363 0.2815,-1.03219 0.5617,-2.4782 0.8995,-4.33802 0.2814,-1.91038 0.6755,-3.97476 1.0696,-6.19667 0.3941,-2.22074 0.8995,-4.49203 1.5188,-6.86795 0.618,-2.37592 1.2922,-4.49203 2.0791,-6.35068 0.7306,-1.91155 1.6864,-3.45984 2.6985,-4.69894 1.067,-1.18737 2.248,-1.80809 3.5416,-1.80809 1.5174,0 2.8097,0.56899 3.8205,1.70464 1.0121,1.13564 1.9116,2.58283 2.6972,4.33802 0.7869,1.75637 1.4611,3.66675 2.1342,5.63003 0.6179,1.9621 1.2922,3.82075 1.9665,5.57829 0.6743,1.80693 1.4612,3.25293 2.4157,4.38858 0.8995,1.13564 2.0241,1.70464 3.429,1.70464 v 15.12783"
         style="fill:#fff;stroke-width:1.22645152"
         inkscape:connector-curvature="0" />
      <path
         id="path3330"
         d="m 3292.6612,-360.79191 c -5.9572,4.54375 -12.2523,8.00241 -18.9978,10.42889 -6.7441,2.37592 -14.3315,3.56094 -22.8746,3.55976 -1.0671,0 -1.6851,-0.10228 -1.7427,-0.30919 -0.1113,-0.2069 0.5067,-0.62072 1.7427,-1.18854 2.6984,-1.08392 5.228,-2.16784 7.6449,-3.25176 2.417,-1.13682 4.8902,-2.37474 7.4198,-3.82075 2.5295,-1.39428 5.1716,-3.04602 8.0377,-4.9564 2.8097,-1.91037 5.9585,-4.23339 9.4426,-7.02313 4.9465,-3.82075 9.1624,-8.41506 12.704,-13.73472 3.5416,-5.26676 6.5215,-10.79215 9.0511,-16.57618 2.5308,-5.73113 4.6663,-11.51516 6.4102,-17.24629 1.6864,-5.78286 3.2601,-11.10252 4.6676,-16.06009 0.7868,-2.89084 1.8552,-5.62885 3.1475,-8.2105 1.2373,-2.63338 2.6984,-4.90467 4.2159,-6.86795 1.5738,-1.96093 3.2025,-3.56212 4.9465,-4.75067 1.7414,-1.13564 3.5403,-1.80692 5.338,-1.85865 1.1247,-0.10345 2.0241,0.25864 2.7547,0.98164 0.7306,0.77473 1.2923,1.7552 1.5725,2.89202 0.3378,1.18737 0.5067,2.4782 0.5604,3.87248 0.056,1.39428 -0.055,2.63338 -0.2815,3.7702 -0.2251,1.13564 -0.5053,2.06556 -0.9557,2.78856 -0.3928,0.723 -0.8995,1.03219 -1.4049,0.92991 -0.3928,-0.10345 -0.6743,-0.31036 -0.8995,-0.67127 -0.2239,-0.41382 -0.5067,-0.77474 -0.8432,-1.13565 -0.3377,-0.41382 -0.7305,-0.723 -1.1796,-1.03337 -0.4504,-0.30918 -1.0121,-0.41264 -1.7427,-0.41381 -1.1234,0 -2.1918,0.36209 -3.2038,1.18737 -0.9558,0.77473 -1.9103,1.75637 -2.6972,2.84029 -0.8432,1.08392 -1.5738,2.16901 -2.1355,3.30465 -0.6179,1.13565 -1.012,2.06556 -1.1796,2.73684 -1.4625,4.02766 -2.7548,8.2105 -3.937,12.4968 -1.1234,4.28512 -2.2481,8.57259 -3.3164,12.85888 -1.1247,4.28512 -2.3057,8.52087 -3.5429,12.70254 -1.2373,4.23456 -2.6998,8.2105 -4.3861,12.03125 -1.6851,3.82075 -3.7092,7.43577 -6.0149,10.79215 -2.3619,3.35874 -5.1166,6.35303 -8.3205,8.93469"
         style="fill:#fff;stroke-width:1.22645152"
         inkscape:connector-curvature="0" />
      <path
         id="path3332"
         d="m 3258.664,-395.08463 c -0.6192,2.4782 -1.7439,4.49203 -3.3177,6.19667 -1.63,1.70347 -3.3727,3.0472 -5.2842,4.08056 -1.9666,1.08274 -3.8782,1.85748 -5.7884,2.37475 -1.9116,0.46554 -3.5417,0.77355 -4.7764,0.87701 v -15.13018 c 2.9787,-0.10346 5.6208,-0.67128 7.8676,-1.80692 2.248,-1.08392 4.1596,-2.4782 5.6783,-4.18285 1.5738,-1.75519 2.8111,-3.66674 3.7105,-5.73112 0.8995,-2.11729 1.5188,-4.18285 1.799,-6.19668 0.1676,-1.23909 0.618,-1.91037 1.3486,-1.91037 0.7306,0 0.9557,0.61955 0.6755,1.75519 -0.5066,2.73684 -0.4516,4.80239 0.2227,6.24958 0.6743,1.49773 1.6863,2.42647 2.9786,2.78856 1.236,0.36209 2.6972,0.25863 4.3272,-0.30919 1.5738,-0.56664 3.035,-1.60119 4.3848,-3.04602 1.2923,-1.39428 2.3607,-3.2541 3.0925,-5.47484 0.7306,-2.21957 0.8995,-4.75067 0.5067,-7.64151 -0.055,-0.67127 0.2252,-1.03219 0.8995,-1.08391 0.6743,-0.10346 1.1797,0.25863 1.4625,1.08391 0.449,1.29201 0.7293,2.78974 0.8994,4.54493 0.1113,1.8081 0.1113,3.35639 -0.057,4.70012 2.3606,-0.5161 4.2159,-1.44483 5.6207,-2.73684 1.3499,-1.29082 2.362,-2.78856 3.0925,-4.38857 0.6756,-1.65292 1.1247,-3.25293 1.4062,-4.85412 0.2815,-1.60119 0.563,-2.99547 0.8445,-4.18284 0.055,-0.41382 0.3928,-0.67128 0.8994,-0.82646 0.5067,-0.10345 0.8995,0.15518 1.1247,0.82646 0.2802,0.92991 0.5604,2.32419 0.7856,4.18284 0.2252,1.85983 0.2815,3.35638 0.2252,4.54493 0,2.58165 -0.3954,5.11276 -1.0709,7.48632 -0.6743,2.37592 -1.6288,4.54494 -2.8661,6.40358 -1.236,1.91038 -2.7547,3.51039 -4.5537,4.74949 -1.7413,1.24028 -3.7655,2.06556 -5.9572,2.37592 -2.0242,3.5633 -4.216,5.93804 -6.5779,7.22887 -2.3606,1.2391 -4.5524,1.80692 -6.5765,1.65174 -2.0242,-0.10346 -3.7093,-0.67128 -5.0015,-1.65292 -1.3512,-1.03572 -2.0255,-2.01736 -2.0255,-2.94609"
         style="fill:#fff;stroke-width:1.22645152"
         inkscape:connector-curvature="0" />
      <path
         id="path3334"
         d="m 3218.9872,-413.83453 c 1.6851,0 2.9774,0.36209 3.9894,1.18737 1.0121,0.77473 1.9116,1.75637 2.6972,2.94374 0.7881,1.18737 1.4612,2.4782 2.1354,3.92421 0.618,1.44483 1.4049,2.78856 2.3607,4.02883 0.9545,1.24028 2.1905,2.37592 3.6516,3.35639 1.4612,0.93109 3.3152,1.49773 5.6195,1.70582 v 15.13017 c -3.035,0 -5.6208,-0.51609 -7.8113,-1.446 -2.1918,-0.98047 -4.047,-2.22074 -5.5082,-3.71965 -1.4599,-1.54829 -2.5845,-3.14948 -3.4827,-4.95757 -0.8432,-1.75637 -1.5175,-3.40812 -1.9679,-5.0093 -0.2815,-0.92992 -0.7869,-1.60119 -1.5175,-1.96211 -0.7305,-0.36091 -1.6287,-0.56782 -2.6408,-0.56782 -1.9103,0 -3.5416,0.77356 -4.8902,2.32302 -1.4049,1.54828 -2.6409,3.51039 -3.8218,5.78285 -1.1234,2.32302 -2.1931,4.85295 -3.2614,7.59095 -1.0671,2.73684 -2.1918,5.21621 -3.3728,7.53923 -1.1809,2.32419 -2.5295,4.23457 -4.0483,5.78286 -1.5174,1.60118 -3.3164,2.37592 -5.3955,2.37592 -1.4049,0 -3.035,-0.46555 -4.8902,-1.29201 -1.9116,-0.82645 -3.5967,-2.22074 -5.2267,-4.18284 -1.5725,-2.01383 -2.9211,-4.59548 -3.9319,-7.90131 -0.9558,-3.25411 -1.4036,-7.38522 -1.1797,-12.3428 0.1702,-3.45983 1.0134,-6.76449 2.5871,-9.91514 1.5738,-3.14948 4.3285,-6.50586 8.3743,-10.01743 1.4624,-1.34255 3.1488,-2.52992 5.0028,-3.66557 1.8552,-1.08391 3.7655,-2.27246 5.7333,-3.61384 1.9679,-1.34255 3.9345,-2.89201 5.9023,-4.64721 1.9679,-1.70347 3.8794,-3.82075 5.7334,-6.35068 0.3378,-0.51609 0.8432,-1.08392 1.4061,-1.80809 0.618,-0.72183 1.1247,-1.2391 1.6301,-1.54829 0.4504,-0.25864 0.6743,-0.15518 0.6743,0.36091 0,0.46555 -0.4491,1.70465 -1.4049,3.61502 -1.3486,3.04602 -3.0362,5.57712 -5.0591,7.58978 -2.0241,2.01383 -4.1596,3.82075 -6.4639,5.42194 -2.2481,1.60001 -4.5524,3.09775 -6.8568,4.4403 -2.3056,1.39428 -4.3848,2.9943 -6.2951,4.75067 -1.9115,1.75519 -3.5403,3.8713 -4.8351,6.29895 -1.236,2.42764 -2.0229,5.47366 -2.3057,9.08868 -0.1689,1.7552 -0.1126,3.56212 0.2815,5.42194 0.3365,1.85983 0.9545,3.51157 1.7977,5.06221 0.7869,1.49656 1.854,2.73683 3.1462,3.66674 1.2373,0.98047 2.7535,1.49774 4.4962,1.49774 1.8552,0.001 3.429,-0.87701 4.7213,-2.63338 1.3498,-1.70347 2.5858,-3.87248 3.7105,-6.45531 1.1809,-2.63338 2.3056,-5.47367 3.5429,-8.52086 1.1796,-3.04602 2.5308,-5.93804 4.1033,-8.57142 1.575,-2.63338 3.374,-4.90585 5.3981,-6.76332 2.0779,-1.85865 4.5499,-2.84146 7.4735,-2.99429"
         style="fill:#fff;stroke-width:1.22645152"
         inkscape:connector-curvature="0" />
      <path
         id="path3336"
         d="m 3213.8769,-443.73633 c 0.1676,-1.49773 0.4504,-3.30465 0.8995,-5.42194 0.3941,-2.06555 0.6193,-4.07938 0.7319,-6.04149 0.618,-0.0517 2.0241,-0.36209 4.1583,-0.82646 2.1918,-0.41381 4.4411,-0.92991 6.9131,-1.44483 2.4169,-0.46437 4.665,-0.98046 6.7441,-1.49656 2.1355,-0.51609 3.4853,-0.82528 4.1596,-1.03219 0.5054,-0.15518 0.9545,-0.0517 1.236,0.25864 0.2239,0.36209 0.5054,0.82646 0.6743,1.39428 0.1676,0.62072 0.2802,1.24027 0.3365,1.85982 0.056,0.61955 0.056,1.08392 0.056,1.44601 0,1.91038 -0.1689,3.82075 -0.6193,5.68058 -0.3928,1.80809 -1.0671,3.2541 -1.9678,4.28629 -0.6743,0.67128 -1.7427,1.29083 -3.3164,1.91038 -1.5175,0.67128 -3.2602,1.18737 -5.2267,1.65174 -1.9103,0.46554 -3.9345,0.87819 -6.0699,1.18737 -2.1918,0.36092 -4.2159,0.56782 -6.1275,0.6701 -1.0671,0.0505 -1.9102,0.0505 -2.4169,0 -0.5067,-0.10345 -0.7293,-0.31036 -0.7869,-0.56782 -0.055,-0.30919 0,-0.723 0.1126,-1.29083 0.1714,-0.51844 0.284,-1.29317 0.5092,-2.22309"
         style="fill:#fff;stroke-width:1.22645152"
         inkscape:connector-curvature="0" />
      <path
         id="path3338"
         d="m 3395.1915,-479.14 c -0.7306,-0.98047 -1.5175,-1.70464 -2.4732,-2.16901 -0.8995,-0.46555 -1.6851,-0.67128 -2.3594,-0.61955 -0.6743,0 -1.1797,0.31036 -1.4625,0.87818 -0.2814,0.5161 -0.1689,1.2391 0.2802,2.16901 0.618,1.18738 1.6864,3.0472 3.09,5.57713 1.4049,2.5311 2.6409,5.16448 3.6529,7.95304 0.7293,2.42765 1.2923,4.95875 1.6851,7.5404 0.3941,2.63338 0.2802,5.11275 -0.4516,7.43577 -0.3928,0.92991 -1.0121,1.49774 -1.854,1.70347 -0.8995,0.20691 -1.6301,-0.36209 -2.3044,-1.70347 -0.3365,-0.82646 -0.673,-1.75637 -0.9545,-2.78974 -0.2814,-0.98164 -0.6743,-1.9621 -1.1234,-2.94374 -0.5066,-0.98046 -1.1796,-1.91037 -2.0228,-2.78856 -0.7869,-0.87818 -1.9103,-1.65292 -3.3152,-2.32419 -0.2252,0.25863 -0.5066,0.46437 -0.7868,0.61955 -0.7306,0.36091 -1.3486,0.51609 -1.7977,0.51609 -2.5296,0 -4.3848,-0.723 -5.3956,-2.11728 -1.0671,-1.44601 -1.5175,-2.89202 -1.3486,-4.2863 0.3928,-2.11728 1.236,-3.25293 2.5858,-3.51156 1.2923,-0.20574 2.5283,-0.10346 3.5967,0.20691 1.9666,0.67127 3.6529,1.60118 5.1141,2.84028 1.4624,1.24028 2.6971,2.47938 3.7092,3.71848 1.0671,1.49773 2.0792,3.04719 2.9787,4.64838 0,-1.49773 -0.3366,-3.04719 -1.0121,-4.64838 -0.673,-1.60119 -1.4612,-3.15065 -2.3031,-4.70012 -0.8995,-1.60001 -1.7989,-3.04602 -2.7534,-4.4403 -0.9545,-1.39545 -1.7414,-2.68628 -2.3031,-3.82075 -0.4504,-0.92991 -0.7306,-2.17019 -0.8432,-3.66792 -0.1676,-1.49656 -0.055,-2.99429 0.2252,-4.44148 0.3378,-1.3931 0.8995,-2.63338 1.6864,-3.61384 0.7868,-1.03219 1.8539,-1.54829 3.2038,-1.54829 2.3606,0 4.3272,0.98164 5.901,2.99547 1.5725,1.96328 2.2467,4.2863 2.0779,6.97258 0,0.92991 -0.3928,1.34255 -1.1797,1.18737 -0.7869,-0.10463 -1.3486,-0.36326 -1.7427,-0.82763"
         style="fill:#fff;stroke-width:1.22645152"
         inkscape:connector-curvature="0" />
      <g
         id="g3342"
         transform="matrix(1.2794853,0,0,1.175616,3041.1387,-634.55527)">
        <path
           id="path3340"
           d="m 257.339,169.314 c 0.175,-0.176 -0.176,-0.396 -1.01,-0.571 -0.878,-0.176 -1.933,-0.352 -3.119,-0.44 -1.229,-0.088 -2.504,-0.132 -3.733,-0.176 -1.274,-0.044 -2.241,0 -2.943,0.087 -0.659,0.132 -1.273,0.439 -1.889,0.966 -0.615,0.527 -1.098,0.966 -1.537,1.362 -0.088,0 -0.176,0 -0.22,0.043 -0.043,0.088 -0.087,0.044 -0.087,-0.043 0.043,-0.483 0.307,-1.23 0.791,-2.24 0.483,-1.01 1.098,-2.021 1.757,-3.031 0.703,-1.01 1.494,-1.889 2.329,-2.723 0.879,-0.791 1.714,-1.274 2.548,-1.449 0.307,-0.044 0.878,-0.088 1.669,-0.132 0.791,-0.043 1.713,-0.043 2.679,0 1.011,0.044 2.065,0.132 3.075,0.264 1.01,0.132 1.933,0.264 2.767,0.484 0.528,0.132 1.011,0.483 1.406,1.01 0.395,0.571 0.614,1.318 0.614,2.285 -0.088,0.571 -0.351,1.449 -0.791,2.679 -0.439,1.23 -1.187,2.459 -2.329,3.733 -1.099,1.274 -2.636,2.416 -4.656,3.47 -2.021,1.01 -4.656,1.625 -7.907,1.8 -0.527,0.131 -0.879,0.131 -1.054,0 -0.22,-0.088 -0.088,-0.264 0.263,-0.571 1.318,-0.703 2.593,-1.405 3.866,-2.064 1.274,-0.659 2.417,-1.317 3.471,-1.888 1.054,-0.615 1.976,-1.186 2.68,-1.669 0.745,-0.483 1.184,-0.878 1.36,-1.186"
           inkscape:connector-curvature="0"
           style="fill:#fff" />
      </g>
      <path
         id="path3344"
         d="m 3405.3033,-446.45082 c 1.1809,-0.67128 2.9799,-1.60002 5.4519,-2.73566 2.4169,-1.13565 5.0603,-2.37592 7.9827,-3.7173 2.9786,-1.34255 5.9573,-2.68393 9.0485,-4.07821 3.1475,-1.39428 6.0136,-2.68511 8.5994,-3.8713 2.5859,-1.13565 4.8339,-2.16902 6.6879,-2.9943 1.7989,-0.82646 2.9236,-1.34255 3.2614,-1.54946 0.8419,-0.41264 1.3486,-0.5161 1.5175,-0.41264 0.1689,0.10345 0.1689,0.51609 0,1.18737 -0.3941,1.18737 -0.7306,2.06556 -1.0121,2.63338 -0.3378,0.61955 -0.618,0.98046 -0.7882,1.13565 -0.1676,0.2069 -1.1797,0.723 -3.0912,1.65174 -1.854,0.92991 -4.2146,2.06555 -7.0257,3.3552 -2.8673,1.29083 -5.9022,2.68511 -9.2187,4.2334 -3.3164,1.49656 -6.5202,2.99429 -9.6114,4.43912 -3.0913,1.49774 -5.846,2.84029 -8.318,4.12994 -2.4169,1.24028 -4.1033,2.22074 -5.1154,2.89202 0.056,-1.03219 0.2252,-2.01383 0.3941,-2.89202 0.1676,-0.77473 0.3928,-1.49773 0.5617,-2.16901 0.1702,-0.66892 0.3954,-1.08274 0.6756,-1.23792"
         style="fill:#fff;stroke-width:1.22645152"
         inkscape:connector-curvature="0" />
      <path
         id="path3346"
         d="m 3299.9262,-460.04447 c 1.1796,-0.67128 2.9786,-1.60001 5.4518,-2.73683 2.417,-1.13565 5.0591,-2.37475 7.9815,-3.7173 2.9786,-1.34256 5.9573,-2.68511 9.0485,-4.07939 3.1475,-1.3931 6.0148,-2.68393 8.5994,-3.8713 2.5858,-1.13565 4.8339,-2.16784 6.6892,-2.9943 1.7989,-0.82646 2.9223,-1.34255 3.2601,-1.54828 0.8432,-0.41382 1.3486,-0.5161 1.5162,-0.41382 0.1689,0.10345 0.1689,0.51727 0,1.18737 -0.3928,1.18737 -0.7293,2.06556 -1.0121,2.63338 -0.3378,0.61955 -0.618,0.98164 -0.7869,1.13565 -0.1689,0.2069 -1.1797,0.723 -3.0925,1.65291 -1.8552,0.92874 -4.2146,2.06438 -7.0256,3.35521 -2.8674,1.29083 -5.9023,2.68511 -9.2187,4.23339 -3.3165,1.49774 -6.5203,2.9943 -9.6115,4.44031 -3.0926,1.49655 -5.8447,2.83911 -8.318,4.12993 -2.4169,1.2391 -4.1033,2.21957 -5.1154,2.89084 0.056,-1.03219 0.224,-2.01383 0.3941,-2.89201 0.1689,-0.77473 0.3941,-1.49656 0.5617,-2.16901 0.1715,-0.66775 0.3967,-1.08157 0.6782,-1.23675"
         style="fill:#fff;stroke-width:1.22645152"
         inkscape:connector-curvature="0" />
      <path
         id="path3348"
         d="m 3265.9251,-477.19318 c -0.7306,-0.98046 -1.5175,-1.70464 -2.472,-2.16901 -0.8994,-0.46555 -1.6863,-0.67128 -2.3606,-0.61955 -0.6756,0 -1.181,0.31036 -1.4625,0.87818 -0.2814,0.5161 -0.1689,1.2391 0.2802,2.16901 0.618,1.18738 1.6864,3.0472 3.0913,5.5783 1.4049,2.52993 2.6396,5.16448 3.6516,7.95304 0.7306,2.42648 1.291,4.95758 1.6838,7.54041 0.3941,2.63338 0.2815,5.11275 -0.4503,7.43577 -0.3941,0.92991 -1.0121,1.49656 -1.8553,1.70346 -0.8995,0.20691 -1.6288,-0.36091 -2.3043,-1.70464 -0.3366,-0.82646 -0.6731,-1.75637 -0.9545,-2.78856 -0.2802,-0.98046 -0.6731,-1.9621 -1.1234,-2.94374 -0.5054,-0.98047 -1.1797,-1.91038 -2.0229,-2.78856 -0.7869,-0.87819 -1.9115,-1.65292 -3.3164,-2.32537 -0.2252,0.25863 -0.5054,0.46554 -0.7869,0.61955 -0.7306,0.36209 -1.3486,0.51609 -1.7977,0.51609 -2.5295,0 -4.3835,-0.72418 -5.3956,-2.11846 -1.0683,-1.44483 -1.5174,-2.89201 -1.3485,-4.28629 0.394,-2.11729 1.2372,-3.25411 2.5858,-3.51157 1.2935,-0.20691 2.5295,-0.10345 3.5979,0.20691 1.9666,0.67245 3.6517,1.60119 5.1141,2.84146 1.4625,1.24028 2.6972,2.47938 3.7092,3.71965 1.0671,1.49656 2.0792,3.04602 2.9787,4.64839 0,-1.49774 -0.3378,-3.0472 -1.0121,-4.64839 -0.6743,-1.60119 -1.4612,-3.15065 -2.3044,-4.70011 -0.8981,-1.60119 -1.7976,-3.0472 -2.7534,-4.44148 -0.9545,-1.39428 -1.7414,-2.6851 -2.3031,-3.82075 -0.4491,-0.92991 -0.7293,-2.16901 -0.8419,-3.66675 -0.1676,-1.49655 -0.056,-2.99546 0.2252,-4.4403 0.3365,-1.39428 0.8995,-2.63338 1.6864,-3.61502 0.7869,-1.03219 1.8539,-1.54946 3.2025,-1.54828 2.3607,0 4.3285,0.98164 5.901,2.99547 1.5738,1.9621 2.2481,4.28629 2.0792,6.9714 0,0.92991 -0.3941,1.34255 -1.1797,1.18737 -0.7856,-0.10463 -1.3473,-0.36209 -1.7414,-0.82763"
         style="fill:#fff;stroke-width:1.22645152"
         inkscape:connector-curvature="0" />
    </g>
    <g
       aria-label="L'cole de la voie Proph"
       transform="matrix(0.29625909,0,0,0.29625909,-475.09116,-158.50889)"
       style="font-style:normal;font-variant:normal;font-weight:normal;font-stretch:normal;font-size:40px;line-height:1.25;font-family:'Brotherhood Script';-inkscape-font-specification:'Brotherhood Script';letter-spacing:0px;word-spacing:0px;fill:#fff;fill-opacity:1;stroke:none"
       id="flowRoot3358">
      <path
         d="m 1192.5623,1238.6913 q 4.992,0 8.064,-1.968 l 0.336,0.384 q -4.128,5.712 -10.272,6.336 -1.296,0.144 -2.256,0.144 -0.912,0 -2.16,-0.096 -1.2,-0.048 -3.408,-0.624 -2.208,-0.576 -3.888,-1.2 -1.68,-0.576 -3.888,-1.584 -2.208,-0.96 -3.648,-1.728 -1.44,-0.72 -3.456,-1.776 -1.968,-1.008 -3.456,-1.728 -1.488,-0.72 -2.88,-1.248 -3.936,-1.584 -8.064,-1.584 v -0.48 h 0.624 q 1.248,0 2.112,-0.864 0.912,-0.864 0.96,-2.16 v -26.592 q -0.048,-1.296 -0.96,-2.16 -0.864,-0.864 -2.112,-0.864 h -0.624 v -0.48 h 14.592 l -0.048,0.48 h -0.48 q -1.824,0 -2.736,1.488 -0.432,0.672 -0.432,1.536 v 27.84 q 0,1.584 0.624,2.208 0.624,0.576 1.392,0.816 18.048,5.904 26.064,5.904 z"
         style="font-style:normal;font-variant:normal;font-weight:bold;font-stretch:normal;font-size:48px;font-family:'Cinzel Decorative';-inkscape-font-specification:'Cinzel Decorative Bold';fill:#fff;fill-opacity:1"
         id="path6335" />
      <path
         d="m 1169.2313,1207.7793 q 1.344,-4.08 1.344,-5.952 0,-1.92 -0.192,-3.408 l 5.136,-0.672 q 0,0.192 0,0.768 0,0.528 -0.24,1.824 -0.192,1.248 -0.768,2.832 -0.576,1.536 -1.824,2.928 -1.2,1.344 -2.784,1.92 z"
         style="font-style:normal;font-variant:normal;font-weight:bold;font-stretch:normal;font-size:48px;font-family:'Cinzel Decorative';-inkscape-font-specification:'Cinzel Decorative Bold';fill:#fff;fill-opacity:1"
         id="path6337" />
      <path
         d="m 1192.2338,1195.4433 -0.336,-0.336 q 2.064,-3.552 6.912,-7.872 2.304,1.2 3.264,3.888 -4.944,3.12 -9.84,4.32 z m -12.336,36.096 q 1.248,0 2.112,-0.864 0.912,-0.912 0.96,-2.16 v -26.736 q -0.144,-1.68 -1.584,-2.496 -0.72,-0.384 -1.488,-0.384 h -0.624 v -0.48 h 18.384 q 1.488,0 3.264,-0.288 1.776,-0.288 2.496,-0.576 v 8.4 l -0.48,-0.048 v -0.528 q 0,-2.928 -2.208,-4.224 -1.056,-0.624 -2.496,-0.672 h -8.064 v 13.968 h 6.336 q 1.776,-0.048 2.928,-1.2 1.152,-1.2 1.152,-2.928 v -0.432 h 0.48 v 11.088 h -0.48 v -0.384 q 0,-2.4 -1.92,-3.552 -0.96,-0.528 -2.112,-0.576 h -6.384 v 13.488 h 6.288 q 3.504,0 5.856,-2.016 2.4,-2.016 3.552,-5.712 h 0.48 l -2.208,9.792 h -24.864 v -0.48 z"
         style="font-style:normal;font-variant:normal;font-weight:bold;font-stretch:normal;font-size:48px;font-family:'Cinzel Decorative';-inkscape-font-specification:'Cinzel Decorative Bold';fill:#fff;fill-opacity:1"
         id="path6339" />
      <path
         d="m 1229.1481,1232.6433 q -9.264,0 -14.544,-4.656 -5.28,-4.656 -5.28,-12.768 0,-8.112 5.232,-12.768 5.232,-4.704 14.352,-4.704 6.96,0 11.952,2.592 l 0.096,8.256 h -0.384 q -2.448,-8.832 -11.184,-8.832 -5.664,0 -8.976,4.128 -3.264,4.08 -3.264,11.184 0,7.104 3.12,11.28 3.168,4.176 8.544,4.32 5.568,0 8.496,-2.784 2.976,-2.88 4.128,-9.888 h 0.384 l 0.48,8.256 q -3.888,6.432 -13.152,6.384 z"
         style="font-style:normal;font-variant:normal;font-weight:bold;font-stretch:normal;font-size:48px;font-family:'Cinzel Decorative';-inkscape-font-specification:'Cinzel Decorative Bold';fill:#fff;fill-opacity:1"
         id="path6341" />
      <path
         d="m 1265.6903,1197.7473 q 8.88,0 14.112,4.704 5.232,4.704 5.232,12.768 0,8.064 -5.232,12.768 -5.232,4.704 -14.112,4.704 -8.88,0 -14.112,-4.704 -5.232,-4.704 -5.232,-12.768 0,-5.328 2.352,-9.264 2.4,-3.984 6.768,-6.096 4.368,-2.112 10.224,-2.112 z m -8.4,28.8 q 3.12,4.128 8.4,4.128 5.28,0 8.352,-4.128 3.12,-4.176 3.12,-11.328 0,-4.704 -1.392,-8.208 -1.392,-3.504 -3.984,-5.376 -2.592,-1.872 -6.096,-1.872 -5.28,0 -8.4,4.176 -3.072,4.128 -3.072,11.28 0,7.152 3.072,11.328 z"
         style="font-style:normal;font-variant:normal;font-weight:bold;font-stretch:normal;font-size:48px;font-family:'Cinzel Decorative';-inkscape-font-specification:'Cinzel Decorative Bold';fill:#fff;fill-opacity:1"
         id="path6343" />
      <path
         d="m 1288.4603,1231.5393 q 1.248,0 2.112,-0.864 0.912,-0.912 0.96,-2.16 v -26.592 q -0.048,-1.248 -0.96,-2.112 -0.864,-0.912 -2.112,-0.912 h -0.624 v -0.48 h 14.592 l -0.048,0.48 h -0.576 q -1.248,0 -2.16,0.912 -0.912,0.864 -0.912,2.112 v 28.032 h 6.288 q 3.504,0 5.856,-2.016 2.4,-2.016 3.552,-5.712 h 0.48 l -2.208,9.792 h -24.864 v -0.48 z"
         style="font-style:normal;font-variant:normal;font-weight:bold;font-stretch:normal;font-size:48px;font-family:'Cinzel Decorative';-inkscape-font-specification:'Cinzel Decorative Bold';fill:#fff;fill-opacity:1"
         id="path6345" />
      <path
         d="m 1317.7103,1231.5393 q 1.248,0 2.112,-0.864 0.912,-0.912 0.96,-2.16 v -26.736 q -0.144,-1.68 -1.584,-2.496 -0.72,-0.384 -1.488,-0.384 h -0.624 v -0.48 h 18.384 q 1.488,0 3.264,-0.288 1.776,-0.288 2.496,-0.576 v 8.4 h -0.48 v -0.576 q 0,-2.16 -1.296,-3.456 -1.248,-1.344 -3.408,-1.44 h -8.064 v 13.968 h 6.336 q 1.776,-0.048 2.928,-1.2 1.152,-1.2 1.152,-2.928 v -0.432 h 0.48 v 11.088 h -0.48 v -0.384 q 0,-2.4 -1.92,-3.552 -0.96,-0.528 -2.112,-0.576 h -6.384 v 13.488 h 6.288 q 3.504,0 5.856,-2.016 2.4,-2.016 3.552,-5.712 h 0.48 l -2.208,9.792 h -24.864 v -0.48 z"
         style="font-style:normal;font-variant:normal;font-weight:bold;font-stretch:normal;font-size:48px;font-family:'Cinzel Decorative';-inkscape-font-specification:'Cinzel Decorative Bold';fill:#fff;fill-opacity:1"
         id="path6347" />
      <path
         d="m 1376.7916,1198.4193 q 8.496,0 13.44,4.512 4.944,4.512 4.944,12.288 0,7.776 -4.944,12.288 -4.944,4.512 -13.44,4.512 h -17.424 v -0.48 h 0.624 q 1.248,0 2.112,-0.864 0.912,-0.912 0.96,-2.16 v -26.88 q -0.144,-1.152 -1.008,-1.92 -0.864,-0.816 -2.064,-0.816 h -0.624 v -0.48 z m -0.624,31.584 q 3.456,0 5.952,-1.776 2.544,-1.824 3.888,-5.136 1.344,-3.36 1.344,-7.872 0,-6.816 -3.024,-10.8 -2.976,-3.984 -8.16,-3.984 h -5.904 v 29.568 z"
         style="font-style:normal;font-variant:normal;font-weight:bold;font-stretch:normal;font-size:48px;font-family:'Cinzel Decorative';-inkscape-font-specification:'Cinzel Decorative Bold';fill:#fff;fill-opacity:1"
         id="path6349" />
      <path
         d="m 1398.8041,1231.5393 q 1.248,0 2.112,-0.864 0.912,-0.912 0.96,-2.16 v -26.736 q -0.144,-1.68 -1.584,-2.496 -0.72,-0.384 -1.488,-0.384 h -0.624 v -0.48 h 18.384 q 1.488,0 3.264,-0.288 1.776,-0.288 2.496,-0.576 v 8.4 h -0.48 v -0.576 q 0,-2.16 -1.296,-3.456 -1.248,-1.344 -3.408,-1.44 h -8.064 v 13.968 h 6.336 q 1.776,-0.048 2.928,-1.2 1.152,-1.2 1.152,-2.928 v -0.432 h 0.48 v 11.088 h -0.48 v -0.384 q 0,-2.4 -1.92,-3.552 -0.96,-0.528 -2.112,-0.576 h -6.384 v 13.488 h 6.288 q 3.504,0 5.856,-2.016 2.4,-2.016 3.552,-5.712 h 0.48 l -2.208,9.792 h -24.864 v -0.48 z"
         style="font-style:normal;font-variant:normal;font-weight:bold;font-stretch:normal;font-size:48px;font-family:'Cinzel Decorative';-inkscape-font-specification:'Cinzel Decorative Bold';fill:#fff;fill-opacity:1"
         id="path6351" />
      <path
         d="m 1441.0853,1231.5393 q 1.248,0 2.112,-0.864 0.912,-0.912 0.96,-2.16 v -26.592 q -0.048,-1.248 -0.96,-2.112 -0.864,-0.912 -2.112,-0.912 h -0.624 v -0.48 h 14.592 l -0.048,0.48 h -0.576 q -1.248,0 -2.16,0.912 -0.912,0.864 -0.912,2.112 v 28.032 h 6.288 q 3.504,0 5.856,-2.016 2.4,-2.016 3.552,-5.712 h 0.48 l -2.208,9.792 h -24.864 v -0.48 z"
         style="font-style:normal;font-variant:normal;font-weight:bold;font-stretch:normal;font-size:48px;font-family:'Cinzel Decorative';-inkscape-font-specification:'Cinzel Decorative Bold';fill:#fff;fill-opacity:1"
         id="path6353" />
      <path
         d="m 1503.4006,1231.5393 h 0.432 v 0.48 h -15.312 v -0.48 h 0.432 q 1.056,0 1.536,-0.624 0.528,-0.672 0.528,-1.248 0,-0.576 -0.24,-1.152 l -2.352,-5.904 h -11.232 l -2.496,5.904 q -0.24,0.624 -0.24,1.2 0,0.528 0.48,1.2 0.528,0.624 1.632,0.624 h 0.384 v 0.48 h -10.272 v -0.48 h 0.432 q 1.104,0 2.208,-0.672 1.104,-0.672 1.824,-2.016 l 11.088,-25.104 q 2.256,-4.752 2.4,-6.288 h 0.432 l 14.256,31.296 q 0.72,1.392 1.824,2.112 1.104,0.672 2.256,0.672 z m -25.392,-10.944 h 9.6 l -4.656,-11.808 z"
         style="font-style:normal;font-variant:normal;font-weight:bold;font-stretch:normal;font-size:48px;font-family:'Cinzel Decorative';-inkscape-font-specification:'Cinzel Decorative Bold';fill:#fff;fill-opacity:1"
         id="path6355" />
      <path
         d="m 1550.7188,1198.8993 h -0.432 q -1.104,0 -2.208,0.672 -1.104,0.672 -1.824,2.016 l -11.376,25.104 q -2.208,4.752 -2.352,6.288 h -0.432 l -14.544,-31.344 q -0.72,-1.344 -1.824,-2.016 -1.104,-0.72 -2.256,-0.72 h -0.384 v -0.48 h 15.264 v 0.48 h -0.384 q -1.056,0 -1.584,0.672 -0.48,0.624 -0.48,1.2 0,0.576 0.192,1.152 l 8.16,19.824 8.448,-19.824 q 0.24,-0.624 0.24,-1.152 0,-0.576 -0.528,-1.2 -0.48,-0.672 -1.536,-0.672 h -0.432 v -0.48 h 10.272 z"
         style="font-style:normal;font-variant:normal;font-weight:bold;font-stretch:normal;font-size:48px;font-family:'Cinzel Decorative';-inkscape-font-specification:'Cinzel Decorative Bold';fill:#fff;fill-opacity:1"
         id="path6357" />
      <path
         d="m 1568.9716,1197.7473 q 8.88,0 14.112,4.704 5.232,4.704 5.232,12.768 0,8.064 -5.232,12.768 -5.232,4.704 -14.112,4.704 -8.88,0 -14.112,-4.704 -5.232,-4.704 -5.232,-12.768 0,-5.328 2.352,-9.264 2.4,-3.984 6.768,-6.096 4.368,-2.112 10.224,-2.112 z m -8.4,28.8 q 3.12,4.128 8.4,4.128 5.28,0 8.352,-4.128 3.12,-4.176 3.12,-11.328 0,-4.704 -1.392,-8.208 -1.392,-3.504 -3.984,-5.376 -2.592,-1.872 -6.096,-1.872 -5.28,0 -8.4,4.176 -3.072,4.128 -3.072,11.28 0,7.152 3.072,11.328 z"
         style="font-style:normal;font-variant:normal;font-weight:bold;font-stretch:normal;font-size:48px;font-family:'Cinzel Decorative';-inkscape-font-specification:'Cinzel Decorative Bold';fill:#fff;fill-opacity:1"
         id="path6359" />
      <path
         d="m 1591.7416,1231.5393 q 1.248,0 2.112,-0.864 0.912,-0.912 0.96,-2.16 v -26.64 q -0.048,-1.248 -0.96,-2.112 -0.864,-0.864 -2.112,-0.864 h -0.624 v -0.48 h 14.592 l -0.048,0.48 h -0.576 q -1.248,0 -2.16,0.864 -0.912,0.864 -0.912,2.112 v 26.64 q 0,1.248 0.912,2.16 0.912,0.864 2.16,0.864 h 0.576 l 0.048,0.48 h -14.592 v -0.48 z"
         style="font-style:normal;font-variant:normal;font-weight:bold;font-stretch:normal;font-size:48px;font-family:'Cinzel Decorative';-inkscape-font-specification:'Cinzel Decorative Bold';fill:#fff;fill-opacity:1"
         id="path6361" />
      <path
         d="m 1610.3041,1231.5393 q 1.248,0 2.112,-0.864 0.912,-0.912 0.96,-2.16 v -26.736 q -0.144,-1.68 -1.584,-2.496 -0.72,-0.384 -1.488,-0.384 h -0.624 v -0.48 h 18.384 q 1.488,0 3.264,-0.288 1.776,-0.288 2.496,-0.576 v 8.4 h -0.48 v -0.576 q 0,-2.16 -1.296,-3.456 -1.248,-1.344 -3.408,-1.44 h -8.064 v 13.968 h 6.336 q 1.776,-0.048 2.928,-1.2 1.152,-1.2 1.152,-2.928 v -0.432 h 0.48 v 11.088 h -0.48 v -0.384 q 0,-2.4 -1.92,-3.552 -0.96,-0.528 -2.112,-0.576 h -6.384 v 13.488 h 6.288 q 3.504,0 5.856,-2.016 2.4,-2.016 3.552,-5.712 h 0.48 l -2.208,9.792 h -24.864 v -0.48 z"
         style="font-style:normal;font-variant:normal;font-weight:bold;font-stretch:normal;font-size:48px;font-family:'Cinzel Decorative';-inkscape-font-specification:'Cinzel Decorative Bold';fill:#fff;fill-opacity:1"
         id="path6363" />
      <path
         d="m 1665.2093,1213.7793 q 0.816,1.92 3.36,1.92 2.88,0 4.608,-2.88 1.2,-1.968 1.2,-4.992 0,-4.464 -2.352,-6.528 -1.776,-1.536 -4.512,-1.536 -0.624,0 -1.296,0.096 l -3.216,0.48 v 28.176 q 0,1.296 0.912,2.16 0.912,0.864 2.16,0.864 h 0.624 v 0.48 h -14.592 v -0.48 h 0.624 q 1.248,0 2.112,-0.864 0.912,-0.864 0.96,-2.16 v -25.584 q -0.048,-1.248 -0.768,-1.968 -0.672,-0.72 -2.016,-0.72 -0.336,0 -0.864,0.048 l -0.096,-0.432 q 4.08,-0.336 8.544,-1.104 4.512,-0.816 5.904,-1.008 1.44,-0.192 2.88,-0.192 1.488,0 3.552,0.336 2.064,0.288 4.224,1.392 2.16,1.056 3.504,3.168 1.392,2.304 1.392,5.232 0,2.88 -1.056,5.088 -2.016,4.224 -6.912,5.376 -1.2,0.288 -2.304,0.288 -1.056,0 -2.016,-0.192 -1.968,-0.288 -3.312,-1.344 -1.344,-1.056 -1.68,-2.928 z"
         style="font-style:normal;font-variant:normal;font-weight:bold;font-stretch:normal;font-size:48px;font-family:'Cinzel Decorative';-inkscape-font-specification:'Cinzel Decorative Bold';fill:#fff;fill-opacity:1"
         id="path6365" />
      <path
         d="m 1698.8656,1200.5313 h -2.064 q -0.096,0 -0.144,0 v 27.984 q 0.048,1.776 1.536,2.64 0.72,0.384 1.536,0.384 h 0.624 v 0.48 h -14.592 v -0.48 h 0.624 q 1.728,0 2.64,-1.488 0.384,-0.672 0.432,-1.488 v -26.64 q -0.048,-1.248 -0.96,-2.112 -0.864,-0.912 -2.112,-0.912 h -0.624 v -0.48 h 16.464 q 4.656,0 7.872,2.016 1.632,1.008 2.592,2.832 0.96,1.776 0.96,4.08 0,2.256 -0.816,4.176 -0.768,1.92 -2.64,3.36 -1.824,1.44 -4.416,1.728 2.784,0.912 4.896,4.224 5.184,8.304 7.68,9.888 1.248,0.768 3.12,0.816 v 0.48 h -4.704 q -4.08,0 -6.816,-1.104 -2.736,-1.152 -4.464,-3.888 -0.864,-1.392 -2.208,-4.176 -1.344,-2.832 -1.776,-4.032 -1.296,-2.88 -3.264,-3.216 v -0.48 h 1.488 q 2.16,0 3.792,-1.296 1.68,-1.296 2.256,-4.224 0.192,-1.008 0.192,-1.584 0,-3.936 -1.584,-5.664 -1.584,-1.776 -4.08,-1.824 -0.48,0 -1.44,0 z"
         style="font-style:normal;font-variant:normal;font-weight:bold;font-stretch:normal;font-size:48px;font-family:'Cinzel Decorative';-inkscape-font-specification:'Cinzel Decorative Bold';fill:#fff;fill-opacity:1"
         id="path6367" />
      <path
         d="m 1739.1278,1197.7473 q 8.88,0 14.112,4.704 5.232,4.704 5.232,12.768 0,8.064 -5.232,12.768 -5.232,4.704 -14.112,4.704 -8.88,0 -14.112,-4.704 -5.232,-4.704 -5.232,-12.768 0,-5.328 2.352,-9.264 2.4,-3.984 6.768,-6.096 4.368,-2.112 10.224,-2.112 z m -8.4,28.8 q 3.12,4.128 8.4,4.128 5.28,0 8.352,-4.128 3.12,-4.176 3.12,-11.328 0,-4.704 -1.392,-8.208 -1.392,-3.504 -3.984,-5.376 -2.592,-1.872 -6.096,-1.872 -5.28,0 -8.4,4.176 -3.072,4.128 -3.072,11.28 0,7.152 3.072,11.328 z"
         style="font-style:normal;font-variant:normal;font-weight:bold;font-stretch:normal;font-size:48px;font-family:'Cinzel Decorative';-inkscape-font-specification:'Cinzel Decorative Bold';fill:#fff;fill-opacity:1"
         id="path6369" />
      <path
         d="m 1788.4898,1212.1953 q -1.632,3.744 -6.048,5.184 -1.296,0.432 -2.4,0.432 -3.408,0 -6.096,-1.776 v -0.48 q 3.6,0.096 5.808,-2.352 1.968,-2.112 1.968,-5.52 0,-5.232 -3.648,-6.768 -1.152,-0.48 -2.544,-0.48 h -3.216 v 28.08 q 0,1.248 0.912,2.16 0.912,0.864 2.16,0.864 h 0.624 v 0.48 h -14.592 v -0.48 h 0.624 q 1.248,0 2.112,-0.864 0.912,-0.912 0.96,-2.16 v -26.832 q -0.192,-1.632 -1.632,-2.4 -0.672,-0.384 -1.44,-0.384 h -0.624 v -0.48 h 16.032 q 8.688,0 11.136,5.52 0.768,1.824 0.768,4.08 0,2.208 -0.864,4.176 z"
         style="font-style:normal;font-variant:normal;font-weight:bold;font-stretch:normal;font-size:48px;font-family:'Cinzel Decorative';-inkscape-font-specification:'Cinzel Decorative Bold';fill:#fff;fill-opacity:1"
         id="path6371" />
      <path
         d="m 1815.9623,1231.5393 q 1.248,0 1.92,-0.624 1.104,-1.104 1.152,-2.352 v -12.24 h -15.552 v 12.192 q 0,1.248 0.912,2.16 0.912,0.864 2.16,0.864 h 0.576 l 0.048,0.48 h -14.592 v -0.48 h 0.624 q 1.248,0 2.112,-0.864 0.912,-0.912 0.96,-2.16 v -26.64 q -0.048,-1.248 -0.96,-2.112 -0.864,-0.864 -2.112,-0.864 h -0.624 v -0.48 h 14.592 l -0.048,0.48 h -0.576 q -1.248,0 -2.16,0.864 -0.912,0.864 -0.912,2.112 v 12.384 h 15.552 v -12.384 q -0.048,-1.248 -0.96,-2.112 -0.864,-0.864 -2.112,-0.864 h -0.624 v -0.48 h 14.592 v 0.48 h -0.624 q -1.248,0 -2.16,0.912 -0.912,0.864 -0.912,2.112 v 26.592 q 0,1.248 0.912,2.16 0.912,0.864 2.16,0.864 h 0.624 v 0.48 h -14.592 v -0.48 z"
         style="font-style:normal;font-variant:normal;font-weight:bold;font-stretch:normal;font-size:48px;font-family:'Cinzel Decorative';-inkscape-font-specification:'Cinzel Decorative Bold';fill:#fff;fill-opacity:1"
         id="path6373" />
    </g>
    <path
       style="fill:none;stroke:#fff;stroke-width:0.6450603;stroke-linecap:butt;stroke-linejoin:miter;stroke-miterlimit:4;stroke-dasharray:none;stroke-opacity:1"
       d="M -121.2439,183.50765 H 106.34998"
       id="path3360"
       inkscape:connector-curvature="0"
       inkscape:path-effect="#path-effect3365"
       inkscape:original-d="M -121.2439,183.50765 H 106.34998"
       inkscape:export-xdpi="96"
       inkscape:export-ydpi="96" />
    <g
       aria-label="tique"
       transform="matrix(0.29625909,0,0,0.29625909,-274.00783,-158.50889)"
       style="font-style:normal;font-variant:normal;font-weight:normal;font-stretch:normal;font-size:40px;line-height:1.25;font-family:'Brotherhood Script';-inkscape-font-specification:'Brotherhood Script';letter-spacing:0px;word-spacing:0px;fill:#fff;fill-opacity:1;stroke:none"
       id="flowRoot1212">
      <path
         d="m 1166.5463,1195.4433 -0.336,-0.336 q 2.064,-3.552 6.912,-7.872 2.304,1.2 3.264,3.888 -4.944,3.12 -9.84,4.32 z m -12.336,36.096 q 1.248,0 2.112,-0.864 0.912,-0.912 0.96,-2.16 v -26.736 q -0.144,-1.68 -1.584,-2.496 -0.72,-0.384 -1.488,-0.384 h -0.624 v -0.48 h 18.384 q 1.488,0 3.264,-0.288 1.776,-0.288 2.496,-0.576 v 8.4 l -0.48,-0.048 v -0.528 q 0,-2.928 -2.208,-4.224 -1.056,-0.624 -2.496,-0.672 h -8.064 v 13.968 h 6.336 q 1.776,-0.048 2.928,-1.2 1.152,-1.2 1.152,-2.928 v -0.432 h 0.48 v 11.088 h -0.48 v -0.384 q 0,-2.4 -1.92,-3.552 -0.96,-0.528 -2.112,-0.576 h -6.384 v 13.488 h 6.288 q 3.504,0 5.856,-2.016 2.4,-2.016 3.552,-5.712 h 0.48 l -2.208,9.792 h -24.864 v -0.48 z"
         style="font-style:normal;font-variant:normal;font-weight:bold;font-stretch:normal;font-size:48px;font-family:'Cinzel Decorative';-inkscape-font-specification:'Cinzel Decorative Bold';fill:#fff;fill-opacity:1"
         id="path6322" />
      <path
         d="m 1201.4836,1200.3873 v 28.176 q 0.048,1.248 0.912,2.112 0.912,0.864 2.16,0.864 h 0.576 l 0.048,0.48 h -14.592 v -0.48 h 0.624 q 1.2,0 2.064,-0.864 0.912,-0.864 1.008,-2.064 v -28.224 h -6.48 q -2.208,0.048 -3.504,1.392 -1.296,1.344 -1.296,3.504 v 0.576 h -0.48 v -8.352 q 0.672,0.288 2.4,0.576 1.776,0.288 3.264,0.288 h 19.344 q 2.352,-0.048 3.84,-0.384 1.488,-0.336 1.824,-0.48 v 8.352 h -0.48 v -0.576 q 0,-2.16 -1.296,-3.504 -1.296,-1.344 -3.504,-1.392 z"
         style="font-style:normal;font-variant:normal;font-weight:bold;font-stretch:normal;font-size:48px;font-family:'Cinzel Decorative';-inkscape-font-specification:'Cinzel Decorative Bold';fill:#fff;fill-opacity:1"
         id="path6324" />
      <path
         d="m 1216.4603,1231.5393 q 1.248,0 2.112,-0.864 0.912,-0.912 0.96,-2.16 v -26.64 q -0.048,-1.248 -0.96,-2.112 -0.864,-0.864 -2.112,-0.864 h -0.624 v -0.48 h 14.592 l -0.048,0.48 h -0.576 q -1.248,0 -2.16,0.864 -0.912,0.864 -0.912,2.112 v 26.64 q 0,1.248 0.912,2.16 0.912,0.864 2.16,0.864 h 0.576 l 0.048,0.48 h -14.592 v -0.48 z"
         style="font-style:normal;font-variant:normal;font-weight:bold;font-stretch:normal;font-size:48px;font-family:'Cinzel Decorative';-inkscape-font-specification:'Cinzel Decorative Bold';fill:#fff;fill-opacity:1"
         id="path6326" />
      <path
         d="m 1285.1116,1238.9793 q 6.768,0 11.088,-3.504 l 0.288,0.192 q -0.24,3.888 -3.648,6.624 -3.84,3.12 -9.552,3.12 -5.664,0 -12.288,-3.216 -2.976,-1.488 -9.84,-5.904 -1.92,-1.296 -4.368,-2.352 -2.448,-1.056 -4.56,-1.248 -8.64,-0.192 -13.728,-4.848 -5.04,-4.704 -5.04,-12.624 0,-5.328 2.352,-9.264 2.4,-3.984 6.768,-6.096 4.368,-2.112 10.224,-2.112 8.88,0 14.112,4.704 5.232,4.704 5.232,12.768 0,6.384 -3.36,10.752 -3.36,4.368 -9.36,5.904 3.024,0.624 6,1.632 3.024,1.056 8.64,3.264 5.664,2.208 11.04,2.208 z m -40.704,-35.04 q -3.072,4.128 -3.072,11.28 0,7.152 3.072,11.328 3.12,4.128 8.4,4.128 5.28,0 8.352,-4.128 3.12,-4.176 3.12,-11.328 0,-4.704 -1.392,-8.208 -1.392,-3.504 -3.984,-5.376 -2.592,-1.872 -6.096,-1.872 -5.28,0 -8.4,4.176 z"
         style="font-style:normal;font-variant:normal;font-weight:bold;font-stretch:normal;font-size:48px;font-family:'Cinzel Decorative';-inkscape-font-specification:'Cinzel Decorative Bold';fill:#fff;fill-opacity:1"
         id="path6328" />
      <path
         d="m 1311.4591,1198.8993 h -0.816 q -1.008,0 -1.776,0.672 -0.72,0.624 -0.72,1.584 v 18.72 q 0,5.904 -3.696,9.36 -3.696,3.456 -10.128,3.456 -7.584,0 -11.616,-3.36 -4.032,-3.408 -4.032,-9.408 v -18.624 q 0,-1.056 -0.768,-1.728 -0.72,-0.672 -1.776,-0.672 h -0.768 v -0.48 h 13.824 v 0.48 h -0.768 q -1.056,0 -1.776,0.672 -0.72,0.624 -0.768,1.632 v 18.336 q 0,5.088 2.496,8.064 2.496,2.976 6.864,2.976 4.368,0 6.912,-2.784 2.544,-2.832 2.592,-7.632 v -18.96 q 0,-1.008 -0.768,-1.632 -0.72,-0.672 -1.776,-0.672 h -0.768 v -0.48 h 10.032 z"
         style="font-style:normal;font-variant:normal;font-weight:bold;font-stretch:normal;font-size:48px;font-family:'Cinzel Decorative';-inkscape-font-specification:'Cinzel Decorative Bold';fill:#fff;fill-opacity:1"
         id="path6330" />
      <path
         d="m 1315.0853,1231.5393 q 1.248,0 2.112,-0.864 0.912,-0.912 0.96,-2.16 v -26.736 q -0.144,-1.68 -1.584,-2.496 -0.72,-0.384 -1.488,-0.384 h -0.624 v -0.48 h 18.384 q 1.488,0 3.264,-0.288 1.776,-0.288 2.496,-0.576 v 8.4 h -0.48 v -0.576 q 0,-2.16 -1.296,-3.456 -1.248,-1.344 -3.408,-1.44 h -8.064 v 13.968 h 6.336 q 1.776,-0.048 2.928,-1.2 1.152,-1.2 1.152,-2.928 v -0.432 h 0.48 v 11.088 h -0.48 v -0.384 q 0,-2.4 -1.92,-3.552 -0.96,-0.528 -2.112,-0.576 h -6.384 v 13.488 h 6.288 q 3.504,0 5.856,-2.016 2.4,-2.016 3.552,-5.712 h 0.48 l -2.208,9.792 h -24.864 v -0.48 z"
         style="font-style:normal;font-variant:normal;font-weight:bold;font-stretch:normal;font-size:48px;font-family:'Cinzel Decorative';-inkscape-font-specification:'Cinzel Decorative Bold';fill:#fff;fill-opacity:1"
         id="path6332" />
    </g>
  </g>
</svg>
