<svg xmlns="http://www.w3.org/2000/svg" viewBox="0 0 953 953">
  <g fill="#7c7e80">
    <path d="M430.6 953a428.4 428.4 0 0 0 378.3-629.7 75.5 75.5 0 0 1-16.8.5l-54.5-4.2-39.2 39.2a315 315 0 1 1-102-101.9l35.5-35.5-4.8-62.5c-.4-5-.3-10 .2-14.9a428.4 428.4 0 1 0-196.7 809z"/>
    <path d="M430.6 413.9l8.4.3 79-79.1 1.8-1.7a210.9 210.9 0 1 0 101.9 102l-1.7 1.7-79.1 79.1.3 8.4a110.7 110.7 0 1 1-110.6-110.7z"/>
    <path d="M872 142.6l25.5-25.4a29.6 29.6 0 0 0 0-41.9l-17.6-17.7a29.5 29.5 0 0 0-41.8 0L809 86.7l-6-77.5A9.9 9.9 0 0 0 793 0c-2.5 0-5 .9-7 2.9L671.5 117.4a50 50 0 0 0-14.5 39.2l.3 4.5 5.5 71.7-41.4 41.4-74.5 74.5-1.7 1.7-72.1 72.1-32 32a24.7 24.7 0 0 0-7.2 15.7l-2 25.1a25 25 0 0 0 24.9 27h1.3l26.5-1.3c6.2-.3 12-2.9 16.4-7.3l31.7-31.7 72-72.1 1.8-1.7 74.5-74.5 45-45 65.4 5 2.9.2 3.8.1c13.2 0 25.9-5.2 35.4-14.6L947.9 165a10 10 0 0 0-6.3-17l-69.5-5.4z"/>
  </g>
</svg>