<svg xmlns="http://www.w3.org/2000/svg" fill="none" viewBox="0 0 159 112">
  <path fill="#D7E9FF" d="M98.1 105.8H8.7v-2.5h89.4v2.5zm-79.5-15v-5h-5v5h5zm-9.9 5v-15h89.4v15H8.7z"/>
  <path fill="#5C9EFF" d="M18.6 85.9h-5v5h5v-5z"/>
  <path fill="#D7E9FF" d="M53.4 68.4a2.5 2.5 0 0 1 0 5 2.5 2.5 0 0 1 0-5zm-39.7 0h-5v5h5v-5z"/>
  <path fill="#94C1FF" d="M13.7 68.4h39.7a2.5 2.5 0 0 0 0 5H13.7v-5z"/>
  <path fill="#D7E9FF" d="M98.1 68.4h-5v5h5v-5z"/>
  <path fill="#5C9EFF" d="M55.9 71c0-1.4-1.1-2.6-2.5-2.6h39.8v5H53.4c1.4 0 2.5-1.1 2.5-2.5z"/>
  <path fill="#fff" d="M60.9 39.8l-12.5-7.4v14.9L61 39.8zm-7.5-13.7a13.7 13.7 0 1 1 0 27.4 13.7 13.7 0 0 1 0-27.4z"/>
  <path fill="#D7E9FF" d="M60.9 39.8l-12.5 7.5v-15L61 39.9z"/>
  <path fill="#94C1FF" d="M98.1 13.7v54.7H8.7V13.7h89.4zm-31 26.1a13.7 13.7 0 1 0-27.4 0 13.7 13.7 0 0 0 27.4 0z"/>
  <path fill="#fff" d="M125.5 6.2H1.2v104.6h7.5v-7.5h89.4v7.5h59.7V6.2h-32.3zm-20 7.5h20v15h-20v-15zm0 22.4h20v15h-20V36zm0 22.4h20v15h-20v-15zm-7.4 37.3H8.7v-15h89.4v15zm0-27.4v5H8.7V13.7h89.4v54.7zm7.5 12.5h19.9v15h-20v-15z"/>
  <path fill="#94C1FF" d="M125.5 80.9h-20v15h20v-15zm0-22.4h-20v15h20v-15zm0-22.5h-20v15h20V36zm0 69.8h-20v-2.5h20v2.5zm0-92.1h-20v15h20v-15z"/>
  <path fill="#D7E9FF" d="M3.7 1.2h151.6c1.3 0 2.5 1.2 2.5 2.5v2.5H1.2V3.7c0-1.3 1.2-2.5 2.5-2.5z"/>
  <path fill="#fff" d="M51 68.4H13.6V71h37.2v-2.5z" opacity=".3"/>
  <path fill="#D7E9FF" d="M11.2 13.7H8.7v54.7h2.5V13.7z"/>
  <path fill="#5C9EFF" d="M98.1 13.7h-2.5v54.7h2.5V13.7z"/>
  <path fill="#D7E9FF" d="M108 13.7h-2.4v15h2.5v-15z"/>
  <path fill="#5C9EFF" d="M125.5 13.7H123v15h2.5v-15z"/>
  <path fill="#D7E9FF" d="M108 36h-2.4v15h2.5V36z"/>
  <path fill="#5C9EFF" d="M125.5 36H123v15h2.5V36z"/>
  <path fill="#D7E9FF" d="M108 58.5h-2.4v15h2.5v-15z"/>
  <path fill="#5C9EFF" d="M125.5 58.5H123v15h2.5v-15z"/>
  <path fill="#D7E9FF" d="M108 80.9h-2.4v15h2.5v-15z"/>
  <path fill="#fff" d="M11.2 80.9H8.7v15h2.5v-15z"/>
  <path fill="#94C1FF" d="M98.1 80.9h-2.5v15h2.5v-15z"/>
  <path fill="#5C9EFF" d="M125.5 80.9H123v15h2.5v-15z"/>
  <path fill="#D7E9FF" d="M108 103.3h-2.4v2.5h2.5v-2.5z"/>
  <path fill="#fff" d="M11.2 103.3H8.7v2.5h2.5v-2.5z"/>
  <path fill="#5C9EFF" d="M125.5 103.3H123v2.5h2.5v-2.5z"/>
  <path fill="#94C1FF" d="M98.1 103.3h-2.5v2.5h2.5v-2.5z"/>
  <path fill="#fff" d="M6.2 1.2H3.7a2.5 2.5 0 0 0-2.5 2.5v2.5h2.5V3.7c0-1.3 1.1-2.5 2.5-2.5z"/>
  <path fill="#94C1FF" d="M152.8 1.2h2.5c1.3 0 2.5 1.2 2.5 2.5v2.5h-2.5V3.7c0-1.3-1.1-2.5-2.5-2.5z"/>
  <path fill="#116FFF" d="M6.3 5C5.6 5 5 4.4 5 3.7c0-.7.6-1.2 1.3-1.2a1.2 1.2 0 0 1 0 2.5zm5 0c-.7 0-1.3-.6-1.3-1.3 0-.7.5-1.2 1.2-1.2a1.2 1.2 0 0 1 0 2.5zm4.9 0c-.7 0-1.2-.6-1.2-1.3 0-.7.5-1.2 1.2-1.2a1.2 1.2 0 0 1 0 2.5z"/>
  <path fill="#116FFF" d="M157.8 7.5c-.7 0-1.3-.6-1.3-1.3V3.7c0-.7-.5-1.2-1.2-1.2H3.7c-.7 0-1.2.5-1.2 1.2v2.5a1.2 1.2 0 1 1-2.5 0V3.7C0 1.7 1.7 0 3.7 0h151.6c2 0 3.7 1.7 3.7 3.7v2.5c0 .7-.6 1.3-1.2 1.3z"/>
  <path fill="#116FFF" d="M157.8 112H1.2c-.6 0-1.2-.6-1.2-1.2V6.2C0 5.5.6 5 1.2 5h156.6c.6 0 1.2.5 1.2 1.2v104.6c0 .6-.6 1.2-1.2 1.2zM2.5 109.5h154V7.5H2.5v102z"/>
  <path fill="#116FFF" d="M98.1 74.7H8.7c-.7 0-1.2-.6-1.2-1.3V13.7c0-.7.5-1.3 1.2-1.3h89.4c.7 0 1.3.6 1.3 1.3v59.7c0 .7-.6 1.3-1.3 1.3zM10 72.2h87V14.9H10v57.3z"/>
  <path fill="#116FFF" d="M98.1 69.7H8.7a1.2 1.2 0 0 1 0-2.5h89.4a1.2 1.2 0 0 1 0 2.5z"/>
  <path fill="#116FFF" d="M13.7 74.7c-.7 0-1.3-.6-1.3-1.3v-5a1.2 1.2 0 1 1 2.5 0v5c0 .7-.5 1.3-1.2 1.3zm79.5 0c-.7 0-1.3-.6-1.3-1.3v-5a1.2 1.2 0 1 1 2.5 0v5c0 .7-.5 1.3-1.2 1.3zm-39.8 0a3.7 3.7 0 1 1 0-7.5 3.7 3.7 0 0 1 0 7.5zm0-5a1.2 1.2 0 1 0 0 2.5 1.2 1.2 0 0 0 0-2.5zm0-14.9a15 15 0 1 1 0-30 15 15 0 0 1 0 30zm0-27.4a12.4 12.4 0 1 0 0 24.9 12.4 12.4 0 0 0 0-25z"/>
  <path fill="#116FFF" d="M48.4 48.5a1.2 1.2 0 0 1-1.2-1.2v-15a1.2 1.2 0 0 1 1.9-1l12.4 7.5a1.2 1.2 0 0 1 0 2l-12.4 7.6-.7.1zm1.3-14v10.6l8.8-5.3-8.8-5.2zm75.8-4.6h-20c-.6 0-1.2-.6-1.2-1.3v-15c0-.6.6-1.2 1.3-1.2h19.9c.6 0 1.2.6 1.2 1.3v15c0 .6-.6 1.2-1.2 1.2zm-18.7-2.5h17.4V14.9h-17.4v12.5zm41-10h-17.4a1.2 1.2 0 0 1 0-2.5h17.4a1.2 1.2 0 0 1 0 2.5zm0 5h-17.4a1.2 1.2 0 0 1 0-2.5h17.4a1.2 1.2 0 0 1 0 2.5zm-7.4 5h-10a1.2 1.2 0 0 1 0-2.5h10a1.2 1.2 0 0 1 0 2.5zm-14.9 24.9h-20c-.6 0-1.2-.6-1.2-1.3V36c0-.6.6-1.2 1.3-1.2h19.9c.6 0 1.2.6 1.2 1.3v15c0 .6-.6 1.2-1.2 1.2zm-18.7-2.5h17.4V37.3h-17.4v12.5zm41-10h-17.4a1.2 1.2 0 0 1 0-2.5h17.4a1.2 1.2 0 0 1 0 2.5zm0 5h-17.4a1.2 1.2 0 0 1 0-2.5h17.4a1.2 1.2 0 0 1 0 2.5zm-7.4 5h-10a1.2 1.2 0 0 1 0-2.5h10a1.2 1.2 0 0 1 0 2.5zm-14.9 24.9h-20c-.6 0-1.2-.6-1.2-1.3v-15c0-.6.6-1.2 1.3-1.2h19.9c.6 0 1.2.6 1.2 1.3v15c0 .6-.6 1.2-1.2 1.2zm-18.7-2.5h17.4V59.7h-17.4v12.5zm41-10h-17.4a1.2 1.2 0 0 1 0-2.5h17.4a1.2 1.2 0 0 1 0 2.5zm0 5h-17.4a1.2 1.2 0 0 1 0-2.5h17.4a1.2 1.2 0 0 1 0 2.5zm-7.4 5h-10a1.2 1.2 0 0 1 0-2.5h10a1.2 1.2 0 0 1 0 2.5zM125.5 97h-20c-.6 0-1.2-.5-1.2-1.2v-15c0-.6.6-1.2 1.3-1.2h19.9c.6 0 1.2.6 1.2 1.3v15c0 .6-.6 1.2-1.2 1.2zm-18.7-2.4h17.4V82h-17.4v12.5zm41-10h-17.4a1.2 1.2 0 0 1 0-2.5h17.4a1.2 1.2 0 0 1 0 2.5zm0 5h-17.4a1.2 1.2 0 0 1 0-2.5h17.4a1.2 1.2 0 0 1 0 2.5zm-7.4 5h-10a1.2 1.2 0 0 1 0-2.5h10a1.2 1.2 0 0 1 0 2.5zm7.4 12.4h-17.4a1.2 1.2 0 0 1 0-2.5h17.4a1.2 1.2 0 0 1 0 2.5zM98.1 97H8.7c-.7 0-1.2-.5-1.2-1.2v-15c0-.6.5-1.2 1.2-1.2h89.4c.7 0 1.3.6 1.3 1.3v15c0 .6-.6 1.2-1.3 1.2zM10 94.7h87V82H10v12.5z"/>
  <path fill="#116FFF" d="M93.2 87.1H23.6a1.2 1.2 0 0 1 0-2.5h69.6a1.2 1.2 0 0 1 0 2.5zM48.4 92H23.6a1.2 1.2 0 0 1 0-2.4h24.8a1.2 1.2 0 0 1 0 2.5zm-29.8 0h-5c-.6 0-1.2-.5-1.2-1.2v-5c0-.6.6-1.2 1.3-1.2h5c.6 0 1.2.6 1.2 1.3v5c0 .6-.6 1.2-1.3 1.2zM15 89.7h2.5v-2.5H15v2.5zM8.7 107c-.7 0-1.2-.5-1.2-1.2v-2.5a1.2 1.2 0 1 1 2.4 0v2.5c0 .7-.5 1.2-1.2 1.2z"/>
  <path fill="#116FFF" d="M98.1 104.5H8.7a1.2 1.2 0 0 1 0-2.5h89.4a1.2 1.2 0 0 1 0 2.5z"/>
  <path fill="#116FFF" d="M98.1 107c-.7 0-1.2-.5-1.2-1.2v-2.5a1.2 1.2 0 1 1 2.5 0v2.5c0 .7-.6 1.2-1.3 1.2zm7.5 0c-.7 0-1.3-.5-1.3-1.2v-2.5a1.2 1.2 0 1 1 2.5 0v2.5c0 .7-.5 1.2-1.2 1.2z"/>
  <path fill="#116FFF" d="M125.5 104.5h-20a1.2 1.2 0 0 1 0-2.5h20a1.2 1.2 0 0 1 0 2.5z"/>
  <path fill="#116FFF" d="M125.5 107c-.7 0-1.3-.5-1.3-1.2v-2.5a1.2 1.2 0 1 1 2.5 0v2.5c0 .7-.6 1.2-1.2 1.2z"/>
</svg>