<svg xmlns="http://www.w3.org/2000/svg" fill="none" viewBox="0 0 103 114">
  <path fill="#D7E9FF" d="M98.6 88.2V90l1.7 5.3-3.5 5.3-3.6-5.3L95 90v-1.8h3.6z"/>
  <path fill="#fff" d="M96.8 97L94 93l-.8 2.3 3.6 5.3 3.5-5.3-.8-2.4-2.7 4.2z"/>
  <path fill="#5C9EFF" d="M100.3 77.5v10.7h-7.1V77.5h7.1z"/>
  <path fill="#94C1FF" d="M100.3 74h-7v3.5h7v-3.6z"/>
  <path fill="#5C9EFF" d="M102.1 29.4l-1.8 44.5h-7l-1.8-44.5c0-4 1.4-7.1 5.3-7.1h.2c3.7 0 5.1 3.2 5.1 7z"/>
  <path fill="#94C1FF" d="M95 74l-1.8-44.6c0-3.6 1.2-6.6 4.5-7l-.7-.1h-.2c-4 0-5.3 3.2-5.3 7L93.2 74v14.2H95V73.9z"/>
  <path fill="#2287FF" d="M98.5 74l1.8-44.6c0-3.6-1.2-6.6-4.4-7l.7-.1h.2c3.9 0 5.3 3.2 5.3 7L100.3 74v14.2h-1.8V73.9z"/>
  <path fill="#94C1FF" d="M98.6 88.2H95V90h3.6v-1.8z"/>
  <path fill="#fff" d="M80.8 8H.8v98h80V8z"/>
  <path fill="#D7E9FF" d="M23 38.3a5.3 5.3 0 1 1-10.6 0 5.3 5.3 0 0 1 10.7 0zm0 23.2a5.3 5.3 0 1 1-10.6 0 5.3 5.3 0 0 1 10.7 0zm0 23.1a5.3 5.3 0 1 1-10.6 0 5.3 5.3 0 0 1 10.7 0zM80.8 106H.8v7.1h80V106z"/>
  <path fill="#5C9EFF" d="M9.8.9C8.8.9 8 1.7 8 2.7v10.7a1.8 1.8 0 1 0 3.5 0V2.7c0-1-.8-1.8-1.7-1.8z"/>
  <path fill="#2287FF" d="M9.8 13.4c-1 0-1.8-.8-1.8-1.8v1.8a1.8 1.8 0 1 0 3.5 0v-1.8c0 1-.8 1.8-1.7 1.8z"/>
  <path fill="#5C9EFF" d="M22.2.9c-1 0-1.8.8-1.8 1.8v10.7a1.8 1.8 0 1 0 3.6 0V2.7c0-1-.8-1.8-1.8-1.8zm12.4 0c-1 0-1.7.8-1.7 1.8v10.7a1.8 1.8 0 1 0 3.5 0V2.7c0-1-.8-1.8-1.8-1.8zM47 .9c-1 0-1.7.8-1.7 1.8v10.7a1.8 1.8 0 1 0 3.5 0V2.7c0-1-.8-1.8-1.7-1.8zm12.5 0c-1 0-1.8.8-1.8 1.8v10.7a1.8 1.8 0 1 0 3.6 0V2.7c0-1-.8-1.8-1.8-1.8zM72 .9c-1 0-1.9.8-1.9 1.8v10.7a1.8 1.8 0 1 0 3.6 0V2.7c0-1-.8-1.8-1.8-1.8z"/>
  <path fill="#2287FF" d="M22.2 13.4c-1 0-1.8-.8-1.8-1.8v1.8a1.8 1.8 0 1 0 3.6 0v-1.8c0 1-.8 1.8-1.8 1.8zm12.4 0c-1 0-1.7-.8-1.7-1.8v1.8a1.8 1.8 0 1 0 3.5 0v-1.8c0 1-.8 1.8-1.8 1.8zm12.4 0c-1 0-1.7-.8-1.7-1.8v1.8a1.8 1.8 0 1 0 3.5 0v-1.8c0 1-.8 1.8-1.7 1.8zm12.5 0c-1 0-1.8-.8-1.8-1.8v1.8a1.8 1.8 0 1 0 3.6 0v-1.8c0 1-.8 1.8-1.8 1.8zm12.5 0c-1 0-1.9-.8-1.9-1.8v1.8a1.8 1.8 0 1 0 3.6 0v-1.8c0 1-.8 1.8-1.8 1.8z"/>
  <path fill="#94C1FF" d="M9.8 2.7c1 0 1.7.8 1.7 1.8V2.7a1.8 1.8 0 1 0-3.5 0v1.8c0-1 .8-1.8 1.8-1.8zm12.4 0c1 0 1.8.8 1.8 1.8V2.7a1.8 1.8 0 1 0-3.6 0v1.8c0-1 .8-1.8 1.8-1.8zm12.4 0c1 0 1.8.8 1.8 1.8V2.7a1.8 1.8 0 1 0-3.5 0v1.8c0-1 .7-1.8 1.7-1.8zm12.4 0c1 0 1.8.8 1.8 1.8V2.7a1.8 1.8 0 1 0-3.5 0v1.8c0-1 .8-1.8 1.8-1.8zm12.5 0c1 0 1.8.8 1.8 1.8V2.7a1.8 1.8 0 1 0-3.6 0v1.8c0-1 .8-1.8 1.8-1.8zm12.5 0c.9 0 1.7.8 1.7 1.8V2.7a1.8 1.8 0 1 0-3.6 0v1.8c0-1 .8-1.8 1.8-1.8z"/>
  <path fill="#D7E9FF" d="M95 74h-1.8v3.5H95v-3.6z"/>
  <path fill="#5C9EFF" d="M100.3 74h-1.7v3.5h1.7v-3.6z"/>
  <path fill="#116FFF" d="M80.8 106.9H.8a.9.9 0 0 1-.8-1V8c0-.5.4-.9.9-.9h5.3a.9.9 0 0 1 0 1.8H1.8v96.2h78.1V8.9h-4.4a.9.9 0 0 1 0-1.8h5.3c.5 0 .9.4.9 1V106c0 .5-.4.9-.9.9z"/>
  <path fill="#116FFF" d="M68.4 9H63a.9.9 0 0 1 0-2h5.4a.9.9 0 0 1 0 1.8zM56 9h-5.4a.9.9 0 0 1 0-1.9H56A.9.9 0 0 1 56 9zM43.5 9h-5.3a.9.9 0 0 1 0-1.9h5.3a.9.9 0 0 1 0 1.8zM31 9h-5.3a.9.9 0 0 1 0-1.9h5.4A.9.9 0 0 1 31 9zM18.6 9h-5.3a.9.9 0 0 1 0-1.9h5.3a.9.9 0 0 1 0 1.8zm62.2 101.4H.8a.9.9 0 0 1 0-1.7h80a.9.9 0 0 1 0 1.7zm0 3.6H.8a.9.9 0 0 1 0-1.8h80a.9.9 0 0 1 0 1.8z"/>
  <path fill="#116FFF" d="M9.8 16A2.7 2.7 0 0 1 7 13.4V2.7A2.8 2.8 0 0 1 9.8 0c1.4 0 2.6 1.2 2.6 2.7v10.7c0 1.4-1.2 2.6-2.6 2.6zm0-14.2c-.5 0-1 .4-1 .9v10.7c0 .5.5.9 1 .9s.9-.4.9-1V2.8c0-.5-.4-1-1-1zM22.2 16a2.7 2.7 0 0 1-2.7-2.6V2.7c0-1.5 1.2-2.7 2.7-2.7 1.5 0 2.7 1.2 2.7 2.7v10.7c0 1.4-1.2 2.6-2.7 2.6zm0-14.2c-.5 0-.9.4-.9.9v10.7c0 .5.4.9.9.9s.9-.4.9-1V2.8c0-.5-.4-1-.9-1zM34.6 16a2.7 2.7 0 0 1-2.6-2.6V2.7C32 1.2 33.2 0 34.6 0c1.5 0 2.7 1.2 2.7 2.7v10.7c0 1.4-1.2 2.6-2.7 2.6zm0-14.2c-.5 0-.9.4-.9.9v10.7c0 .5.4.9 1 .9.4 0 .8-.4.8-1V2.8c0-.5-.4-1-.9-1zM47 16a2.7 2.7 0 0 1-2.6-2.6V2.7c0-1.5 1.2-2.7 2.7-2.7 1.4 0 2.6 1.2 2.6 2.7v10.7c0 1.4-1.2 2.6-2.6 2.6zm0-14.2c-.4 0-.8.4-.8.9v10.7c0 .5.4.9.9.9s.8-.4.8-1V2.8c0-.5-.3-1-.8-1zM59.5 16a2.7 2.7 0 0 1-2.7-2.6V2.7C56.8 1.2 58 0 59.5 0c1.5 0 2.7 1.2 2.7 2.7v10.7c0 1.4-1.2 2.6-2.7 2.6zm0-14.2c-.5 0-.9.4-.9.9v10.7c0 .5.4.9.9.9s.9-.4.9-1V2.8c0-.5-.4-1-1-1zM72 16a2.7 2.7 0 0 1-2.7-2.6V2.7c0-1.5 1.2-2.7 2.6-2.7 1.5 0 2.7 1.2 2.7 2.7v10.7c0 1.4-1.2 2.6-2.7 2.6zm0-14.2c-.6 0-1 .4-1 .9v10.7c0 .5.4.9 1 .9.4 0 .8-.4.8-1V2.8c0-.5-.4-1-.9-1zm24.8 99.7a.9.9 0 0 1-.8-.4l-3.5-5.3a.9.9 0 0 1-.1-.8l1.7-5.2v-1.6a.9.9 0 1 1 1.8 0v2l-1.7 5 3.3 5a.9.9 0 0 1-.7 1.3z"/>
  <path fill="#116FFF" d="M96.8 101.5a.9.9 0 0 1-.8-1.4l3.4-5-1.7-4.9v-2a.9.9 0 1 1 1.7 0v1.6l1.8 5.2-.1.8-3.6 5.3c-.1.3-.4.4-.7.4zm3.5-26.7h-7a.9.9 0 0 1 0-1.8h7a.9.9 0 0 1 0 1.8z"/>
  <path fill="#116FFF" d="M93.2 74.8a.9.9 0 0 1-.9-.8l-1.7-44.6c0-.5.3-.9.8-.9s1 .4 1 .9L94 73.9c0 .5-.3.9-.8 1zm7.1 0a.9.9 0 0 1-.9-1l1.8-44.4c0-.5.5-1 1-.9.4 0 .8.4.8 1L101.2 74c0 .4-.4.8-.9.8z"/>
  <path fill="#116FFF" d="M102.1 30.3a.9.9 0 0 1-.9-1c0-4-1.5-6.1-4.4-6.1-3 0-4.5 2-4.5 6.2a.9.9 0 1 1-1.7 0c0-5.1 2.2-8 6.2-8s6.2 2.9 6.2 8c0 .5-.4.9-.9.9z"/>
  <path fill="#116FFF" d="M98.6 23.2H95a.9.9 0 0 1 0-1.8h3.6a.9.9 0 0 1 0 1.8zm-1.8 30.2a.9.9 0 0 1-.9-.9V25.8a.9.9 0 1 1 1.8 0v26.7c0 .5-.4 1-1 1zm3.5 25h-7a.9.9 0 0 1 0-1.8h7a.9.9 0 0 1 0 1.8z"/>
  <path fill="#116FFF" d="M100.3 78.4a.9.9 0 0 1-.9-1V74a.9.9 0 1 1 1.8 0v3.6c0 .5-.4.9-.9.9zm-7.1 0a.9.9 0 0 1-.9-1V74a.9.9 0 1 1 1.8 0v3.6c0 .5-.4.9-.9.9zm7.1 10.6h-7a.9.9 0 0 1 0-1.7h7a.9.9 0 0 1 0 1.8z"/>
  <path fill="#116FFF" d="M100.3 89a.9.9 0 0 1-.9-.8V77.5a.9.9 0 1 1 1.8 0v10.7c0 .5-.4.9-.9.9zm-7.1 0a.9.9 0 0 1-.9-.8V77.5a.9.9 0 1 1 1.8 0v10.7c0 .5-.4.9-.9.9zM16.9 41a1 1 0 0 1-.7-.3l-3.5-3.6a.9.9 0 0 1 0-1.2c.3-.4.9-.4 1.2 0l3.6 3.5a.9.9 0 0 1-.6 1.6z"/>
  <path fill="#116FFF" d="M16.9 41a1 1 0 0 1-.7-.3.9.9 0 0 1 0-1.3l7.1-7c.4-.4 1-.4 1.3 0 .3.3.3.8 0 1.2l-7.1 7.1-.6.3zm0 23.1c-.3 0-.5 0-.7-.2l-3.5-3.6a.9.9 0 0 1 0-1.3 1 1 0 0 1 1.2 0l3.6 3.6a.9.9 0 0 1-.6 1.5z"/>
  <path fill="#116FFF" d="M16.9 64.1c-.3 0-.5 0-.7-.2a.9.9 0 0 1 0-1.3l7.1-7.1c.4-.4 1-.4 1.3 0 .3.3.3.9 0 1.2L17.5 64l-.6.2zM68.4 32H32.9a.9.9 0 0 1 0-1.7h35.5a.9.9 0 0 1 0 1.8zm0 5.4H32.9a.9.9 0 0 1 0-1.8h35.5a.9.9 0 0 1 0 1.8zm-17.8 5.4H33a.9.9 0 0 1 0-1.8h17.7a.9.9 0 0 1 0 1.8zm17.8 12.4H32.9a.9.9 0 0 1 0-1.8h35.5a.9.9 0 0 1 0 1.8zm0 5.4H32.9a.9.9 0 0 1 0-1.8h35.5a.9.9 0 0 1 0 1.8zM50.6 66H33a.9.9 0 0 1 0-1.9h17.7a.9.9 0 0 1 0 1.8zM16.9 87.3a1 1 0 0 1-.7-.3l-3.5-3.5a.9.9 0 0 1 0-1.3 1 1 0 0 1 1.2 0l3.6 3.6a.9.9 0 0 1-.6 1.5z"/>
  <path fill="#116FFF" d="M16.9 87.3a1 1 0 0 1-.7-.3.9.9 0 0 1 0-1.2l7.1-7.2c.4-.3 1-.3 1.3 0 .3.4.3 1 0 1.3L17.5 87l-.6.3zm51.5-8.9H32.9a.9.9 0 0 1 0-1.8h35.5a.9.9 0 0 1 0 1.8zm0 5.3H32.9a.9.9 0 0 1 0-1.8h35.5a.9.9 0 0 1 0 1.8zM50.6 89H33a.9.9 0 0 1 0-1.7h17.7a.9.9 0 0 1 0 1.8z"/>
</svg>