<svg xmlns="http://www.w3.org/2000/svg" fill="none" viewBox="0 0 88 115">
  <path fill="#D7E9FF" d="M44 101.5v5.4h-7.2v-5.4c0-1 .8-1.8 1.8-1.8v-9h3.6v9c1 0 1.8.8 1.8 1.8z"/>
  <path fill="#94C1FF" d="M80 44A39.5 39.5 0 1 1 .8 44a39.5 39.5 0 0 1 79 0z"/>
  <path fill="#D7E9FF" d="M2.8 56a39.3 39.3 0 0 1 2.8-30.7c1.7 2 3.7 8.4 3.8 8.9l1.5 6.4C11.6 44.2 12 49 9.5 52c-.5.7-2.8 3.4-6.7 4zm64.9-40.6c8 7.7 12.5 18.5 12.2 29.7-1.6-.5-6 .3-6.4 1-2.2 3.8-7.7-4.9-10.3-3.4-1.4 1-1 6 6.5 8.6 2.3.8-5.8 6.7-8.4 8.5-3 2.4-4.2 6.3-7.2 8.6-1.9 1.5-4.3 2.2-6.4 3.3-2.7 1.3-5.6 2.4-8.4 1-2-1-1.8-3.6-1.6-5.4.7-4.2 2.8-8 3.4-12.4.7-5.1-3.4-6.3-7.3-8-4.6-2-6.3-6.3-4.5-11 4.5-11.6 14.6-8.7 15.6-8 1.5.9 5.8 3.7 6.7 4.9 3 3.8 8.4 2.5 8.8.8.3-1.7-8.6-8.2-12-10-1.2-.6-4.2-.6-4.7-2-.5-1.3.8-2.3 1.7-2.8 6-3.5 13-2 19.6-2.3.2 0 1.9-.1 2.7-1.1z"/>
  <path fill="#D7E9FF" d="M23.6 83.7A43.1 43.1 0 1 0 57.3 4.3l1-3.4A46.7 46.7 0 1 1 22.2 87l1.5-3.3z"/>
  <path fill="#94C1FF" d="M71 114.1H9.9c0-4 3.2-7.2 7.2-7.2h46.7c4 0 7.2 3.2 7.2 7.2z"/>
  <path fill="#D7E9FF" d="M20.7 107H17a7 7 0 0 0-7.2 7.1h3.6c0-4 3.2-7.2 7.2-7.2z"/>
  <path fill="#5C9EFF" d="M60.2 107h3.6a7 7 0 0 1 7.2 7.1h-3.6c0-4-3.2-7.2-7.2-7.2z"/>
  <path fill="#D7E9FF" d="M6.3 44C6.3 23.1 22.5 6 43 4.6l-2.7-.1a39.5 39.5 0 1 0 2.7 79A39.5 39.5 0 0 1 6.3 44z"/>
  <path fill="#fff" d="M2.8 56c2-.4 3.6-1.3 4.7-2.2a39.5 39.5 0 0 1 1-22.5 23 23 0 0 0-2.9-6c-.6 1-1 2.2-1.6 3.3a39.6 39.6 0 0 0-3 13.7v.3c-.2 4.6.4 9 1.8 13.4z"/>
  <path fill="#5C9EFF" d="M74.5 44c0-20.9-16.2-38-36.8-39.4l2.7-.1a39.5 39.5 0 1 1-2.7 79A39.5 39.5 0 0 0 74.5 44z"/>
  <path fill="#94C1FF" d="M79.7 40l-.2-1.7v-.5a39.8 39.8 0 0 0-.8-3.3l-.2-.8c0-.4-.2-.7-.3-1 0-.4-.2-.7-.3-1l-.3-1-.4-1-.3-.8-.4-.8-.5-1-.1-.4c-2-4.2-4.9-8-8.2-11.2-.9 1-2.5 1.1-2.7 1.1h-1.6A39.4 39.4 0 0 1 74.5 44v1.6c1.4-.5 4.1-.8 5.4-.5v-1c0-1.4 0-2.7-.2-4z"/>
  <path fill="#116FFF" d="M38.6 100.6a.9.9 0 0 1-.9-.9v-9a.9.9 0 1 1 1.8 0v9c0 .5-.4 1-.9 1zm3.6 0a.9.9 0 0 1-.9-.9v-9a.9.9 0 1 1 1.8 0v9c0 .5-.4 1-.9 1z"/>
  <path fill="#116FFF" d="M36.8 102.4a.9.9 0 0 1-.9-.9c0-1.5 1.2-2.7 2.7-2.7a.9.9 0 1 1 0 1.8c-.5 0-.9.4-.9 1 0 .4-.4.8-.9.8zm7.2 0a.9.9 0 0 1-.9-.9c0-.5-.4-.9-.9-.9a.9.9 0 1 1 0-1.8c1.5 0 2.7 1.2 2.7 2.7 0 .5-.4 1-.9 1z"/>
  <path fill="#116FFF" d="M36.8 107.8a.9.9 0 0 1-.9-.9v-5.4a.9.9 0 1 1 1.8 0v5.4c0 .5-.4 1-.9 1zm7.2 0a.9.9 0 0 1-.9-.9v-5.4a.9.9 0 1 1 1.8 0v5.4c0 .5-.4 1-.9 1zM9.9 115a.9.9 0 0 1-1-.9 8 8 0 0 1 8.2-8 .9.9 0 1 1 0 1.7 6.3 6.3 0 0 0-6.3 6.3c0 .5-.4.9-1 .9zm61.1 0a.9.9 0 0 1-1-.9c0-3.5-2.8-6.3-6.2-6.3a.9.9 0 1 1 0-1.8 8 8 0 0 1 8 8.1c0 .5-.3.9-.8.9z"/>
  <path fill="#116FFF" d="M63.8 107.8H17a.9.9 0 1 1 0-1.8h46.7a.9.9 0 1 1 0 1.8zM71 115H9.9a.9.9 0 1 1 0-1.8h61a.9.9 0 1 1 0 1.8zM40.4 84.5A40.2 40.2 0 0 1 2 56.2a40.4 40.4 0 1 1 38.5 28.3zm0-79.1A38.5 38.5 0 0 0 3.6 55.7 38.6 38.6 0 1 0 40.4 5.4z"/>
  <path fill="#116FFF" d="M40.4 88c-5.8 0-11.6-1.1-17.2-3.5A.9.9 0 0 1 24 83a42 42 0 0 0 55.4-22.4c9-21.4-1-46.2-22.4-55.3a.9.9 0 0 1 .7-1.7 44 44 0 0 1-17.2 84.6z"/>
  <path fill="#116FFF" d="M40.4 91.6h-1.8a47 47 0 0 1-16.8-3.7.9.9 0 0 1 .7-1.7 45.3 45.3 0 0 0 19.7 3.6A46 46 0 0 0 58 1.8a.9.9 0 0 1 .7-1.7 47.8 47.8 0 0 1-18.3 91.5z"/>
  <path fill="#116FFF" d="M42.1 74.2a7 7 0 0 1-3.3-.8c-1.2-.7-2.6-2.3-2-6.2a39 39 0 0 1 1.7-6.1c.7-2 1.4-4.2 1.7-6.3.5-3.8-1.8-5-5.7-6.7l-1-.4c-5-2.2-7-6.9-5-12.1 1.8-4.7 4.6-7.7 8.4-8.9 3.8-1.2 7.6-.2 8.5.4 2.8 1.8 6 4 7 5.1a5.7 5.7 0 0 0 5.6 2c1-.2 1.5-.6 1.5-.8-.3-1.3-7.7-7-11.5-9l-1.5-.4c-1.4-.3-3.2-.7-3.7-2.2-.5-1.3.3-2.7 2.1-3.8a28 28 0 0 1 14.7-2.4H65c.9 0 1.7-.4 2-.8a.9.9 0 0 1 1.4 1.2c-1 1-2.5 1.3-3.3 1.4h-5.5c-5-.1-9.6-.2-13.8 2.2-.7.4-1.5 1.1-1.3 1.6.2.5 1.5.8 2.4 1 .8.2 1.4.3 2 .6 1.5.8 13 8.1 12.4 11-.2 1-1.3 1.8-2.9 2.2-2 .5-5.3.1-7.5-2.7-.5-.7-2.7-2.2-6.5-4.7-.5-.3-3.8-1.2-7-.1-3.3 1-5.7 3.7-7.2 7.7-1.7 4.3-.2 8 4 9.8l1 .5c3.5 1.5 7.5 3.2 6.8 8.5-.3 2.3-1 4.5-1.7 6.6-.7 2-1.3 3.9-1.7 5.9-.2 1.6-.3 3.6 1 4.3 2.6 1.3 5.1.3 7.7-1l2.2-1c1.5-.6 2.9-1.1 4-2 1.4-1.2 2.4-2.6 3.4-4 1-1.7 2.2-3.4 3.9-4.7l.6-.4c5.5-4.1 7.2-5.9 7.7-6.7-5-1.8-7.2-4.9-7.4-7.2-.1-1.3.3-2.4 1-2.8 1.8-1 3.8.5 5.7 2 1.3 1 3 2.3 3.7 2.2.1 0 .4-.1.6-.5.8-1.3 5.7-2 7.5-1.5a.9.9 0 0 1-.5 1.8c-1.4-.4-5 .3-5.5.7-.4.6-1 1-1.7 1.2-1.7.3-3.4-1-5.2-2.4-1.2-1-3-2.4-3.6-2-.1 0-.3.4-.2 1.1.2 1.7 2 4.3 6.4 5.8.6.2 1 .6 1 1.2.3 1.5-1.9 3.6-8.4 8.5l-.6.5c-1.5 1-2.5 2.5-3.5 4.1-1 1.6-2.1 3.2-3.7 4.4-1.4 1.1-3 1.8-4.5 2.4l-2.1 1c-1.8.9-3.9 1.7-6 1.7zM2.8 56.9a.9.9 0 0 1-.2-1.8c3.5-.7 5.7-3 6.2-3.7 1.8-2.2 2.2-5.8 1.2-10.6l-.8-3.5-.7-3A35 35 0 0 0 5 26a.9.9 0 1 1 1.4-1.2A36.4 36.4 0 0 1 10.9 37l.9 3.6c1 5.3.6 9.4-1.6 12A12.5 12.5 0 0 1 2.8 57zm19.4 31h-.4a.9.9 0 0 1-.5-1.3l1.4-3.2c.2-.5.8-.7 1.2-.5.5.2.7.7.5 1.2L23 87.3c-.1.4-.5.6-.8.6zM57.3 5.2H57a.9.9 0 0 1-.6-1.1L57.5.6c.2-.5.7-.7 1.2-.6.4.2.7.7.5 1.2l-1 3.4c-.2.4-.6.6-1 .6z"/>
</svg>