<svg xmlns="http://www.w3.org/2000/svg" viewBox="0 0 1706.7 1066.7">
  <defs>
    <clipPath id="a">
      <path d="M.5.2h1279V800H.5z"/>
    </clipPath>
    <clipPath id="b">
      <path d="M-1 1051.8h1281.3V-241.9H-1z"/>
    </clipPath>
  </defs>
  <g clip-path="url(#a)" transform="matrix(1.33333 0 0 -1.33333 2.3 1066.7)">
    <g clip-path="url(#b)" opacity=".03">
      <path fill="#fff" fill-rule="evenodd" d="M25.2-172.5v-28.2H13.5l-8.3 8.3zm-14.2 50l23.3 9.3 1.7.7.7 1.7L46-87.5l8-20.1 1.1-2.8h20l-12-12-2.1-2.1 1.2-2.8 8.6-19.9-20 8.6-2.6 1.2-2.1-2-12-12-.1 17v3l-2.8 1zm25.7 82.2l-.7 1.8-1.7.7L11-28.6l20.1 8 2.8 1v20l12-12 2.2-2 2.7 1.1 19.9 8.6-8.6-19.9-1.2-2.7 2-2.1 12-12H55l-1-2.8-8-20.2zM5.2 41.4l8.3 8.3h11.7V21.5zM34 49.7h36.9l16-16L75.8 7.8 50-3.3l-16 16zM34 70l8.3 8.3 19.9-20H34zm0 29v11.7h28.2l-20-20zm0 57.4l16 16 25.8-11.1 11.1-25.8-16-16h-37zm-.1 29.3v3L31 190l-20 8 23.3 9.2 1.7.7.7 1.8 9.2 23.3 8-20.2L55 210h20l-12-12.1-2.1-2.1L62 193l8.6-20-20 8.7-2.6 1.1-2.1-2-12-12zm-20.4-66.2L5.2 128l20 19.9v-28.2zM36.7 280l-.7 1.8-1.7.7-23.3 9.2 20.1 8 2.8 1v20l12-12 2.2-2 2.7 1.1 19.9 8.7-8.6-20-1.2-2.7 2-2 12-12.1H55l-1-2.8-8-20.2zM5.2 361.7l8.3 8.3h11.7v-28.2zM34 370h36.9l16-16-11.1-25.8L50 317l-16 16.1zm0 20.5l8.3 8.3 19.9-20H34zm0 29v11.7h28.2l-20-20zm0 57.3l16 16 25.8-11L86.9 456l-16-16.2-37 .1zm-.1 29.4v3l-2.8 1-20.1 8 23.3 9.2 1.7.7.7 1.8 9.2 23.3 8-20.2 1.1-2.7h20l-12-12.1-2.1-2.1 1.2-2.7 8.6-20-20 8.7-2.6 1.2-2.1-2.1-12-12zm-20.4-66.3l-8.3 8.3 20 20v-28.3zm23.2 160.4l-.7 1.8-1.7.7L11 612l20.1 8 2.8 1v20l12-12 2.2-2 2.7 1.1 19.9 8.7-8.6-20-1.2-2.7 2-2L75 600H55l-1-2.8-8-20.1zM5.2 682l8.3 8.3h11.7v-28.2zm28.8 8.3h36.9l16-16-11.1-25.8L50 637.4l-16 16zm0 20.5l8.3 8.3 19.9-20H34zm0 29v11.7h28.2l-20-20zm0 57.3l16 16 25.8-11 11.1-25.8-16-16.1h-37zm-.1 29.4v3l-2.8 1-20.1 8 23.3 9.2 1.7.7.7 1.8 9.2 23.3 8-20.2 1.1-2.7h20l-12-12-2.1-2.2 1.2-2.7 8.6-20-20 8.7-2.6 1.2-2.1-2.1-12-12zm-20.4-66.2l-8.3 8.2 20 20v-28.3zm23.2 160.4l-.7 1.7-1.7.7-23.3 9.3 20.1 8 2.8 1v20l12-12 2.2-2.1 2.7 1.2 19.9 8.6-8.6-20-1.2-2.7 2-2 12-12-17-.1H55l-1-2.8-8-20.1zm-31.5 81.6l8.3 8.3h11.7v-28.2zm28.8 8.4h36.9l16-16.1-11.1-25.8L50 957.7l-16 16zm0 20.4l8.3 8.3 19.9-20H34zm66.2-20.4h3l1.1 2.8 8 20.2 9.2-23.3.7-1.8 1.8-.7 23.3-9.2-20.2-8-2.8-1v-20l-12 12-2.1 2-2.7-1.1-20-8.7 8.7 20 1.1 2.7-2 2-12 12.1zm85.1-27v-22.8l-26.1-26-26.1 26v22.7l26.1 10.4zm9.1 24.2l1.8.7.7 1.8 9.2 23.3 8-20.2 1-2.8h20l-12-12-2-2.1 1.1-2.7 8.7-20-20 8.7-2.7 1.1-2-2-12.1-12v20l-2.8 1-20.2 8zm53.1 2.8h36.9v-37l-16-16-25.8 11.1-11.2 25.8zm28.6 28.7l8.3-8.3v-11.7h-28.2zm8.4-95v-3l2.8-1 20.1-8-23.3-9.3-1.8-.7-.6-1.7-9.2-23.3-8 20.1-1.1 2.8h-20l12 12 2.1 2.1-1.2 2.8-8.6 20 20-8.7 2.6-1.2 2.1 2 12 12zm20.4 66.2l8.3-8.3-20-19.9v28.2zm40.6-40.5v-22.7L319.4 937l-26.2 10.3V970l26.2 26zm-11.6 40.5h11.7v-28.2l-20 20zm17.6-70.3l2.7 1.1v20l12-12 2.2-2.1 2.7 1.2 20 8.6-8.7-20-1.2-2.7 2.1-2 12-12-17-.1h-3l-1-2.8-8-20.1-9.2 23.3-.7 1.7-1.8.7-23.3 9.3zm2.8 70.4h37l16-16.1-11.2-25.8-25.7-11.1-16.2 16zm0 20.4l8.3 8.3 19.9-20h-28.2zm66.3-20.4h3l1 2.8 8 20.2 9.2-23.3.7-1.8 1.8-.7 23.3-9.2-20.2-8-2.7-1v-20l-12.1 12-2.1 2-2.7-1.1-20-8.7 8.7 20 1.2 2.7-2.1 2-12 12.1zm85-27v-22.8l-26-26-26.2 26v22.7l26.1 10.4zm9.1 24.2l1.8.7.7 1.8 9.2 23.3 8-20.2 1-2.8h20l-12-12-2-2.1 1.2-2.7 8.6-20-20 8.7-2.7 1.1-2-2-12.1-12v20l-2.8 1-20.1 8zm53.1 2.8h37v-37l-16.1-16-25.8 11.1-11.1 25.8zm28.6 28.7l8.3-8.3v-11.7h-28.2zm8.4-95v-3l2.8-1 20.1-8-23.3-9.3-1.7-.7-.7-1.7-9.2-23.3-8 20.1-1 2.8h-20l12 12 2 2.1-1.2 2.8-8.6 20 20-8.7 2.7-1.2 2 2 12.1 12zm20.4 66.2l8.3-8.3-20-19.9v28.2zm40.6-40.5v-22.7L639.7 937l-26.1 10.3V970l26 26zm-11.6 40.5h11.7v-28.2l-20 20zm17.6-70.3l2.7 1.1v20l12.1-12 2.1-2.1 2.7 1.2 20 8.6-8.7-20-1.2-2.7 2.1-2 12-12-17-.1h-3l-1-2.8-8-20.1-9.2 23.3-.7 1.7-1.8.7-23.3 9.3zm2.8 70.4h37l16-16.1-11.2-25.8-25.7-11.1-16.1 16zm0 20.4l8.3 8.3 20-20h-28.3zm66.3-20.4h3l1 2.8 8 20.2 9.2-23.3.7-1.8 1.8-.7 23.3-9.2-20.1-8-2.8-1v-20l-12 12-2.2 2-2.7-1.1-20-8.7 8.7 20 1.2 2.7-2.1 2-12 12.1zm85-27v-22.8l-26-26-26.2 26v22.7l26.1 10.4zm9.2 24.2l1.7.7.7 1.8 9.3 23.3 8-20.2 1-2.8h20l-12-12-2.1-2.1 1.2-2.7 8.6-20-20 8.7-2.6 1.1-2.1-2-12-12-.1 17v3l-2.8 1-20.1 8zm53 2.8h37v-37l-16.1-16-25.8 11.1-11.1 25.8zm28.7 28.7l8.2-8.3v-11.7h-28.2zm8.4-95v-3l2.7-1 20.2-8-23.3-9.3-1.8-.7-.7-1.7-9.2-23.3-8 20.1-1 2.8h-20l12 12 2 2.1-1.1 2.8-8.7 20 20-8.7 2.7-1.2 2 2 12.1 12zm20.3 66.2l8.3-8.3-20-19.9v28.2zm40.6-40.5v-22.7L960 937l-26.1 10.3V970l26.1 26zm-11.6 40.5h11.7v-28.2l-20 20zm17.6-70.3l2.7 1.1v20l12.1-12 2.1-2.1 2.7 1.2 20 8.6-8.7-20-1.1-2.7 2-2 12-12-17-.1h-3l-1-2.8-8-20.1-9.2 23.3-.7 1.7-1.8.7-23.3 9.3zm2.9 70.4h36.9l16-16.1-11.1-25.8-25.8-11.1-16.1 16zm0 20.4l8.2 8.3 20-20H995zm66.2-20.4h3l1 2.8 8 20.2 9.3-23.3.7-1.8 1.7-.7 23.3-9.2-20.1-8-2.8-1v-20l-12 12-2.2 2-2.7-1.1-20-8.7 8.7 20 1.2 2.7-2 2-12.1 12.1h17zm85-27l.1-22.8-26.1-26-26.2 26v22.7l26.2 10.4zm9.2 24.2l1.8.7.7 1.8 9.2 23.3 8-20.2 1-2.8h20l-12-12-2-2.1 1.1-2.7 8.6-20-19.9 8.7-2.7 1.1-2.1-2-12-12v17l-.1 3-2.8 1-20.1 8 23.3 9.2zm53 2.8h37v-37l-16-16-25.8 11.1-11.2 25.8zm28.7 28.7l8.2-8.3v-11.7h-28.1zm8.4-95v-3l2.7-1 20.2-8-23.3-9.3-1.8-.7-.7-1.7-9.2-23.3-8 20.1-1 2.8h-20l12 12 2 2.1-1.1 2.8-8.6 20 19.9-8.7 2.7-1.2 2.1 2 12 12zm20.3 66.2l8.3-8.3-20-19.9v28.2zm-23.2-160.4l.7-1.8 1.8-.7 23.3-9.2-20.2-8-2.7-1v-20l-12.1 12-2.1 2-2.7-1.1-20-8.6 8.7 19.9 1.2 2.7-2.1 2.1-12 12h20l1 2.8 8 20.2zm31.5-81.7l-8.3-8.2h-11.7v28.1zm-28.7-8.3h-37l-16 16 11.2 25.8 25.7 11.2 16.1-16zm0-20.4l-8.3-8.3-20 20h28.3zm0-29V699h-28.2l19.9 20zm0-57.4l-16-16-25.8 11.1-11.2 25.8 16 16h37zm0-29.3v-3l2.8-1.1 20.2-8-23.3-9.2-1.8-.7-.7-1.8-9.2-23.2-8 20.1-1 2.8h-20l12 12 2 2.1-1.1 2.8-8.6 19.9 19.9-8.7 2.7-1.1 2.1 2 12 12zm20.4 66.2l8.3-8.3-20-19.9v28.2zm-23.2-160.4l.7-1.8 1.8-.7 23.3-9.2-20.2-8-2.7-1v-20l-12.1 12-2.1 2-2.7-1.1-20-8.7 8.7 20 1.2 2.7-2.1 2-12 12.1h20l1 2.8 8 20.2zm31.5-81.7l-8.3-8.3h-11.7v28.2zm-28.7-8.3h-37l-16 16 11.2 25.8 25.7 11.2 16.1-16zm0-20.4l-8.3-8.3-20 20h28.3zm0-29v-11.8l-28.2.1 19.9 20zm0-57.4l-16-16-25.8 11.1-11.2 25.8 16 16h37zm0-29.3v-3l2.8-1.1 20.2-8-23.3-9.2-1.8-.7-.7-1.8-9.2-23.3-8 20.2-1 2.7h-20l12 12.1 2 2.1-1.1 2.7-8.6 20 19.9-8.7 2.7-1.1 2.1 2 12 12zm20.4 66.2l8.3-8.3-20-19.9V370zm-23.2-160.4l.7-1.8 1.8-.7 23.3-9.2-20.2-8-2.7-1v-20l-12.1 12-2.1 2-2.7-1.1-20-8.7 8.7 20 1.2 2.7-2.1 2-12 12.1h20l1 2.8 8 20.2zm31.5-81.7l-8.3-8.3h-11.7v28.2zm-28.7-8.3h-37l-16 16 11.2 25.8 25.7 11.2 16.1-16.1zm0-20.5l-8.3-8.3-20 20h28.3zm0-29V58.4h-28.2l19.9 20zm0-57.3l-16-16-25.8 11-11.2 25.8 16 16.1h37zm0-29.4v-3l2.8-1 20.2-8-23.3-9.2-1.8-.7-.7-1.8-9.2-23.3-8 20.2-1 2.7h-20l12 12.1 2 2-1.1 2.8-8.6 20 19.9-8.7 2.7-1.2 2.1 2.1 12 12zm20.4 66.3l8.3-8.3-20-20v28.3zm-23.2-160.5l.7-1.7 1.8-.7 23.3-9.2-20.2-8-2.7-1v-20l-12.1 12-2.1 2-2.7-1.2-20-8.6 8.7 20 1.2 2.7-2.1 2-12 12.1h20l1 2.8 8 20.1zm31.5-81.6l-8.3-8.3h-11.7v28.2zm-28.7-8.3h-37l-16 16 11.2 25.8 25.7 11.1 16.1-16zm0-20.5l-8.3-8.3-20 20h28.3zm-66.3 20.4h-3l-1-2.8-8-20.2-9.2 23.3-.7 1.8-1.8.7-23.3 9.2 20.2 8 2.7 1v20l12-12 2.2-2 2.7 1.1 20 8.7-8.7-20-1.2-2.7 2.1-2 12-12.1h-17zm-85 27v22.8l26 26 26.2-26v-22.7l-26.1-10.4zm-9.2-24.2l-1.7-.7-.7-1.8-9.3-23.3-8 20.2-1 2.8h-20l12 12 2.1 2.1-1.2 2.8-8.6 19.9 20-8.7 2.6-1.1 2.1 2 12 12 .1-17v-3l2.8-1 20.1-8-23.3-9.2zm-53-2.8h-37v37l16.1 16 25.8-11.1 11.1-25.8zm-28.7-28.7l-8.2 8.3v11.7h28.2zm-8.4 95v3l-2.7 1.1-20.2 8 23.3 9.2 1.8.7.7 1.7 9.2 23.3 8-20.1 1-2.8h20l-12-12-2-2.1 1.1-2.8 8.7-19.9-20 8.6-2.7 1.2-2-2-12.1-12zm-20.3-66.2l-8.3 8.3 20 19.9v-28.2zm-40.6 40.5v22.7l26.1 10.3 26.1-10.3v-22.7l-26.1-26zm11.6-40.5h-11.7v28.2l20-20zM928-130.4l-2.7-1v-20l-12.1 12-2.1 2-2.7-1.2-20-8.6 8.7 20 1.1 2.7-2 2-12 12.1h20l1 2.8 8 20.1 9.2-23.3.7-1.7 1.8-.7 23.3-9.2zm-2.8-70.3h-37l-16 16 11.1 25.8 25.8 11.1 16.1-16zm0-20.5l-8.3-8.3-20 20H925zm-66.3 20.4h-3l-1-2.8-8-20.2-9.3 23.3-.7 1.8-1.7.7-23.3 9.2 20.1 8 2.8 1v20l12-12 2.2-2 2.7 1.1 20 8.7-8.7-20-1.2-2.7 2-2 12-12.1zm-85 27l-.1 22.8 26.1 26 26.2-26v-22.7l-26.2-10.4zm-9.2-24.2l-1.8-.7-.7-1.8-9.2-23.3-8 20.2-1 2.8h-20l12 12 2 2.1-1 2.8-8.7 19.9 19.9-8.7 2.7-1.1 2.1 2 12 12v-20l2.9-1 20.1-8zm-53-2.8h-37v37l16 16 25.8-11.1 11.2-25.8zM683-229.5l-8.2 8.3v11.7h28.1zm-8.4 95v3l-2.7 1.1-20.2 8 23.3 9.2 1.8.7.7 1.7 9.2 23.3 8-20.1 1-2.8h20l-12-12-2-2.1 1.1-2.8 8.7-19.9-20 8.6-2.7 1.2-2.1-2-12-12zm-20.3-66.2l-8.3 8.3 20 19.9v-28.2zm-14.5 14.4l-26.2 26.1v22.7l26.2 10.3 26-10.3.1-22.7zm-14.5-14.4h-11.7v28.2l20-20zm-17.6 70.3l-2.8-1v-20l-12 12-2.1 2-2.8-1.2-19.9-8.6 8.6 20 1.2 2.7-2 2-12 12.1h20l1 2.8 8 20.1 9.2-23.3.7-1.7 1.7-.7 23.3-9.2zm-2.9-70.3h-36.9l-16 16 11.1 25.8 25.8 11.1 16-16zm0-20.5l-8.3-8.3-19.9 20h28.2zm-66.2 20.4h-3l-1.1-2.8-8-20.2-9.2 23.3-.7 1.8-1.8.7-23.2 9.2 20.1 8 2.8 1v20l12-12 2.1-2 2.8 1.1 19.9 8.7-8.6-20-1.2-2.7 2-2 12-12.1zm-85 27l-.1 22.8 26.1 26 26.2-26v-22.7l-26.2-10.4zm-9.2-24.2l-1.8-.7-.7-1.8-9.2-23.3-8 20.2-1 2.8h-20l12 12 2 2.1-1.1 2.8-8.7 19.9 20-8.7 2.7-1.1 2 2 12.1 12v-20l2.8-1 20.2-8zm-53-2.8h-37v37l16 16 25.8-11.1 11.2-25.8zm-28.7-28.7l-8.3 8.3v11.7h28.2zm-8.4 95v3l-2.7 1.1-20.2 8 23.3 9.2 1.8.7.7 1.7 9.2 23.3 8-20.1 1-2.8h20l-12-12-2-2.1 1.1-2.8 8.6-19.9-19.9 8.6-2.7 1.2-2.1-2-12-12zM334-200.7l-8.3 8.3 20 19.9v-28.2zm-40.7 40.5v22.7l26.2 10.3 26-10.3.1-22.7-26.1-26zm11.7-40.5h-11.7v28.2l20-20zm-17.6 70.3l-2.8-1v-20l-12 12-2.2 2-2.7-1.2-20-8.6 8.7 20 1.2 2.7-2 2-12.1 12.1h20l1 2.8 8 20.1 9.3-23.3.6-1.7 1.8-.7 23.3-9.2zm-2.9-70.3h-36.9l-16 16 11.1 25.8 25.8 11.1 16-16zm0-20.5l-8.3-8.3-19.9 20h28.2zm-66.2 20.4h-3l-1.1-2.8-8-20.2-9.2 23.3-.7 1.8-1.8.7-23.3 9.2 20.2 8 2.7 1v20l12.1-12 2.1-2 2.7 1.1 20 8.7-8.7-20-1.2-2.7 2.1-2 12-12.1zm-85.1 27v22.8l26.1 26 26.1-26v-22.7l-26.1-10.4zM124-198l-1.8-.7-.7-1.8-9.2-23.3-8 20.2-1 2.8h-20l12 12 2 2.1-1.1 2.8-8.7 19.9 20-8.7 2.7-1.1 2 2 12.1 12v-20l2.8-1 20.2-8zm-36.7 87.6h37v-37l-16.1-16-25.8 11.1-11.1 25.8zm22.5 34.9l-26.1-26.2H61L50.7-75.4l10.3 26 22.7.1zm-1.6 87.9l16.1-16v-37h-37l-16 16L82.4 1.3zm-11 98.3l10.4-26-10.4-26.2H74.5l-26 26.1 26 26.2zM87.3 210h37v-37l-16.1-16-25.8 11-11.1 25.8zm22.5 34.9l-26.1-26.1H61l-10.3 26L61 271h22.7zm-1.6 88l16.1-16.1v-37h-37l-16 16.1 11.1 25.8zm-11 98.3l10.4-26.1-10.4-26.2H74.5l-26 26.2 26 26.1zm-9.9 99.1h37v-37l-16.1-16-25.8 11.2L71.3 514zm22.5 35L83.7 539H61l-10.3 26.1L61 591.2h22.7zm-1.6 87.8l16.1-16v-37h-37l-16 16.1L82.4 642zm-11 98.4l10.4-26.1-10.4-26.1H74.5l-26 26 26 26.2zm-9.9 99.1h37v-37l-16.1-16-25.8 11.2-11.1 25.7zm22.5 35l-26.1-26.2H61l-10.3 26.1L61 911.6h22.7zm14.4 34.9H87.3l-16 16 11.1 25.8 25.8 11.2 16.1-16.1zM96 911.6h28.2V900l-8.3-8.3zm28.2-40.7v-11.7H96l20 20zm106.9 49.4h-37v37l16.1 16 25.7-11.1 11.2-25.8zm26.3-61h-22.7l-26 26.1 26 26.2h22.7l10.3-26.2zm24.3-9.1l.6-1.8 1.8-.7 23.3-9.2-20.1-8-2.8-1v-20l-12 12-2.2 2-2.7-1.1-20-8.6 8.7 19.9 1.2 2.7-2 2.1-12.1 12h20l1 2.8 8 20.2zm67.9 5l-30.2-12-30.3 12-12 30.2 12 30.3 30.3 12 30.2-12 12-30.3zm24.6-1.9l1.1-2.7h20l-12-12-2-2.2 1.1-2.7 8.6-20-19.9 8.7-2.7 1.2-2.1-2.1-12-12v17l-.1 3-2.7 1-20.2 8 23.3 9.2 1.8.7.7 1.8 9.2 23.3zm55.9 32.1l-26-26.1h-22.8L371 885.4l10.3 26.2H404zm14.5 35h-37l-16 16 11.2 25.8 25.7 11.2 16.1-16.1zm106.8 0h-37v36.9l16.1 16 25.8-11.1 11.1-25.8zm26.3-61l-22.7-.1-26 26.1 26 26.2h22.7l10.3-26.2zm24.3-9.2l.7-1.8 1.7-.7 23.3-9.2-20.1-8-2.8-1v-20l-12 12-2.1 2-2.8-1.1-19.9-8.6 8.6 19.9 1.2 2.7-2 2.1-12 12h20l1 2.8 8 20.2zm68 5l-30.3-12-30.3 12-12 30.2 12 30.3 30.3 12 30.2-12 12-30.3zm24.6-1.9l1-2.7h20l-12-12-2-2.2 1.1-2.7 8.7-20-20 8.7-2.7 1.2-2.1-2.1-12-12v20l-2.8 1-20.2 8 23.3 9.2 1.8.7.7 1.8 9.2 23.3zm55.8 32.1l-26-26.1h-22.8l-10.3 26.1 10.3 26.2h22.7zm14.5 35h-37l-16 16 11.2 25.8 25.7 11.2 16.1-16.1zm106.8 0h-37v36.9l16.1 16 25.8-11.1 11.2-25.8zm26.4-61l-22.8-.1-26 26.1 26 26.2h22.8l10.3-26.2zm24.2-9.2l.7-1.8 1.8-.7 23.3-9.2-20.2-8-2.7-1v-20l-12.1 12-2.1 2-2.7-1.1-20-8.6 8.7 19.9 1.1 2.7-2 2.1-12 12h20l1 2.8 8 20.2zm68 5l-30.3-12-30.2 12-12 30.2 12 30.3 30.2 12 30.2-12 12-30.3zm24.6-1.9l1-2.7h20l-12-12-2-2.2 1.1-2.7 8.7-20-20 8.7-2.7 1.2-2-2.1-12.1-12v20l-2.8 1-20.2 8 23.3 9.2 1.8.7.7 1.8 9.2 23.3zm55.8 32.1l-26-26.1h-22.8l-10.3 26.1 10.3 26.2h22.8zm14.5 35h-37l-16 16 11.2 25.8 25.8 11.2 16-16.1zm106.8 0h-36.9v36.9l16 16 25.8-11.1 11.2-25.8zm-22.4-35l26 26.2h22.8l10.3-26.2-10.3-26-22.7-.1zM1155 900v11.7h28.2l-19.9-20zm28.2-40.6H1155V871l8.3 8.3zm-12.1-61.8l-16.1 16v37h37l16-16-11.2-25.8zm11-98.3l-10.4 26 10.3 26.2h22.7l26-26.1-26-26.2zm9.8-99.2H1155v37l16 16 26-11.1 11.2-25.8zm-22.4-34.9l26 26.2h22.8l10.3-26.2-10.3-26.1h-22.7zm1.6-88l-16.1 16.2v36.9h37l16-16-11.2-25.8zm11-98.3l-10.4 26.2 10.3 26 22.7.1 26-26.1-26-26.2zm9.8-99.1H1155v37l16 16 25.8-11.1 11.2-25.8zm-22.4-35l26 26.2h22.8l10.3-26.1-10.3-26.1h-22.7zm1.6-87.8l-16.1 16v37h37l16-16.1-11.2-25.8zm11-98.4l-10.4 26.1 10.3 26.1h22.7l26-26-26-26.2zm9.8-99.1H1155v37l16 16 26-11.3 11.2-25.7zm-22.4-35l26 26.2h22.8l10.3-26.1-10.3-26.1h-22.7zm-14.5-34.9h37l16-16-11.2-25.8-25.7-11.2-16.1 16.1zm28.2 8.8H1155V-90l8.3 8.3zM1155.1-61v11.7h28.2l-19.9-20zm-106.8-49.4h37v-37l-16.1-16-25.8 11.1-11.2 25.8zm-26.4 61h22.8l26-26.1-26-26.2h-22.8l-10.3 26.2zm-24.2 9.1l-.7 1.8-1.8.7-23.3 9.2 20.2 8 2.7 1v20l12.1-12 2.1-2 2.7 1.1 20 8.6-8.7-19.9-1.1-2.7 2-2.1 12-12h-20l-1-2.8-8-20.2zm-68-5l30.3 12 30.2-12 12-30.2-12-30.3-30.2-12-30.2 12-12 30.3zm-24.6 1.9l-1 2.7h-20l12 12.1 2 2-1.1 2.8-8.7 20 20-8.7 2.7-1.2 2 2.1 12.1 12v-20l2.8-1 20.2-8-23.3-9.2-1.8-.7-.7-1.8-9.2-23.3zm-55.8-32.1l26 26.1h22.8l10.3-26.1-10.3-26.1h-22.8zm-14.5-35h36.9l16-16-11.1-25.8-25.8-11.2-16 16.1zm-106.8 0h36.9v-36.9l-16-16-25.8 11.1-11.2 25.8zm-26.4 61l22.8.1 26-26.1-26-26.2h-22.8l-10.3 26.2zm-24.2 9.2l-.7 1.8-1.8.7-23.3 9.2 20.2 8 2.7 1v20l12.1-12 2.1-2 2.7 1.1 20 8.6-8.7-19.9-1.2-2.7 2.1-2.1 12-12h-20l-1-2.8-8-20.2zm-68-5l30.3 12 30.2-12 12-30.2-12-30.3-30.2-12-30.3 12-12 30.3zm-24.6 1.9l-1 2.7h-20l12 12.1 2 2-1.2 2.8-8.6 20 20-8.7 2.7-1.2 2 2.1 12.1 12v-20l2.8-1 20.1-8-23.3-9.2-1.7-.7-.7-1.8-9.2-23.3zm-55.9-32.1L555-49.4h22.7L588-75.5l-10.3-26.1H555zm-14.4-35h36.9l16-16-11.1-25.8-25.8-11.2-16 16.1zm-106.8 0h36.9v-36.9l-16-16-25.8 11.1-11.2 25.8zm-26.4 61l22.7.1 26-26.1-26-26.2h-22.7L371-75.4zm-24.2 9.2l-.7 1.8-1.8.7-23.3 9.2 20.2 8 2.7 1v20l12-12 2.2-2 2.7 1.1 20 8.6-8.7-19.9-1.2-2.7 2.1-2.1 12-12h-20l-1-2.8-8-20.2zm-68-5l30.3 12 30.2-12 12-30.2-12-30.3-30.2-12-30.3 12-12 30.3zm-24.6 1.9l-1.1 2.7h-20l12 12.1 2.1 2-1.2 2.8-8.6 20 20-8.7 2.6-1.2 2.1 2.1 12 12 .1-17v-3l2.8-1 20.1-8-23.3-9.2-1.8-.7-.6-1.8-9.2-23.3zm-55.9-32.1l26 26.1h22.8l10.3-26.1-10.3-26.1h-22.7zm-14.5-35h37l16-16-11.2-25.8-25.7-11.2-16.1 16.1zM153-32.3l-8.3-8.2H133v28.1zm32.3 55V0l-26.1-26-26.1 26v22.7L159.2 33zm4.1 92.2l12-30.3-12-30.2-30.2-12-30.2 12-12 30.2 12 30.3 30.2 12zm-30.2 80.5l26.1-26.1v-22.7l-26.1-10.3-26.1 10.3v22.7zm-14.5 14.4l8.3-8.3-20-19.9v28.2zM153 288l-8.3-8.2H133V308zm32.3 55v-22.7l-26.1-26-26.1 26V343l26.1 10.3zm4.1 92.2l12-30.2-12-30.3-30.2-12-30.2 12-12 30.3 12 30.2 30.2 12zm-30.2 80.5l26.1-26v-22.8l-26.1-10.3-26.1 10.3v22.7zM144.7 530l8.3-8.2-20-20v28.3zm8.3 78.3l-8.3-8.3H133v28.2zm32.3 55v-22.8l-26.1-26-26.1 26v22.7l26.1 10.3zm4.1 92.1l12-30.2-12-30.3-30.2-12-30.2 12-12 30.3 12 30.2 30.2 12zm-4 66.8l-20 19.9 8.3 8.3h11.7zm20.7-33l2.1-2.2 2.7 1.2 20 8.6-8.7-19.9-1.2-2.7 2.1-2.1 12-12h-20l-1-2.8-8-20.2-9.2 23.3-.7 1.8-1.8.7-23.3 9.2 20.2 8 2.7 1v20zm78.3-29l-37-.1-16 16 11.2 25.8 25.8 11.2 16-16zM396.1 802l11.2-25.7-16-16.1h-37v37l16 16zm71.5-29.8l-23.3-9.2-1.8-.7-.7-1.8-9.2-23.3-8 20.2-1 2.7h-20l12 12.1 2 2-1.1 2.8-8.7 20 20-8.7 2.7-1.2 2 2.1 12.1 12v-20l2.8-1zm-14.3 50v28.3H465l8.3-8.3zm52.4-12.3v-22.7L479.4 777l-26 10.3-.1 22.7 26.1 26.1zm0 12.4l-20 19.9 8.3 8.3h11.7zm20.7-33l2.1-2.2 2.8 1.2 19.9 8.6-8.6-19.9-1.2-2.7 2-2.1 12-12h-20l-1-2.8-8-20.2-9.2 23.3-.7 1.8-1.8.7-23.2 9.2 20.1 8 2.8 1v20zm78.3-29l-36.9-.1-16 16 11.1 25.8 25.8 11.2 16-16zM716.4 802l11.2-25.7-16-16.1h-37v37l16 16zm71.5-29.8l-23.3-9.2-1.8-.7-.7-1.8-9.2-23.3-8 20.2-1 2.7h-20l12 12.1 2 2-1 2.8-8.7 20 19.9-8.7 2.7-1.2 2.1 2.1 12 12v-20l2.9-1zm-14.2 50v28.3h11.6l8.3-8.3zM826 810v-22.7L799.7 777l-26 10.3-.1 22.7 26.1 26.1zm0 12.4l-20 19.9 8.3 8.3H826zm20.8-33l2-2.2 2.8 1.2 20 8.6-8.7-19.9-1.2-2.7 2-2.1 12-12h-19.9l-1-2.8-8-20.2-9.3 23.3-.7 1.8-1.7.7-23.3 9.2 20.1 8 2.8 1v20zm78.3-29l-37-.1-16 16 11.1 25.8 25.8 11.2 16.1-16zm111.7 41.7l11.1-25.7-16-16.1h-37v37l16.1 16zm71.4-29.8L1085 763l-1.7-.7-.7-1.8-9.3-23.3-8 20.2-1 2.7h-20l12 12.1 2.1 2-1.2 2.8-8.6 20 20-8.7 2.6-1.2 2.1 2.1 12 12 .1-17v-3l2.8-1 20.1-8zm-14.2 50v28.3h11.7l8.3-8.3zm-4-127.2l-12 30.3 12 30.2 30.2 12 30.2-12 12-30.2-12-30.3-30.2-12zm30.2-80.5l-26.2 26.1v22.7l26.2 10.3 26-10.3.1-22.7zm14.5-14.4l-8.3 8.3 20 19.9V600zm-8.3-78.2l8.3 8.2h11.7V502zm-32.4-55v22.7l26.2 26 26.1-26V467l-26.1-10.3zm-4-92.2l-12 30.3 12 30.2 30.2 12 30.2-12 12-30.2-12-30.3-30.2-12zm30.2-80.5l-26.2 26.1V343l26.2 10.3 26-10.3.1-22.7zm14.5-14.4l-8.3 8.2 20 20v-28.2zm-8.3-78.3l8.3 8.3h11.7v-28.2zm-32.4-55v22.8l26.2 26 26.1-26v-22.7l-26.1-10.3zm-4-92.1l-12 30.2 12 30.3 30.2 12 30.2-12 12-30.3-12-30.2-30.2-12zm4-66.8l20-19.9-8.3-8.2H1094zm-20.8 33l-2 2.2-2.8-1.2-20-8.6 8.7 19.9 1.2 2.7-2 2.1-12 12h19.9l1 2.8 8 20.2 9.3-23.3.7-1.8 1.7-.7 23.3-9.2-20.1-8-2.8-1v-20l-12 12zm-78.2 29l36.9.1 16-16L1036.8 8 1011-3.3l-16.1 16zM883.2 8l-11.1 25.7 16 16.1h37v-37L909-3.2zm-71.4 29.8L835 47l1.7.7.7 1.8 9.3 23.3 8-20.2 1-2.7h20l-12-12-2.1-2.2 1.2-2.7 8.6-20-20 8.7-2.6 1.2-2.1-2.1-12-12-.1 17v3l-2.8 1zm14.2-50v-28.3h-11.7l-8.3 8.3zM773.7 0v22.7L799.8 33 826 22.7V0l-26-26zm0-12.4l20-19.9-8.4-8.2h-11.7zm-20.8 33l-2 2.2-2.8-1.2-20-8.6 8.7 19.9 1.2 2.7-2.1 2.1-12 12h20l1 2.8 8 20.2 9.2-23.3.7-1.8 1.8-.7 23.3-9.2-20.1-8-2.8-1v-20zm-78.3 29l37 .1 16-16-11.2-25.8-25.7-11.2-16.1 16zM563 8l-11.1 25.7 16 16.1h37v-37l-16.1-16zm-71.4 29.8l23.2 9.2 1.8.7.7 1.8 9.2 23.3 8-20.2 1-2.7h20l-12-12-2-2.2 1.2-2.7 8.6-20-20 8.7-2.7 1.2-2-2.1-12.1-12v20l-2.8 1zm14.2-50v-28.3H494l-8.3 8.3zM453.4 0v22.7L479.5 33l26.1-10.3V0l-26-26zm0-12.4l20-19.9-8.4-8.2h-11.7zm-20.8 33l-2.1 2.2-2.7-1.2-20-8.6 8.7 19.9 1.2 2.7-2.1 2.1-12 12h20l1 2.8 8 20.2 9.2-23.3.7-1.8 1.8-.7 23.3-9.2-20.2-8-2.7-1v-20zm-78.3 29l37 .1 16-16L396 7.8 370.4-3.3l-16.2 16zM242.6 8l-11.2 25.7 16 16.1h37v-37l-16-16zm-11.5 202l16-16.1L236 168l-25.8-11-16.1 16v37zm-8.8 8.7h-28.1v11.7l8.2 8.3zm0 52.4l-19.9-20-8.2 8.3V271zm-12.1 61.7l25.7-11.1 11.2-25.8-16-16.1h-37v37zm20.9 197.5l16-16-11.2-25.8-25.7-11.2-16.1 16v37zm-8.8 8.8l-28.1-.1v11.7l8.2 8.3zm0 52.3l-19.9-20-8.2 8.3v11.7zM210.2 653l25.7-11.1 11.2-25.8-16-16h-37V637zm59.7 72.3L244 699h-23l-10.3 26.2 10.3 26 22.8.1zm-13.7 26.1h28.2v-11.6l-8.3-8.3zm0-52.3l19.9 20 8.3-8.3V699zm12.2-61.7l-25.8 11.1-11.2 25.8 16 16h37v-36.9zm39-25.4l-23.3-9.2-1.8-.7-.6-1.8-9.2-23.2-8 20.1-1.1 2.8h-20l12 12 2.1 2.1-1.2 2.8-8.6 19.9 20-8.7 2.6-1.1 2.1 2 12 12 .1-17v-3l2.8-1zm-14.2 50.1v28.2h11.7l8.3-8.3zm52.3-12.3V627l-26.1-10.4-26.2 10.4v22.7l26.2 26zm0 12.3l-20 20 8.4 8.2h11.7zm20.8-33l2-2.1 2.8 1.1 20 8.7-8.7-20-1.2-2.7 2.1-2 12-12.1h-20l-1-2.8-8-20.1-9.2 23.2-.7 1.8-1.8.7-23.3 9.2 20.2 8 2.7 1v20zm25 61.3l16-16.1-11.2-25.8-25.7-11.1-16.2 16 .1 37zm-8.8 8.7h-28.2v11.7l8.3 8.3zm-19.9 32.4l-8.3 8.3v11.7h28.2zm55-32.3h-22.7l-26.1 26 26 26.2h22.8l10.3-26.1zm24.2-9.2l.7-1.7 1.8-.7 23.3-9.2-20.2-8-2.7-1v-20l-12.1 12-2.1 2-2.7-1.2-20-8.6 8.7 20 1.2 2.7-2.1 2-12 12.1h20l1 2.8 8 20.1zm68 5l-30.3-12-30.2 12-12 30.3 12 30.2 30.2 12 30.3-12 12-30.2zm24.6-1.8l1-2.8h20l-12-12-2-2.1 1.2-2.8 8.6-19.9-20 8.6-2.7 1.2-2-2-12.1-12v20l-2.8 1-20.1 8 23.2 9.2 1.8.7.7 1.7 9.2 23.3zm55.8 32l-26-26h-22.7l-10.4 26 10.4 26.2h22.7zm-13.7 26.2h28.2v-11.6l-8.3-8.3zm0-52.3l20 20 8.2-8.3V699zm12.2-61.7l-25.8 11.1-11.1 25.8 16 16h37v-36.9zm39-25.4l-23.3-9.2-1.7-.7-.7-1.8-9.2-23.2-8 20.1-1 2.8h-20l12 12 2 2.1-1.2 2.8-8.6 19.9 20-8.7 2.7-1.1 2 2 12.1 12v-20l2.8-1zm-14.2 50.1v28.2h11.7l8.3-8.3zm52.3-12.3V627l-26.1-10.4-26.1 10.4v22.7l26 26zm0 12.3l-20 20 8.4 8.2h11.7zm20.8-33l2.1-2.1 2.7 1.1 20 8.7-8.7-20-1.2-2.7 2.1-2 12-12.1h-20l-1-2.8-8-20.1-9.2 23.2-.7 1.8-1.8.7-23.3 9.2 20.2 8 2.7 1v20zm25 61.3l16-16.1-11.2-25.8-25.7-11.1-16.1 16v37zm-8.8 8.7h-28.2v11.7l8.3 8.3zM683 731.5l-8.2 8.3v11.7h28.1zm55-32.3h-22.7l-26 26 26 26.2H738l10.3-26.1zm24-9.2l.7-1.7 1.8-.7 23.3-9.2-20.1-8-2.8-1v-20l-12 12-2.2 2-2.7-1.2-20-8.6 8.7 20 1.2 2.7-2.1 2-12 12.1h20l1 2.8 8 20.1zm68 5l-30.3-12-30.2 12-12 30.3 12 30.2 30.2 12 30.3-12 12-30.2zm24.6-1.8l1.1-2.8h20l-12-12-2.1-2.1 1.2-2.8 8.6-19.9-20 8.6-2.6 1.2-2.1-2-12-12-.1 17v3l-2.8 1-20.1 8 23.3 9.2 1.7.7.7 1.7 9.3 23.3zm55.9 32l-26-26h-22.8l-10.3 26 10.3 26.2h22.7zm-13.8 26.2H925v-11.6l-8.2-8.3zm0-52.3l20 20 8.2-8.3V699zm12.2-61.7l-25.8 11.1-11.1 25.8 16 16h37v-36.9zm39-25.4l-23.2-9.2-1.8-.7-.7-1.8-9.2-23.2-8 20.1-1 2.8h-20l12 12 2 2.1-1.1 2.8-8.7 19.9 20-8.7 2.7-1.1 2 2 12.1 12v-20l2.8-1zm-14.2 50.1v28.2h11.7l8.3-8.3zm52.3-12.3V627l-26-10.3-26.1 10.4v22.7l26.1 26zm0 12.3l-19.9 20 8.3 8.2h11.7zm20.8-33l2.1-2.1 2.7 1.1 20 8.7-8.7-20-1.1-2.7 2-2 12-12.1h-20l-1-2.8-8-20.1-9.2 23.2-.7 1.8-1.8.7L972 612l20.2 8 2.7 1v20zm25 61.3l16-16.1-11.1-25.8-25.8-11.1-16.1 16v37zm-8.7 8.7H995v11.7l8.2 8.3zm-20 32.4l-8.2 8.3v11.7h28.2zm55-32.3h-22.7l-26 26 26 26.2h22.7l10.3-26.1zm-9.9-99.2l-16 16.1 11.1 25.8 25.8 11.1 16-16v-37zm8.7-8.7h28.2v-11.7l-8.3-8.3zm0-52.3l20 20 8.2-8.4V539zm12.2-61.8l-25.8 11.2-11.2 25.7 16 16.1h37v-37zm-20.9-197.5l-16 16.1 11.1 25.8 25.8 11.1 16-16v-37zm8.7-8.7h28.2v-11.7l-8.3-8.3zm0-52.4l20 20 8.2-8.3v-11.7zm12.2-61.7l-25.8 11.1-11.2 25.8 16.1 16.1h37v-37zm-59.8-72.3l26.1 26.2h22.7l10.3-26.2-10.3-26-22.7-.1zm13.8-26.1H995V70l8.2 8.3zm0 52.3l-20-20-8.2 8.3v11.7zm-12.2 61.8l25.8-11.2 11.1-25.8-16-16h-37v36.9zm-39 25.3l23.2 9.2 1.8.7.7 1.8 9.2 23.3 8-20.2 1-2.7h20l-12-12.1-2-2.1 1.1-2.7 8.7-20-20 8.7-2.7 1.1-2-2-12.1-12v20l-2.8 1zm14.2-50.1v-28.2h-11.7l-8.3 8.3zM933.9 160v22.7l26.1 10.4 26.1-10.4V160L960 134zm0-12.3l19.9-20-8.3-8.2h-11.7zm-20.8 33L911 183l-2.7-1.1-20-8.7 8.7 20 1.1 2.7-2 2-12 12.1h20l1 2.8 8 20.2 9.2-23.3.7-1.8 1.8-.7 23.3-9.2-20.2-8-2.7-1v-20zm-25-61.3l-16 16.1 11.1 25.8 25.8 11.2 16.1-16.1v-37zm8.7-8.7H925V99.1l-8.2-8.3zm20-32.4L925 70V58.4h-28.2zm-55 32.3h22.7l26-26-26-26.2h-22.7l-10.3 26.1zm-24.3 9.2l-.7 1.7-1.7.7-23.3 9.2 20.1 8 2.8 1.1v20l12-12 2.2-2.1 2.7 1.2 20 8.6-8.7-20-1.2-2.6 2-2.1 12-12.1h-19.9l-1-2.8-8-20.1zm-67.9-5l30.2 12 30.3-12 12-30.3-12-30.2-30.3-12-30.2 12-12 30.2zm-24.6 1.8l-1.1 2.8h-20l12 12 2 2.2-1 2.7-8.7 20 19.9-8.7 2.7-1.2 2.1 2 12 12v-19.9l2.9-1 20.1-8-23.3-9.3-1.8-.7-.7-1.7-9.2-23.3zm-55.9-32l26 26H738l10.3-26L738 58.4h-22.7zm13.7-26.2h-28.2V70l8.3 8.3zm0 52.3l-19.9-20-8.2 8.3v11.7zm-12.1 61.8l25.7-11.2 11.2-25.8-16-16h-37v36.9zm-39 25.3l23.2 9.2 1.8.7.7 1.8 9.2 23.3 8-20.2 1-2.7h20l-12-12.1-2-2.1 1.1-2.7 8.7-20-20 8.7-2.7 1.1-2.1-2-12-12v20l-2.8 1zm14.1-50.1v-28.2h-11.6l-8.3 8.3zM613.5 160v22.7l26.2 10.4 26-10.4.1-22.7-26.1-26zm0-12.3l20-20-8.3-8.2h-11.7zm-20.7 33l-2.1 2.1-2.8-1.1L568 173l8.6 20 1.2 2.7-2 2-12 12.1h20l1 2.8 8 20.2 9.2-23.3.7-1.8 1.7-.7 23.3-9.2-20.1-8-2.8-1v-20zm-25-61.3l-16 16.1 11.1 25.8 25.8 11.2 16-16.1v-37zm8.7-8.7h28.2V99.1l-8.3-8.3zm20-32.4l8.2-8.3V58.4h-28.2zm-55 32.3h22.7l26-26-26-26.2h-22.7L531 84.6zm-24.3 9.2l-.7 1.7-1.8.7-23.2 9.2 20.1 8 2.8 1.1v20l12-12 2.1-2.1 2.8 1.2 19.9 8.6-8.6-20-1.2-2.6 2-2.1 12-12.1h-20l-1-2.8-8-20.1zm-68-5l30.3 12 30.3-12 12-30.3-12-30.2-30.3-12-30.2 12-12 30.2zm-24.6 1.8l-1 2.8h-20l12 12 2 2.2-1.1 2.7-8.7 20 20-8.7 2.7-1.2 2 2 12.1 12v-19.9l2.8-1 20.2-8-23.3-9.3-1.8-.7-.7-1.7-9.2-23.3zm-55.8-32l26 26h22.8l10.3-26-10.3-26.2h-22.7zm13.7-26.2h-28.2V70l8.3 8.3zm0 52.3l-19.9-20-8.3 8.3v11.7zm-12.1 61.8l25.7-11.2 11.2-25.8-16-16h-37v36.9zm-39.1 25.3l23.3 9.2 1.8.7.7 1.8 9.2 23.3 8-20.2 1-2.7h20l-12-12.1-2-2.1 1.1-2.7 8.6-20-19.9 8.7-2.7 1.1-2.1-2-12-12v17l-.1 3-2.7 1zm14.2-50.1v-28.2H334l-8.3 8.3zM293.2 160v22.7l26.2 10.4 26-10.4.1-22.7-26.1-26zm0-12.3l20-20-8.3-8.2h-11.7zm-35.8 123.1l10.3-26.1-10.3-26.1h-22.7l-26 26 26 26.2zm-9.9 99.2l36.9-.1V333l-16-16-25.8 11.1-11.2 25.8zm22.4 34.9l-26-26.2H221L210.8 405l10.3 26 22.8.1zm-1.5 87.9l16-16v-37h-36.9l-16 16 11.1 25.8zm81.2 42l-30.2-12-30.3 12-12 30.2 12 30.3 30.3 12 30.2-12 12-30.3zm24.6-1.9l1.1-2.7h20l-12-12.1-2-2.1 1.1-2.7 8.6-20-19.9 8.7-2.7 1.2-2.1-2.1-12-12v17l-.1 3-2.7 1-20.2 8 23.3 9.2 1.8.7.7 1.8 9.2 23.3zm55.9 32.1L404 539h-22.8L371 565.1l10.3 26.1H404zm14.5 35h-37l-16 16 11.2 25.8 25.7 11.1 16.1-16zm106.8 0h-37v37l16.1 16 25.8-11.1 11.1-25.8zm26.3-61.1H555L529 565l26 26.2h22.7L588 565zm24.3-9.1l.7-1.8 1.7-.7 23.3-9.2-20.1-8-2.8-1v-20l-12 12-2.1 2-2.8-1.1-19.9-8.7 8.6 20 1.2 2.7-2 2-12 12.1h20l1 2.8 8 20.2zm68 5l-30.3-12-30.3 12-12 30.2 12 30.3 30.3 12 30.2-12 12-30.3zm24.6-1.9l1-2.7h20l-12-12.1-2-2.1 1.1-2.7 8.7-20-20 8.7-2.7 1.2-2.1-2.1-12-12v20l-2.8 1-20.2 8 23.3 9.2 1.8.7.7 1.8 9.2 23.3zm55.8 32.1l-26-26.1h-22.8L691.3 565l10.3 26.1h22.8zm14.5 35h-37l-16 16 11.2 25.8 25.7 11.1 16.1-16zm106.8 0h-37v37l16.1 16 25.8-11.1 11.2-25.8zm26.4-61.1h-22.8l-26 26.1 26 26.2h22.8l10.3-26.2zm24.2-9.1l.7-1.8 1.8-.7 23.3-9.2-20.2-8-2.7-1v-20l-12.1 12-2.1 2-2.7-1.1-20-8.7 8.7 20 1.1 2.7-2 2-12 12.1h20l1 2.8 8 20.2zm68 5l-30.3-12-30.2 12-12 30.2 12 30.3 30.2 12 30.2-12 12-30.3zm41.6-95h-37v37l16.1 16 25.8-11.2 11.1-25.7zm-22.5-35l26.1 26.2h22.7l10.3-26.1-10.3-26.2h-22.7zm1.6-87.9L994.9 333v37h37l16-16-11.1-25.8zm-81.2-42l30.2 12 30.2-12 12-30.2-12-30.2-30.2-12-30.2 12-12 30.2zM905 277l-1 2.7h-20l12 12.1 2 2.1-1.1 2.7-8.7 20 20-8.7 2.7-1.1 2 2 12.1 12v-20l2.8-1 20.2-8-23.3-9.2-1.8-.7-.7-1.8-9.2-23.3zm-55.8-32.1l26 26.1H898l10.3-26.1-10.3-26.1h-22.8zm-14.5-35l36.9.1 16-16.1-11.1-25.8-25.8-11.1-16 16zM728 210h36.9v-37l-16-16-25.9 11-11.2 25.8zm-26.4 61h22.7l26.1-26.1-26-26.1h-22.8l-10.3 26zm-24.2 9.1l-.7 1.8-1.8.7-23.3 9.2 20.2 8 2.7 1v20l12.1-12 2.1-2 2.7 1.1 20 8.7-8.7-20-1.2-2.7 2.1-2 12-12.1h-20l-1-2.8-8-20.2zm-68-5l30.3 12 30.2-12 12-30.2-12-30.2-30.2-12-30.3 12-12 30.2zm-24.6 1.9l-1 2.7h-20l12 12.1 2 2.1-1.2 2.7-8.6 20 20-8.7 2.7-1.1 2 2 12.1 12v-20l2.8-1 20.1-8-23.3-9.2-1.7-.7-.7-1.8-9.2-23.3zm-55.9-32.1L555 271h22.7l10.3-26.1-10.3-26.1H555zm-14.4-35l36.9.1 16-16.1-11.1-25.8-25.8-11.1-16 16zm-106.8.1h36.9v-37l-16-16-25.8 11.1-11.2 25.8zm-26.4 61H404l26-26.1-26-26.1h-22.7l-10.3 26zm-24.2 9.1l-.7 1.8-1.8.7-23.3 9.2 20.2 8 2.7 1v20l12-12 2.2-2 2.7 1.1 20 8.7-8.7-20-1.2-2.7 2.1-2 12-12.1h-20l-1-2.8-8-20.2zm-7.5-5l12-30.2-12-30.2-30.2-12-30.3 12-12 30.2 12 30.2 30.3 12zm-30.2 80.5l26.1-26v-22.8l-26.1-10.3-26.2 10.3v22.8zM304.9 370l8.3-8.3-20-19.9V370zm40.7 0v-28.2l-20 19.9 8.3 8.3zM396 481.7l11.2-25.7-16-16.2-37 .1v37l16 16zm71.5-29.8l-23.3-9.2-1.8-.7-.7-1.8-9.2-23.3-8 20.1-1 2.8h-20l12 12 2 2.2-1.1 2.7-8.7 20 20-8.7 2.7-1.2 2 2.1 12.1 12v-20l2.8-1zm-14.3 50v28.3H465l8.3-8.3zm52.4-12.3V467l-26.2-10.3-26 10.3-.1 22.7 26.1 26zm0 12.4l-20 19.9 8.3 8.2h11.7zm20.7-33.1l2.1-2 2.8 1 19.9 8.7-8.6-19.9-1.2-2.7 2-2.1 12-12h-20l-1-2.9-8-20.1-9.2 23.3-.7 1.8-1.8.7-23.2 9.2 20.1 8 2.8 1v20zm78.3-29h-36.9l-16 16 11.1 25.8 25.8 11.2 16-16zM563 328.2L551.8 354l16 16h37v-36.9l-16.1-16zm27.3 76.8l-26-26.2h-22.7L531 405l10.4 26 22.7.1zm14.5-14.5v-11.8l-28.2.1 20 20zM576.5 431h28.2v-11.6l-8.3-8.4zm-85-73l23.2 9.2 1.8.7.7 1.7 9.2 23.3 8-20.1 1-2.8h20l-12-12-2-2.2 1.2-2.7 8.6-20-20 8.7-2.7 1.2-2-2-12.1-12.1v20l-2.8 1zm14.2-50.1v-28.2H494l-8.3 8.2zm-52.3 12.3V343l26.1 10.3 26.1-10.3v-22.7l-26-26zm0-12.3l20-20-8.4-8.2h-11.7zm-16 97l11.9 30.2 30.2 12 30.3-12 12-30.2-12-30.3-30.3-12-30.2 12zm-4.8-64l-2.1 2.1-2.7-1.2-20-8.6 8.7 20 1.2 2.6-2.1 2.1-12 12 17 .1h3l1 2.8 8 20.1 9.2-23.3.7-1.7 1.8-.7 23.3-9.3-20.2-8-2.7-1v-20zm-41.4 29l16-16-11-25.8-25.8-11.2-16.2 16.1.1 36.9zm-8.7 8.8h-28.2v11.7l8.3 8.3zm12.4 52.3h22.7l10.3-26.1-10.3-26.2h-22.7L368.8 405zm-32.3-20l-8.3 8.4v11.7h28.2zm45-131.4l-16 16.1 11.2 25.8 25.7 11.1 16.1-16v-37zm37-49.4v-11.7h-28.2l19.9 20zM416.3 271h28.2v-11.7l-8.3-8.3zm98 8.7v37l16.1 16 25.8-11.1 11.1-25.8-16-16.1zm28.3-61l-28.2-.1v11.7l8.3 8.3zm-28.2 40.6V271h28.2l-20-20zm131.4 102.4l8.3 8.3h11.7v-28.2zm-32.4-19.9V370h11.7l8.3-8.3zm26.2 13.7l26.1-26v-22.8l-26.1-10.3-26.1 10.3v22.8zm76.7 126.2l11.2-25.7-16-16.2-37 .1v37l16 16zM788 452l-23.3-9.2-1.8-.7-.7-1.8L753 417l-8 20.1-1 2.8h-20l12 12 2 2.2-1 2.7-8.7 20L748 468l2.7-1.2 2.1 2.1 12 12v-20l2.9-1zm-14.2 50v28.3h11.6l8.3-8.3zm52.3-12.3V467l-26.2-10.3-26 10.3-.1 22.7 26.1 26zm0 12.4l-20 19.9 8.3 8.2H826zm20.8-33.1l2-2 2.8 1 20 8.7-8.7-19.9-1.2-2.7 2-2.1 12-12h-19.9l-1-2.9-8-20.1-9.3 23.3-.7 1.8-1.7.7-23.3 9.2 20.1 8 2.8 1v20zm78.3-29h-37l-16 16 11.1 25.8L909 493l16.1-16zm-41.9-111.7L872.1 354l16 16h37v-36.9l-16.1-16zm27.4 76.8l-26.1-26.2h-22.7L851.5 405l10.3 26 22.7.1zm14.4-14.5v-11.8l-28.2.1 20 20zM896.8 431H925v-11.6l-8.2-8.3zm-85-73l23.3 9.2 1.7.7.7 1.7 9.3 23.3 8-20.1 1-2.8h20l-12-12-2.1-2.2 1.2-2.7 8.6-20-20 8.7-2.6 1.2-2.1-2-12-12.1-.1 17v3l-2.8 1zm14.2-50v-28.2h-11.7L806 288zm-52.3 12.3V343l26.1 10.3L826 343v-22.7l-26-26zm0-12.3l20-20-8.4-8.2h-11.7zm-16 97l11.9 30.2 30.2 12 30.3-12 12-30.2-12-30.3-30.3-12-30.2 12zm-4.8-64l-2 2.1-2.8-1.2-20-8.6 8.7 20 1.2 2.6-2.1 2.1-12 12 17 .1h3l1 2.8 8 20.1 9.2-23.3.7-1.7 1.8-.7L788 358l-20.1-8-2.8-1v-20zm-41.4 29l16.1-16-11.2-25.8-25.7-11.2-16.1 16.1V370zm-8.7 8.8h-28.2v11.7l8.3 8.3zm12.4 52.3h22.7l10.3-26.1-10.3-26.2h-22.7l-26 26.2zm-32.3-20l-8.2 8.4v11.7h28.1zm45-131.4l-16 16.1 11.2 25.8 25.7 11.1 16.1-16v-37zm37-49.4v-11.7h-28.2l19.9 20zM736.7 271h28.2v-11.7l-8.3-8.3zm98 8.7v37l16.1 16 25.8-11.1 11.2-25.8-16.1-16.1zm28.3-61l-28.2-.1v11.7l8.3 8.3zm-28.2 40.6V271H863l-20-20zm131.4 102.4l8.3 8.3h11.7v-28.2zm-32.4-19.9V370h11.7l8.3-8.3zm26.2 13.7l26.1-26v-22.8L960 296.4l-26.1 10.3v22.8zm63.2 23.3H995v11.7l8.2 8.3zM995 419.5v11.7h28.2l-20-20zm-47.7 11.7h1.8l1.3 1.3 9.6 9.5 9.6-9.5 1.3-1.3h15.3v-15.4l1.3-1.3 9.6-9.5-9.6-9.6-1.3-1.3v-15.4H971l-1.3-1.3-9.6-9.5-9.6 9.5-1.3 1.3h-15.3v15.4l-1.3 1.3-9.6 9.6 9.6 9.5 1.3 1.3v15.4zm6.5 17l-8.3-8.3h-11.7v28.2zm32.4 20v-28.3h-11.7l-8.3 8.3zM960 454.3l-26.1 26v22.8l26.1 10.3 26.1-10.3v-22.7zm-88.3 75.8l16-16-11.1-25.8-25.8-11.2-16 16v37zm-36.9 49.4v11.7H863l-20-20zM863 539l-28.2-.1v11.7l8.3 8.3zm-98.1-8.8v-37l-16-16-25.8 11.2-11.2 25.7 16 16.1zm-28.2 61l28.2.1v-11.7l-8.3-8.3zm28.2-40.6V539h-28.2l19.9 20zM627 431.2h1.8l1.3 1.3 9.6 9.5 9.6-9.5 1.2-1.3H666v-15.4l1.3-1.3 9.5-9.5-9.5-9.6-1.3-1.3v-15.4h-15.4l-1.2-1.3-9.6-9.5-9.6 9.5-1.3 1.3h-15.3v15.4l-1.3 1.3-9.6 9.6 9.6 9.5 1.2 1.3v15.4zm6.5 17l-8.3-8.3h-11.7v28.2zm32.3 20v-28.3h-11.6l-8.3 8.3zm-26.1-13.8l-26.2 26v22.8l26.2 10.3 26-10.3.1-22.7zm-88.3 75.8l16-16-11.1-25.8-25.8-11.2-16 16v37zm-37 49.4v11.7h28.3l-20-20zm28.3-40.6l-28.2-.1v11.7l8.3 8.3zm-98.1-8.8v-37l-16-16-25.8 11.2-11.2 25.7 16 16.1zm-28.2 61l28.2.1v-11.7l-8.3-8.3zm28.1-40.6V539h-28.1l19.9 20zM313.2 448.2l-8.3-8.3h-11.7v28.2zm32.3 20v-28.3H334l-8.3 8.3zm-26.1-13.8l-26.2 26v22.8l26.2 10.3 26-10.3.1-22.7zM256.2 431h28.2v-11.6L276 411zm28.2-40.6v-11.8l-28.2.1 19.9 20zm7.4 4.9l-9.5 9.6 9.5 9.5 1.3 1.3v15.4h15.4l1.3 1.3 9.6 9.5 9.5-9.5 1.3-1.3h15.4v-15.4l1.3-1.3 9.5-9.5-9.5-9.6-1.3-1.3v-15.4h-15.4l-1.3-1.3-9.5-9.5-9.6 9.5-1.3 1.3H293V394zm200.4-176.8h-1.8l-1.3-1.3-9.6-9.6-9.6 9.6-1.2 1.3h-15.4v15.3l-1.3 1.3-9.5 9.6 9.5 9.6 1.3 1.3V271h15.4l1.2 1.3 9.6 9.6 9.6-9.6 1.3-1.3h15.3v-15.3l1.3-1.3 9.6-9.6-9.6-9.6-1.2-1.3v-15.3zm-6.5-17l8.3 8.2h11.7v-28.2zm-32.4-20v28.2H465l8.3-8.3zm26.2 13.8l26.2-26.1v-22.7l-26.2-10.3-26 10.3-.1 22.7zm333 23.2h-1.8l-1.3-1.3-9.6-9.6-9.6 9.6-1.2 1.3h-15.4v15.3l-1.3 1.3-9.5 9.6 9.5 9.6 1.3 1.3V271H789l1.2 1.3 9.6 9.6 9.6-9.6 1.3-1.3h15.4v-15.3l1.2-1.3 9.6-9.6-9.6-9.6-1.2-1.3v-15.3zm-6.5-17l8.3 8.2H826v-28.2zm-32.3-20v28.2h11.6l8.3-8.3zm26.1 13.8l26.2-26.1v-22.7l-26.2-10.3-26 10.3-.1 22.7zm244.9 75.5l26-26.1-26-26.1h-22.8l-10.3 26L1022 271zm-20.8 20.8l12-12h-20l-1-2.8-8-20.2-9.2 23.3-.7 1.8-1.8.7-23.3 9.2 20.2 8 2.7 1v20l12.1-12 2.1-2 2.7 1.1 20 8.7-8.7-20-1.1-2.7zM1011.6 565l10.3 26.1h22.8l26-26-26-26.2h-22.8zm3.3-32l1-2.8h20l-12-12.1-2-2.1 1.1-2.7 8.7-20-20 8.7-2.7 1.2-2-2.1-12.1-12v20l-2.8 1-20.2 8 23.3 9.2 1.8.7.7 1.8 9.2 23.3zm-227.7 58.3h1.8l1.2 1.2 9.6 9.6 9.6-9.6 1.3-1.2h15.4V576l1.2-1.3 9.6-9.6-9.6-9.6-1.2-1.2v-15.4h-15.4l-1.3-1.3-9.6-9.6-9.6 9.6-1.2 1.3h-15.4v15.4l-1.3 1.2-9.5 9.6 9.5 9.6 1.3 1.3v15.3zm6.4 17l-8.3-8.3h-11.7v28.2zm32.4 19.9V600h-11.7l-8.3 8.3zm-26.2-13.8l-26.1 26.1v22.7l26.1 10.3 26.1-10.3v-22.7zm-333-23.1h1.9l1.2 1.2 9.6 9.6 9.6-9.6 1.3-1.2h15.3V576l1.3-1.3 9.6-9.6-9.6-9.6-1.2-1.2v-15.4h-15.4l-1.3-1.3-9.6-9.6-9.6 9.6-1.2 1.3h-15.4v15.4l-1.3 1.2-9.6 9.6 9.6 9.6 1.3 1.3v15.3zm6.5 17L465 600h-11.7v28.2zm32.4 19.9V600H494l-8.3 8.3zm-26.2-13.8l-26.1 26.1v22.7l26.1 10.3 26.1-10.3v-22.7zM234.7 539l-26 26.1 26 26.2h22.7l10.3-26.2-10.3-26.1zm20.7-20.8l-12 12h20l1 2.8 8 20.2 9.3-23.3.6-1.8 1.8-.7 23.3-9.2-20.1-8-2.8-1v-20l-12 12-2.2 2-2.7-1.1-20-8.7 8.7 20 1.2 2.7zm1-221.7l-8.7 20 20-8.7 2.6-1.1 2.1 2 12 12 .1-17v-3l2.8-1 20.1-8-23.3-9.2-1.8-.7-.6-1.8-9.2-23.3-8 20.2-1.1 2.7h-20l12 12.1 2.1 2.1zm16-115.6l-2 2-2.8-1.1-20-8.7 8.7 20 1.2 2.7-2 2-12.1 12.1h20l1 2.8 8 20.2 9.3-23.3.6-1.8 1.8-.7 23.3-9.2-20.1-8-2.8-1v-20zm-24.9-61.4l-16 16.1 11.1 25.8 25.8 11.2 16-16.1v-37zm8.7-8.7h28.2V99.1l-8.3-8.3zm-12.3-52.3H221l-10.3 26.1 10.3 26.1h23l26-26zm32.2 20l8.3-8.4V58.4h-28.2zM1094 209.7h11.7l8.3-8.3-20-19.9zm14.2-78.3l-23.3-9.2-1.7-.7-.7-1.7-9.3-23.3-8 20.1-1 2.8h-20l12 12 2.1 2.2-1.2 2.7-8.6 20 20-8.7 2.6-1.2 2.1 2 12 12 .1-17v-2.9l2.8-1 20.1-8zM1094 308l20-20-8.3-8.2H1094zm-6 42l-2.7-1v-20l-12 12-2.2 2.1-2.7-1.2-20-8.6 8.7 20 1.2 2.6-2 2.1-12.1 12 17 .1h3l1 2.8 8 20.1 9.3-23.3.7-1.7 1.7-.7 23.3-9.3-20.1-8zm6 180.2h11.7l8.3-8.3-20-20zm14.2-78.3l-23.3-9.2-1.7-.7-.7-1.8-9.3-23.3-8 20.1-1 2.8h-20l12 12 2.1 2.2-1.2 2.7-8.6 20 20-8.7 2.6-1.2 2.1 2.1 12 12 .1-17v-3l2.8-1 20.1-8zM1094 628.3l20-20-8.3-8.2H1094zm-6 42.1l-2.7-1v-20l-12 12-2.2 2-2.7-1.2-20-8.6 8.7 20 1.2 2.7-2 2-12.1 12.1h20l1 2.8 8 20.1 9.3-23.3.7-1.7 1.7-.7 23.3-9.2-20.1-8zm-902.6-70.3h-11.7l-8.3 8.3 20 19.9zm-14.3 78.3l23.3 9.2 1.8.7.7 1.7 9.2 23.3 8-20.1 1-2.8h20l-12-12-2-2.1 1.1-2.8 8.7-19.9-20 8.6-2.7 1.2-2-2-12.1-12v20l-2.8 1zM185.4 502l-20 19.9 8.3 8.2h11.7zm5.9-42.2l2.7 1.1v20l12.1-12 2.1-2 2.7 1 20 8.7-8.7-19.9-1.2-2.7 2.1-2.1 12-12h-20l-1-2.9-8-20.1-9.2 23.3-.7 1.8-1.8.7-23.3 9.2zm-5.9-180h-11.7l-8.3 8.2 20 20zM171.1 358l23.3 9.3 1.8.7.7 1.7 9.2 23.3 8-20.1 1-2.8h20l-12-12-2-2.2 1.1-2.7 8.7-20-20 8.7-2.7 1.2-2-2L194 329v20l-2.8 1zm14.3-176.4l-20 20 8.3 8.2h11.7zm5.9-42l2.7 1v20l12.1-12 2.1-2.1 2.7 1.2 20 8.6-8.7-20-1.2-2.6 2.1-2.1 12-12.1h-20l-1-2.8-8-20.1-9.2 23.3-.7 1.7-1.8.7-23.3 9.2zm-5.9-180.2h-11.7l-8.3 8.3 20 20zm-14.3 78.3l23.3 9.2 1.8.7.7 1.8 9.2 23.3 8-20.2 1-2.7h20l-12-12-2-2.2 1.1-2.7 8.7-20-20 8.7-2.7 1.2-2-2.1-12.1-12v20l-2.8 1zm23-78.3v37l16.1 16 25.7-11.2 11.2-25.7-16-16.1zm28.2-61l-28.1-.1V-90l8.2 8.3zM194.2-61v11.7h28.1l-19.9-20zM332 58.4h-1.8l-1.3-1.3-9.5-9.5-9.6 9.5-1.3 1.3H293v15.4l-1.3 1.2-9.5 9.6 9.5 9.6 1.3 1.3v15.4h15.4l1.3 1.2 9.6 9.6 9.5-9.6 1.3-1.2h15.4V95.5l1.3-1.3 9.5-9.6L347 75l-1.3-1.2V58.4zm-6.4-17l8.3 8.3h11.7V21.5zm-32.4-20v28.3h11.7l8.3-8.3zm26.2 13.8l26.1-26v-22.8l-26.1-10.3-26.2 10.3V9.1zm88.3-75.8l-16.1 16 11.2 25.8 25.7 11.2 16.1-16v-37zM444.5-90v-11.7h-28.1l19.9 20zm-28.1 40.6h28.2V-61l-8.3-8.3zm98 8.8v37l16.1 16 25.8-11.2 11.1-25.7-16-16.1zm28.3-61l-28.2-.1V-90l8.3 8.3zM514.5-61v11.7h28.2l-20-20zM652.4 58.4h-1.9l-1.2-1.3-9.6-9.5L630 57l-1.3 1.3h-15.3v15.4l-1.3 1.2-9.6 9.6 9.6 9.6 1.2 1.3v15.4h15.4l1.3 1.2 9.6 9.6 9.6-9.6 1.2-1.2H666V95.5l1.3-1.3 9.5-9.6-9.5-9.6-1.3-1.2V58.4zm-6.5-17l8.3 8.3h11.7V21.5zm-32.4-20v28.3h11.7l8.3-8.3zm26.2 13.8l26.1-26v-22.8l-26.1-10.3-26.1 10.3V9.1zM728-40.6l-16 16 11 25.8 25.8 11.2 16.1-16v-37zM764.9-90v-11.7h-28.2l19.9 20zm-28.2 40.6h28.2V-61l-8.3-8.3zm98 8.8v37l16.1 16 25.8-11.2 11.2-25.7-16.1-16.1zm28.3-61l-28.2-.1V-90l8.3 8.3zM834.8-61v11.7H863l-20-20zM972.7 58.4h-1.8l-1.3-1.3-9.6-9.5-9.6 9.5-1.3 1.3h-15.3v15.4l-1.3 1.2-9.6 9.6 9.6 9.6 1.3 1.3v15.4H949l1.3 1.2 9.6 9.6 9.6-9.6 1.3-1.2h15.3V95.5l1.3-1.3 9.6-9.6-9.6-9.6-1.3-1.2V58.4zm-6.5-17l8.3 8.3h11.7V21.5zm-32.4-20v28.3h11.7l8.3-8.3zM960 35.3l26.1-26v-22.8L960-23.9l-26.1 10.3V9.1zm88.3-75.8l-16 16 11.1 25.8 25.8 11.2 16-16v-37zm36.9-49.4v-11.7H1057l20 20zM1057-49.4h28.2V-61l-8.3-8.3zm89.3 37v-28.2h-11.6l-8.3 8.3zM1120.2-26L1094 0v22.8l26.2 10.3 26-10.3.1-22.7zm37 270.9l-9.5-9.6-1.3-1.3v-15.3H1131l-1.2-1.3-9.6-9.6-9.6 9.6-1.3 1.3h-15.4V234l-1.3 1.3-9.5 9.6 9.5 9.6 1.3 1.3V271h15.4l1.3 1.3 9.6 9.6 9.6-9.6 1.2-1.3h15.4v-15.3l1.3-1.3zm26.1-26.2h-28.2v11.7l8.3 8.3zm-28.2 40.7V271h28.2l-19.9-20zm2.1 305.8l-9.5-9.6-1.3-1.2V539H1131l-1.2-1.3-9.6-9.6-9.6 9.6-1.3 1.3h-15.4v15.4l-1.3 1.2-9.5 9.6 9.5 9.6 1.3 1.3v15.3h15.4l1.3 1.3 9.6 9.6 9.6-9.6 1.2-1.2h15.4V576l1.3-1.3zm26.1-26.1l-28.2-.1v11.7l8.3 8.3zm-28.2 40.6v11.7h28.2l-19.9-20zm-28.7 262.6l8.3 8.3h11.7v-28.2zm19.9-32.3v-22.7l-26.1-10.3-26.2 10.3V810l26.2 26.1zm-61 40.6v-37l-16.1-16-25.8 11.2-11.2 25.7 16 16.1zm-28.3 61.1h28.2V900l-8.3-8.3zm28.2-40.7v-11.7H1057l20 20zM947.3 751.5h1.8l1.3 1.3 9.6 9.6 9.6-9.6 1.3-1.3h15.3V736l1.3-1.2 9.6-9.6-9.6-9.6-1.3-1.3V699H971l-1.3-1.3-9.6-9.6-9.6 9.6-1.3 1.2h-15.3v15.4l-1.3 1.3-9.6 9.6 9.6 9.6 1.3 1.2v15.4zm6.5 17l-8.3-8.2h-11.7v28.1zm32.4 20v-28.3h-11.7l-8.3 8.3zM960 774.6l-26.1 26v22.8l26.1 10.3 26.1-10.3v-22.7zm-88.3 75.8l16-16-11.1-25.8-25.8-11.2-16 16v37zM834.8 900v11.7H863l-20-20zm28.2-40.6h-28.2V871l8.3 8.3zm-98.1-8.8v-37l-16-16-25.8 11.2-11.2 25.7 16 16.1zm-28.2 61.1h28.2V900l-8.3-8.3zm28.2-40.7v-11.7h-28.2l19.9 20zM627 751.5h1.8l1.3 1.3 9.6 9.6 9.6-9.6 1.2-1.3H666V736l1.3-1.2 9.6-9.6-9.6-9.6-1.3-1.3V699h-15.4l-1.2-1.3-9.6-9.6-9.6 9.6-1.3 1.2h-15.3v15.4l-1.3 1.3-9.6 9.6 9.6 9.6 1.2 1.2v15.4zm6.5 17l-8.3-8.2h-11.7v28.1zm32.3 20v-28.3h-11.6l-8.3 8.3zm-26.1-13.8l-26.2 26v22.8l26.2 10.3 26-10.3.1-22.7zm-88.3 75.8l16-16-11.1-25.8-25.8-11.2-16 16v37zm-37 49.4v11.7h28.3l-20-20zm28.3-40.6h-28.2v11.6l8.3 8.3zm-98.1-8.8v-37l-16-16-25.8 11.2-11.2 25.7 16 16.1zm-28.2 61.1h28.2V900l-8.3-8.3zm28.1-40.7v-11.7h-28.1l19.9 20zM306.7 751.5h1.8l1.3 1.3 9.6 9.6 9.5-9.6 1.3-1.3h15.4V736l1.3-1.2 9.5-9.6-9.5-9.6-1.3-1.3V699h-15.4l-1.3-1.3-9.5-9.6-9.6 9.6-1.3 1.2H293v15.4l-1.3 1.3-9.5 9.6 9.5 9.6 1.3 1.2v15.4zm6.5 17l-8.3-8.2h-11.7v28.1zm32.3 20v-28.3H334l-8.3 8.3zm-26.1-13.8l-26.2 26v22.8l26.2 10.3 26-10.3.1-22.7zM231 850.5l16-16-11.2-25.8-25.7-11.2-16.1 16v37zM194 900v11.7h28.2l-19.9-20zm28.2-40.6h-28.1V871l8.2 8.3zm-89.3-37v28.2h11.7l8.3-8.3zm26.2 13.7l26.1-26v-22.8l-26-10.3-26.1 10.3V810zM96 591.3h28.2v-11.7l-8.3-8.3zm28.2-40.7V539H96l20 20zm7.5 5L122 565l9.6 9.6 1.3 1.3v15.3h15.3l1.3 1.3 9.6 9.6 9.6-9.6 1.3-1.2h15.3V576l1.3-1.3 9.6-9.6-9.6-9.6-1.3-1.2v-15.4H170l-1.3-1.3-9.6-9.6-9.6 9.6-1.3 1.3H133v15.4zM96 271h28.2v-11.7L116 251zm28.2-40.7v-11.7H96l20 20zm7.5 4.9l-9.6 9.6 9.6 9.6 1.3 1.3V271h15.3l1.3 1.3 9.6 9.6 9.6-9.6 1.3-1.3h15.3v-15.3l1.3-1.3 9.6-9.6-9.6-9.6-1.3-1.3v-15.3h-15.3l-1.3-1.3-9.6-9.6-9.6 9.6-1.3 1.3H133v15.3zM96-49.4h28.2V-61l-8.3-8.3zM124.2-90v-11.7H96l20 20zm28.8-28.8l-20-19.9v28.2h11.7zm32.4 8.3v-28.2l-20 20 8.3 8.2zm-13.5 8.7H170l-1.3-1.2-9.6-9.6-9.6 9.6-1.3 1.2H133v15.4l-1.3 1.3-9.6 9.6 9.6 9.6 1.3 1.2v15.4h15.3l1.3 1.3 9.6 9.5 9.6-9.5 1.3-1.3h15.3v-15.4l1.3-1.2 9.6-9.6-9.6-9.6-1.3-1.3v-15.3zm301.4-17l-20-19.9v28.2H465zm32.4 8.3v-28.2l-20 20 8.3 8.2zm-13.5 8.7h-1.8L489-103l-9.6-9.6-9.6 9.6-1.2 1.2h-15.4v15.4L452-85l-9.6 9.6L452-66l1.3 1.2v15.4h15.4l1.2 1.3 9.6 9.5 9.6-9.5 1.3-1.3h15.3v-15.4L507-66l9.6-9.6-9.6-9.6-1.2-1.3v-15.3zm301.4-17l-20-19.9v28.2h11.7zm32.4 8.3v-28.2l-20 20 8.3 8.2zm-13.5 8.7h-1.8l-1.3-1.2-9.6-9.6-9.6 9.6-1.2 1.2h-15.4v15.4l-1.3 1.3-9.5 9.6 9.5 9.6 1.3 1.2v15.4H789l1.2 1.3 9.6 9.5 9.6-9.5 1.3-1.3h15.4v-15.4l1.2-1.2 9.6-9.6-9.6-9.6-1.2-1.3v-15.3zm301.5-17l-20-19.9v28.2h11.7zm32.4 8.3v-28.2l-20 20 8.3 8.2zm-13.6 8.7h-1.8l-1.2-1.2-9.6-9.6-9.6 9.6-1.3 1.2h-15.4v15.4l-1.2 1.3-9.6 9.6 9.6 9.6 1.2 1.2v15.4h15.4l1.3 1.3 9.6 9.5 9.6-9.5 1.2-1.3h15.4v-15.4l1.3-1.2 9.5-9.6-9.5-9.6-1.3-1.3v-15.3zM1183.2 33l8.6-20-19.9 8.7-2.7 1.2-2.1-2.1-12-12v17l-.1 3-2.8 1-20.1 8 23.3 9.2 1.8.7.7 1.8 9.2 23.3 8-20.2 1-2.7h20l-12-12-2-2.2 1-2.7zm.9 98.7l12-12-17-.1h-3l-1-2.8-8-20.1-9.2 23.3-.7 1.7-1.8.7-23.3 9.2 20.1 8 2.8 1.1v20l12-12 2.2-2.1 2.7 1.2 20 8.6-8.7-20-1.2-2.6 2.1-2.1zm-.9 221.6l8.6-20-19.9 8.7-2.7 1.2-2.1-2-12-12V346l-.1 3-2.8 1-20.1 8 23.3 9.3 1.8.7.7 1.7 9.2 23.3 8-20.1 1-2.8h20l-12-12-2-2.2 1-2.7zm.9 98.7l12-12h-20l-1-2.9-8-20.1-9.2 23.3-.7 1.8-1.8.7-23.3 9.2 20.2 8 2.7 1v20l12-12 2.2-2 2.7 1 20 8.7-8.7-19.9-1.2-2.7 2.1-2.1zm-.9 221.6l8.6-19.9-19.9 8.6-2.7 1.2-2.1-2-12-12v17l-.1 3-2.8 1-20.1 8 23.3 9.2 1.8.7.7 1.7 9.2 23.3 8-20.1 1-2.8h20l-12-12-2-2.1 1-2.8zm.9 98.7l12-12h-20l-1-2.8-8-20.2-9.2 23.3-.7 1.8-1.8.7-23.3 9.2 20.2 8 2.7 1v20l12-12 2.2-2 2.7 1.1 20 8.6-8.7-19.9-1.2-2.7 2.1-2.1zm-57.7 156.5l20 19.9v-28.2h-11.7zm-32.4-8.3v28.2l20-20-8.3-8.2zm13.5-8.7h1.8l1.3 1.2 9.6 9.6 9.6-9.6 1.2-1.2h15.4v-15.4l1.3-1.3 9.5-9.6-9.5-9.6-1.3-1.2v-15.4H1131l-1.2-1.3-9.6-9.5-9.6 9.5-1.3 1.3h-15.4v15.4l-1.2 1.2-9.6 9.6 9.6 9.6 1.2 1.3v15.3zm-301.5 17l20 19.9v-28.2h-11.7zm-32.4-8.3v28.2l20-20-8.3-8.2zm13.6-8.7h1.8l1.2 1.2 9.6 9.6 9.6-9.6 1.3-1.2h15.4v-15.4l1.2-1.3 9.6-9.6-9.6-9.6-1.2-1.2v-15.4h-15.4l-1.3-1.3-9.6-9.5-9.6 9.5-1.2 1.3h-15.4v15.4l-1.3 1.2-9.5 9.6 9.5 9.6 1.3 1.3v15.3zm-301.5 17l20 19.9v-28.2H494zm-32.4-8.3v28.2l20-20-8.3-8.2zm13.5-8.7h1.9l1.2 1.2 9.6 9.6 9.6-9.6 1.3-1.2h15.3v-15.4l1.3-1.3 9.6-9.6-9.6-9.6-1.2-1.2v-15.4h-15.4l-1.3-1.3-9.6-9.5-9.6 9.5-1.2 1.3h-15.4v15.4l-1.3 1.2-9.6 9.6 9.6 9.6 1.3 1.3v15.3zm-301.4 17l20 19.9v-28.2h-11.7zm-32.4-8.3v28.2l20-20-8.3-8.2zm13.5-8.7h1.8l1.3 1.2 9.6 9.6 9.6-9.6 1.3-1.2h15.3v-15.4l1.3-1.3 9.6-9.6-9.6-9.6-1.3-1.2v-15.4h-15.3l-1.3-1.3-9.6-9.5-9.6 9.5-1.3 1.3H133v15.4l-1.3 1.2-9.6 9.6 9.6 9.6 1.3 1.3v15.3zM96.2 777l-8.7 20 20-8.7 2.7-1.2 2 2.1 12.1 12v-20l2.8-1 20.2-8L124 763l-1.8-.7-.7-1.8-9.2-23.3-8 20.2-1 2.7h-20l12 12.1 2 2zm-1-98.6l-12 12h20l1.1 2.8 8 20.1 9.2-23.3.7-1.7 1.8-.7 23.3-9.2-20.2-8-2.8-1v-20l-12 12-2.1 2-2.7-1.2-20-8.6 8.7 20 1.1 2.7zm1-221.7l-8.7 20 20-8.7 2.7-1.2 2 2.1 12.1 12v-20l2.8-1 20.2-8-23.3-9.2-1.8-.7-.7-1.8-9.2-23.3-8 20.1-1 2.8h-20l12 12 2 2.2zm-1-98.7l-12 12 17 .1h3l1.1 2.8 8 20.1 9.2-23.3.7-1.7 1.8-.7 23.3-9.3-20.2-8-2.8-1v-20l-12 12-2.1 2.1-2.7-1.2-20-8.6 8.7 20 1.1 2.6zm1-221.6l-8.7 20 20-8.7 2.7-1.2 2 2 12.1 12v-19.9l2.8-1 20.2-8-23.3-9.3-1.8-.7-.7-1.7-9.2-23.3-8 20.1-1 2.8h-20l12 12 2 2.2zm-1-98.7l-12 12h20l1.1 2.8 8 20.2 9.2-23.3.7-1.8 1.8-.7 23.3-9.2-20.2-8-2.8-1v-20l-12 12-2.1 2-2.7-1.1-20-8.6 8.7 19.9 1.1 2.7zM71-200.8H34v37l16.1 16 25.8-11.1L87-184.7zm-28.6-28.7l-8.3 8.3v11.7h28.2zM-1-198.7l9.5-9.5 1.3-1.2h15.4v-15.4l1.2-1.3 12.7-12.7 3-3 3.2 3 29.1 29.3h22.7l11-27.8 1.8-4.6h4.5l1.9 4.6 12.6 31.9 30.2 12 30.2-12 12.6-31.9 1.8-4.6h4.6l1.8 4.6 11 27.7h22.7l29.1-29.2 3.1-3 3.1 3 12.6 12.7 1.3 1.3v15.3h15.4l1.3 1.3 9.6 9.6 9.5-9.6 1.3-1.2h15.4v-15.4l1.3-1.3 12.6-12.7 3.1-3 3.1 3 29.2 29.3h22.7l11-27.8 1.7-4.6h4.6l1.8 4.6 12.6 31.8 30.2 12 30.3-12 12.5-31.8 1.9-4.6h4.5l1.8 4.6 11 27.7h22.7l29.1-29.2 3.1-3 3.1 3 12.7 12.7 1.2 1.3v15.3h15.4l1.3 1.3 9.6 9.6 9.6-9.6 1.2-1.2H666v-15.4l1.3-1.3 12.6-12.7 3.1-3 3.1 3 29.2 29.3H738l11-27.8 1.8-4.6h4.5l1.8 4.6 12.6 31.9 30.2 12 30.3-12 12.6-31.9 1.8-4.6h4.5l1.8 4.6 11 27.7h22.7l29.1-29.2 3.2-3 3 3 12.7 12.7 1.3 1.3v15.3H949l1.3 1.3 9.6 9.6 9.6-9.6 1.3-1.2h15.3v-15.4l1.3-1.3 12.7-12.7 3-3 3.2 3 29.1 29.3h22.7l11-27.8 1.8-4.6h4.5l1.8 4.6 12.6 31.9 30.3 12 30.2-12 12.6-31.9 1.8-4.6h4.5l1.9 4.6 11 27.7h22.6l29.2-29.2 3-3 3.2 3 12.6 12.7 1.3 1.3v15.3h15.4l1.2 1.3 9.6 9.5v12.5l-26.1 26v22.7l26 10.3v9.5l-30.1 12-12 30.2 12 30.2 30.2 12v9.4l-26 10.3-.1 22.7 26 26v12.5l-9.5 9.5-1.2 1.3H1254v15.4l-1.3 1.2-9.5 9.6 9.5 9.6 1.3 1.3v15.4h15.4l1.2 1.2 9.6 9.6V134l-26.1 26v22.7l26 10.4v9.4l-30.1 12-12 30.2 12 30.2 30.2 12v9.4l-26 10.3-.1 22.8 26 26v12.4l-9.5 9.5-1.2 1.3H1254V394l-1.3 1.3-9.5 9.6 9.5 9.5 1.3 1.3v15.4h15.4l1.2 1.3 9.6 9.5v12.4l-26.1 26v22.8l26 10.3v9.4l-30.1 12-12 30.2 12 30.3 30.2 11.9v9.5l-26 10.3-.1 22.7 26 26v12.4l-9.5 9.6-1.2 1.2H1254v15.4l-1.3 1.3-9.6 9.6 9.6 9.6 1.3 1.2v15.4h15.4l1.2 1.3 9.6 9.5v12.4l-26.1 26v22.8l26 10.3v9.5l-30.1 11.9-12 30.2 12 30.3 30.2 12v9.4l-26 10.3-.1 22.7 26 26v12.5l-9.5 9.5-1.2 1.3H1254v15.3l-1.3 1.3-12.6 12.7-3.1 3.1-3.1-3.1-29.2-29.2H1182l-11 27.7-1.8 4.6h-4.5l-1.8-4.6-12.6-31.8-30.2-12-30.3 12-12.6 31.8-1.8 4.6h-4.5l-1.8-4.6-11-27.7h-22.7l-29.1 29.2-3.2 3.1-3-3.1-12.7-12.7-1.3-1.3v-15.3H971l-1.3-1.3-9.6-9.6-9.6 9.6-1.3 1.3h-15.3v15.3l-1.3 1.3-12.6 12.7-3.1 3.1-3.2-3.1-29-29.2h-22.8l-11 27.7-1.8 4.6h-4.5l-1.8-4.6-12.6-31.8-30.3-12-30.2 12-12.6 31.8-1.8 4.6h-4.5l-1.9-4.6-11-27.7h-22.6l-29.2 29.2-3 3.1-3.2-3.1-12.6-12.7-1.3-1.3v-15.3h-15.4l-1.2-1.3-9.6-9.6-9.6 9.6-1.3 1.3h-15.3v15.3l-1.3 1.3-12.7 12.7-3 3.1-3.2-3.1-29.1-29.2h-22.7l-11 27.7-1.8 4.6h-4.5l-1.9-4.6-12.5-31.8-30.3-12-30.2 12-12.6 31.8-1.8 4.6h-4.6l-1.8-4.6-11-27.7h-22.7l-29 29.2-3.2 3.1-3.1-3.1-12.6-12.7-1.3-1.3v-15.3h-15.4l-1.3-1.3-9.5-9.6-9.6 9.6-1.3 1.3H293v15.3l-1.3 1.3-12.6 12.7-3.1 3.1-3.1-3.1-29.1-29.2H221l-11 27.7-1.7 4.6h-4.6l-1.8-4.6-12.6-31.8-30.2-12-30.2 12-12.6 31.8-1.9 4.6H110l-1.8-4.6-11-27.7H74.5l-29.1 29.2-3.1 3.1-3.1-3.1-12.7-12.7-1.2-1.3v-15.3H9.9l-1.3-1.3-9.5-9.5V996l26-26v-22.7L-.9 937v-9.5l30.2-12 12-30.2-12-30.2-30.2-12v-9.4l26-10.3v-22.7l-26-26v-12.5l9.5-9.5 1.3-1.3h15.4V736l1.2-1.2 9.6-9.6-9.6-9.6-1.2-1.3V699H9.9l-1.3-1.3-9.5-9.6v-12.4l26-26V627l-26-10.3v-9.5l30.2-12 12-30.2-12-30.2-30.2-12v-9.4l26-10.3v-22.7l-26-26V442l9.5-9.5 1.3-1.3h15.4v-15.4l1.2-1.3 9.6-9.5-9.6-9.6-1.2-1.3v-15.4H9.9l-1.3-1.3-9.5-9.5v-12.4l26-26v-22.8l-26-10.3V287l30.2-12 12-30.2-12-30.2-30.2-12v-9.4l26-10.4v-22.7l-26-26v-12.4l9.5-9.6L10 111h15.4V95.5l1.2-1.3 9.6-9.6-9.6-9.6-1.2-1.2V58.4H9.9l-1.3-1.3-9.5-9.5V35.2l26-26v-22.8l-26-10.3v-9.5l30.2-11.9 12-30.2-12-30.3L-1-117.7v-9.5l26-10.3v-22.7l-26-26z"/>
    </g>
  </g>
</svg>