<svg xmlns="http://www.w3.org/2000/svg" viewBox="0 0 946.5 172.5">
  <g transform="translate(0 -48.1)">
    <path fill="none" stroke="#000" stroke-width=".5" d="M110.7 48.4L9 107.4c-1 1-3.7 2.7-4.8 5.2-6 10.9-4 26-1.3 28.8L138 219.2a6.2 6.2 0 0 0 6.8.2L246.3 161l.2-4-5.5-3.1v-20.4l5.5-3.3-.2-3.8z"/>
    <path fill="none" stroke="#000" stroke-width=".5" d="M137.5 219c-3-11-1.6-22.5 2-28.4l-135.3-78m135.5 101.1c.9 1.3 1 3.2 4.4 2.3l102.4-59-5.5-3.1v3.3l-99.5 57.5z"/>
    <path fill="none" stroke="#000" stroke-width=".5" d="M139.7 213.7c-1.1-7.4-1.6-14.8 1.9-21.4.7-1.2 2-2.6 5.5-4.7l99.4-57.4-.2-3.8-100.4 58a15.8 15.8 0 0 0-6.4 6.2m1.9 2.1l.1 22"/>
    <circle cx="98.8" cy="140.4" r="30.1" fill="none" transform="rotate(-11)"/>
    <path fill="#000696" fill-opacity=".7" d="M111.8 135.9l31.7-17.3-31-18.5z"/>
    <path fill="#000696" fill-opacity=".7" d="M72 151.3c-37-21.3-67.3-38.9-67.3-39l2.1-2.3 2-2.1 50.9-29.5c27.9-16.2 50.9-29.4 51-29.4l134.1 77 .7.5-48.5 28-51 29.5a22.3 22.3 0 0 0-6 5.1l-.7 1zm59.2-3.2a30.2 30.2 0 1 0-14.8-58.4 30.2 30.2 0 0 0 14.8 58.4z"/>
    <path fill="#000793" d="M69.7 179.5C7.7 143.7 3 140.9 2.5 140c-1-2-1.6-4.6-1.7-9a37.3 37.3 0 0 1 3.5-17.7l132.1 76 2.4 1.4-.8 2a43.5 43.5 0 0 0-1.4 25.2l-67-38.4z"/>
    <path fill="#000696" fill-opacity=".7" d="M139 219.3c-1-.4-1.2-.7-1.5-1.6-.6-2.6-1-5.4-1.2-9.2-.2-6.7.6-11.7 2.9-16.3 1.4-3 3.1-5 6-6.8 1.6-1 100.6-58.3 100.8-58.3v3l-49.8 28.7a8693.8 8693.8 0 0 0-51 29.7c-3 1.9-4.3 3.6-5.5 7.3a37 37 0 0 0-.8 14.9c.3 2.5.5 3.2 1.1 4.2.9 1.4 1.8 1.9 3.2 1.6.7 0 18.5-10.2 51.9-29.4l50.9-29.3v2.9l-51.2 29.5-51.2 29.5h-1.8c-1.3.1-2 0-2.8-.4z"/>
    <path fill="#000793" d="M141.3 215.5c-.2-.3-.2-.4.2-.5.3 0 22.8-13 50.1-28.8l49.7-28.7V156l.1-1.5c.2 0 4.1 2.3 4.1 2.4L203 181.8c-63.8 36.7-59.1 34-60.3 34-.5 0-1.1-.1-1.3-.3z"/>
    <g fill="#000595" fill-opacity=".7" stroke-width=".4">
      <path d="M883 107.7q9 0 9-9.8 0-4.3-2.3-6.6t-6.2-2.3q-4.4 0-6.8 2.6-2.3 2.6-2.3 6.8 0 4.4 2.1 6.9 2.1 2.4 6.5 2.4zm-.2 8q-8.9 0-12.6-4.5-3.4 4-10.4 4-2 0-3.2-1-1.4-1.2-1.4-3 0-1.7 1.4-2.8 1.3-1.2 3.2-1.2 5.8 0 5.8-6.5v-2.2q0-8.3 4.7-13 4.8-4.6 13.3-4.6 8.2 0 12.6 4.6 4.5 4.6 4.5 12.8 0 8.6-4.8 13-4.6 4.4-13.1 4.4z"/>
      <path d="M846.7 107.2V96q0-7.1-7.8-7.1-6 0-10.2 2.8l-4.5-6.3q6-4.4 15-4.4 16 0 16 13.2v13h4.6v8h-36.5v-8zm-51.1 15q5.4-.1 7.6-2.1 2.3-2 2.3-6.3V87.2h8.4v27.3q0 7.7-4.3 11.6-4.2 4-14 4zm-59.6-7q-2 0-3.3-1-1.4-1.2-1.4-3 0-1.7 1.3-2.8 1.3-1.2 3.4-1.2h12.5v-20h8.4v20h3q3.6 0 5.4-2 1.8-2 1.8-5.5V87.2h8.3v13.5q0 3.6 1.6 5.5 1.7 2 4.8 2 6 0 6-7.5 0-4.2-2.1-9.2-2.1-5-5.2-7.9l6.9-4.5q3.5 3.6 6.3 9.4 2.8 5.8 2.8 12.3 0 6.6-3.5 11-3.4 4.3-10.8 4.3-8 0-11.4-5h-.4q-3.3 4.2-10.5 4.2z"/>
      <path d="M721.5 80.9h8.6v19.6q0 3.3 1.1 5 1.3 1.6 4.8 1.7v8h-1q-4.5 0-7.5-1.7-3-1.8-4-4.6-2.3 2-5.7 3-3.4 1.1-6.5 1.1-7.3 0-11-3-3.7-3.1-3.7-8.5 0-2 .6-4t2.3-4.2q1.7-2.2 4.3-4 2.7-1.7 7.3-3.2 4.6-1.5 10.4-2.1zm-9.7 24.4q9.8 0 9.8-9.2v-4.7q-9.3 1-12.8 3.7-3.4 2.6-3.4 5.4 0 2.2 1.7 3.5 1.7 1.3 4.7 1.3zm9.3-28.1h-7.4v-6.6h7.4zm-10 0h-7.3v-6.6h7.4zm-62 30.5q8.9 0 8.9-9.8 0-4.3-2.3-6.6t-6.3-2.3q-4.4 0-6.7 2.6t-2.3 6.8q0 4.4 2.1 6.9 2.1 2.4 6.5 2.4zm-.3 8q-9 0-12.6-4.5-3.4 4-10.4 4-2 0-3.3-1-1.3-1.2-1.3-3 0-1.7 1.4-2.8 1.3-1.2 3.2-1.2 5.8 0 5.8-6.5v-2.2q0-8.3 4.7-13 4.8-4.6 13.3-4.6 8.1 0 12.5 4.6 4.5 4.6 4.5 12.8 0 8.6-4.7 13-4.6 4.4-13.1 4.4z"/>
      <path d="M601 111.3q0-1.5 1.2-2.8 1.3-1.3 3.4-1.3 3 0 4.4-1.5 1.4-1.6 1.4-5.1V87.2h8.4V101q0 3.2 1.3 4.7 1.3 1.4 4.8 1.5v8q-7.5 0-9.9-4-3.3 4-10.4 4-2 0-3.3-1-1.4-1.2-1.4-2.9zm18.4-29.8H612v-6.6h7.4z"/>
      <path d="M552.5 98.6q0-5.1 3.4-8.6 3.5-3.6 9.2-4l-1.7-3q3.3-2 8-3.2 4.7-1.2 9-1.2 19 0 19 19.2v.9q0 4.6 1.3 6.5 1.2 2 4.8 2v8q-8.6 0-11.4-4.4-4.8 4.5-12.9 4.5h-33.4q-2 0-3.3-1.1-1.3-1.2-1.3-3 0-1.7 1.3-2.8 1.2-1.2 3.3-1.2h4q3 0 4.7.4 0-.2.2-.3-2-1.2-3.1-3.6-1-2.5-1-5.1zm26.3 8.4v.4q6.2 0 9-2.5 2.9-2.4 2.9-7.5 0-10.8-10.7-10.8-2.8 0-5.8 1 3.6 1.3 5.5 4.2 2 2.9 2 7.1v.7q-.2 4.7-2.9 7.4zM567 92.8q-3 0-4.5 1.8-1.6 1.8-1.6 4.3 0 2.8 2 5t6 2.8q4.2-2 4.2-7.4 0-2.8-1.5-4.7-1.5-1.8-4.6-1.8z"/>
      <path d="M547.8 115.3h-2.7q-5.7 0-8.4-2.3-2.8-2.3-2.8-7.9v-42h8.4V103q0 2.3 1 3.3t3.5 1h1zm-51.6-23.8l-3.6-6.5q6.7-4.1 14.3-4.1 14.2 0 15.8 14.4l.7 5.8q.3 1.8 1.1 3.6 1 1.8 2.4 2.4v8.2h-21.4q-4.1 0-6.1 1.8t-2 4.5q0 5.9 9.6 5.9 2.9 0 5.7-.5l1.2 7.3q-3.3.9-8.4.9-7.7 0-12.3-3.5-4.5-3.3-4.5-9.8 0-7.1 5.2-10.9 5.3-3.8 13-3.8h9.8l.3-.4q-1.2-1-1.8-2.9-.5-2-1-5.2-.3-3.1-.7-4.7-1.2-5-7-5-5.3 0-10.3 2.5zM520 124h-7.5v-6.5h7.5zm-69.8-61h8.4v52.3h-8.4zm-17.8 0h8.4v37.7q0 14.6-14 14.6-1.9 0-3.2-1.1-1.4-1.2-1.4-2.9t1.4-2.9q1.3-1.1 3.3-1.2 3.3 0 4.4-1.8 1-1.7 1-5.3z"/>
      <path d="M402 111.3q0-1.5 1.4-2.8 1.3-1.3 3.3-1.3 3 0 4.4-1.5 1.4-1.6 1.4-5.1V87.2h8.4V101q0 3.2 1.3 4.7 1.4 1.4 4.8 1.5v8q-7.5 0-9.8-4-3.3 4-10.5 4-2 0-3.2-1-1.4-1.2-1.4-2.9zm18.6-29.8h-7.4v-6.6h7.4z"/>
      <path d="M381.9 111.3q0-1.5 1.3-2.8 1.3-1.3 3.3-1.3 3 0 4.4-1.5 1.4-1.6 1.4-5.1V87.2h8.4V101q0 3.2 1.3 4.7 1.4 1.4 4.8 1.5v8q-7.5 0-9.9-4-3.2 4-10.4 4-2 0-3.2-1-1.4-1.2-1.4-2.9zm18.5 16.4H393v-6.5h7.4z"/>
      <path d="M365.2 80.9q8 0 12.3 4.3 4.3 4.3 4.3 12.6v9.4h4.7v8h-4.7q-.3 7.7-5.1 11.9-5 4.1-13.7 4.1h-12.3v-8.1h12q5.3 0 7.7-2.5 2.4-2.5 2.4-5.6h-7.2Q347 115 347 98.6q0-8.4 4.7-13 4.7-4.7 13.4-4.7zm8 26.3v-8.6q0-9.6-8.3-9.6-4.2 0-6.8 2.5-2.4 2.4-2.4 7.2 0 8.5 9.1 8.5zM320.6 81q6.7 0 11.9 5.4 5.1 5.4 5.1 13.6 0 7.4-4.6 11.6-4.5 4.1-12.8 4.1-9.3 0-13.4-3.9-4.2-4-4.2-11.6 0-8 5.3-13.6 5.4-5.6 12.7-5.6zm-.1 7.9q-3.7 0-6.3 3.2-2.6 3.2-2.6 7.5 0 4.2 2.1 6.1 2.1 2 6.7 2 4.4 0 6.4-2.4 2.2-2.3 2.2-5.8 0-4.5-2.7-7.5-2.7-3.1-5.8-3.1zm8.2-13.5h-7.4v-6.6h7.4zm-10 0h-7.3v-6.6h7.4z"/>
    </g>
    <path fill="#000595" fill-opacity=".7" d="M317.6 177.9h-5.7v-15q0-5.2-4.8-5.2-2 0-3.4 1.5-1.3 1.4-1.3 3.7v15h-5.7v-15q0-2.5-1.2-3.8-1.2-1.4-3.6-1.4-2 0-3.4 1.5-1.3 1.4-1.3 3.7v15h-5.8v-25.2h5.8v2.7h.1q1-1.3 3-2.1 1.8-.8 3.7-.8 4.8 0 7 3.6 3.4-3.6 8-3.6 3.9 0 6.2 2.3 2.4 2.3 2.4 6.5zm15.5-25.4q10.5 0 10.5 8.3v17h-5.8v-2.2q-2 2.5-6.6 2.5-4.1 0-6.4-2-2.3-2-2.3-5.6 0-3.2 2.2-5.3 2.3-2.2 6.3-2.2h6.8v-2q0-3.6-5-3.6-3.8 0-6 2.1l-3-3.8q3.3-3.3 9.3-3.3zM328 170q0 1.4 1 2.3 1.1.8 3.5.8 5 0 5.4-3.5v-2.4H332q-4 0-4 2.8zm41.6 7.8h-5.7v-2.4h-.1q-2.4 2.6-6.3 2.6-2.3 0-4-.8-1.7-.8-2.6-2-1-1.2-1.5-3-.6-1.8-.7-3.4-.2-1.7-.2-3.8 0-2.4.4-4.4.5-2.1 1.5-4 1-2 3-3.1 2-1.2 4.7-1.2 3.7 0 5.7 2.4V141h5.8zm-5.7-12.6q0-1.5-.2-2.5-.1-1.1-.6-2.4-.4-1.2-1.4-1.8-1-.7-2.4-.7-1.6 0-2.7.7-1 .7-1.5 2-.4 1.2-.5 2.3-.2 1.1-.2 2.7 0 1.4.2 2.5.1 1 .5 2.2.5 1.2 1.5 1.8 1 .6 2.6.6 4.7 0 4.7-7.4zm22.1-7.5q-2.1 0-3.4 1.3-1.3 1.3-1.3 3.7v15.1h-5.8v-25.2h5.7v3h.2q2.3-3.2 6-3.2 3 0 4.9 1.3L390 159q-2-1.2-4-1.2zm17.5-5.3q10.4 0 10.4 8.3v17h-5.7v-2.2h-.1q-2 2.5-6.6 2.5-4 0-6.4-2-2.3-2-2.3-5.6 0-3.2 2.3-5.3 2.2-2.2 6.3-2.2h6.8V161q0-3.6-5-3.6-3.8 0-6 2.1l-3-3.8q3.2-3.3 9.3-3.3zm-5.2 17.6q0 1.4 1 2.3 1 .8 3.4.8 5 0 5.4-3.5v-2.4h-5.8q-4 0-4 2.8zm40 0q0 3.7-2.9 6-3 2-7.3 2-6.6 0-11-3.7l3.2-4.2q3.2 3 8 3 2 0 3.1-.7 1.3-.8 1.3-2.2 0-1.2-1-1.9-1.1-.7-3.5-.9l-2.7-.4-2.5-.7q-1.5-.5-2.3-1.1-.8-.8-1.4-2-.6-1.3-.6-3 0-3.7 2.7-5.8 2.7-2 6.7-2 5.9 0 9.6 2.8l-2.7 4.4q-3.3-2.2-6.8-2.2-2 0-3 .7-1 .8-1 2t1.3 1.8q1.4.6 4.6 1 8.2.8 8.2 7.2zm23.6 0q0 3.7-3 6-3 2-7.3 2-6.6 0-11-3.7l3.2-4.2q3.2 3 8 3 2 0 3.1-.7 1.3-.8 1.3-2.2 0-1.2-1-1.9-1.1-.7-3.5-.9l-2.7-.4-2.5-.7q-1.5-.5-2.3-1.1-.8-.8-1.4-2-.6-1.3-.6-3 0-3.7 2.7-5.8 2.7-2 6.7-2 5.9 0 9.6 2.8l-2.7 4.4q-3.3-2.2-6.8-2.2-2 0-3 .7-1 .8-1 2t1.3 1.8q1.4.6 4.6 1 8.3.8 8.3 7.2zm14-17.6q10.3 0 10.3 8.3v17h-5.7v-2.2h-.1q-1.9 2.5-6.6 2.5-4 0-6.4-2-2.2-2-2.2-5.6 0-3.2 2.2-5.3 2.3-2.2 6.3-2.2h6.8V161q0-3.6-5-3.6-3.8 0-6 2.1l-3-3.8q3.3-3.3 9.3-3.3zm-5.3 17.6q0 1.4 1 2.3 1.1.8 3.5.8 5 0 5.3-3.5l.1-2.4h-5.8q-4.1 0-4.1 2.8zm70 7.8H535v-15q0-5.2-4.7-5.2-2 0-3.4 1.5-1.3 1.4-1.3 3.7v15h-5.8v-15q0-2.5-1.2-3.8-1.2-1.4-3.5-1.4-2 0-3.4 1.5-1.4 1.4-1.4 3.7v15h-5.7v-25.2h5.7v2.7h.2q1-1.3 2.9-2.1 1.8-.8 3.8-.8 4.7 0 7 3.6 3.4-3.6 8-3.6 3.8 0 6.2 2.3 2.3 2.3 2.3 6.5zm12.4-30.1h-6v-5.3h5.8zm0 30h-6v-25h5.8zm27.2 0h-5.7V163q0-5-4.6-5-2.2 0-3.5 1.3-1.4 1.4-1.4 3.7v15h-5.7v-25.2h5.7v2.6h.1q1.2-1.3 3-2 1.8-.8 3.6-.8 4 0 6.2 2.2 2.3 2.3 2.3 6.6zm27.7 0H602V163q0-5-4.5-5-2.1 0-3.5 1.3-1.4 1.4-1.4 3.7v15h-5.8v-37h5.8v14.3h.1q1.2-1.3 3-2t3.5-.7q3.7 0 6.1 2.3 2.5 2.3 2.5 6.6zm14.7-25.3q10.4 0 10.4 8.3v17h-6v-2.2q-2 2.5-6.6 2.5-4 0-6.4-2-2.3-2-2.3-5.6 0-3.2 2.2-5.3 2.3-2.2 6.3-2.2h6.8V161q0-3.6-5-3.6-3.7 0-6 2.1l-3-3.8q3.3-3.3 9.4-3.3zm-5.3 17.6q0 1.4 1.1 2.3 1 .8 3.4.8 5 0 5.4-3.5v-2.4h-5.8q-4 0-4 2.8zm27.8-22.3h-5.8v-5.3h5.8zm0 4.9v28.2q0 3.3-2 5.2-1.8 2-5.4 2H635v-5h1.4q2.9 0 2.9-3v-27.3zm29-.2q10.5 0 10.5 8.3v17h-5.8v-2.2q-2 2.5-6.6 2.5-4 0-6.4-2-2.3-2-2.3-5.6 0-3.2 2.2-5.3 2.3-2.2 6.3-2.2h6.8V161q0-3.6-5-3.6-3.8 0-6 2.1l-3-3.8q3.3-3.3 9.4-3.3zm-5.2 17.6q0 1.4 1.1 2.3 1 .8 3.4.8 5 0 5.4-3.5v-2.4H673q-4 0-4 2.8zm42 7.8H705v-15q0-5-4.7-5-2.1 0-3.5 1.3-1.3 1.4-1.3 3.7v15h-5.7v-25.2h5.7v2.6h.1q1.2-1.3 3-2 1.8-.8 3.6-.8 4 0 6.2 2.2 2.3 2.3 2.3 6.6zm39.7 0h-5.8v-15q0-5-4.6-5-2.1 0-3.5 1.3-1.3 1.4-1.3 3.7v15h-5.8v-25.2h5.8v2.6q1.3-1.3 3-2 1.9-.8 3.6-.8 4 0 6.3 2.2 2.3 2.3 2.3 6.6zm16.5-25.5q5.9 0 8.7 4.2 2 3 1.9 8.3 0 5.5-1.8 8.5-1.4 2.4-3.9 3.6-2.5 1.2-5.5 1.2-6 0-8.7-4-2-3-2-8.9 0-4.5 1.3-7.1 1.3-2.7 4-4.3 2.6-1.5 6-1.5zm-.2 5.2q-3.1 0-4.4 2.8-.8 1.7-.9 5 0 3.3.8 4.8 1.2 2.8 4.2 2.8 3.7 0 4.8-3.6.4-1.5.4-4.5t-.6-4.4q-1.1-3-4.3-3zm15.9-4.9h5.7v15q0 2.6 1 4 1.2 1.1 3.6 1.1 2.1 0 3.5-1.3 1.4-1.5 1.4-3.8v-15h5.7V178H798v-2.5h-.2q-2.3 2.8-6.4 2.8-4 0-6.3-2.3-2.3-2.2-2.3-6.7zm48.1 12.1q0 13.3-9 13.3-4.2 0-6.2-2.7h-.1v2.5h-5.8v-37h5.8V155q2.5-2.6 6.3-2.6 8.9 0 9 12.3zm-5.9.5l-.1-2.6q-.2-1.1-.7-2.3-.4-1.2-1.4-1.8-1-.7-2.5-.7-4.7 0-4.7 7.4 0 7.6 4.7 7.6 1.3 0 2.1-.5 1-.5 1.4-1.2.5-.8.8-1.9.3-1 .3-2l.1-2zm21.6-12.9q5.9 0 8.7 4.2 2 3 1.8 8.3 0 5.5-1.7 8.5-1.4 2.4-3.9 3.6-2.5 1.2-5.5 1.2-6 0-8.7-4-2.1-3-2-8.9 0-4.5 1.3-7.1 1.2-2.7 3.9-4.3 2.6-1.5 6-1.5zm-.2 5.2q-3.1 0-4.4 2.8-.8 1.7-1 5 0 3.3.9 4.8 1.2 2.8 4.2 2.8 3.6 0 4.7-3.6.5-1.5.5-4.5t-.7-4.4q-1-3-4.2-3zm15.9-4.9h5.6v15q0 2.6 1.1 4 1.1 1.1 3.6 1.1 2.1 0 3.5-1.3 1.3-1.5 1.3-3.8v-15h5.8V178h-5.8v-2.5h-.1q-2.3 2.8-6.4 2.8-4 0-6.4-2.3-2.2-2.2-2.2-6.7zm50.2 16.6h.3l.3-1.3.4-1.6.4-1.4.5-2 1.1-4 1.8-6.3h6.1L915 178h-5l-3.6-11.8-1.5-4.7-1.6 5.3-3.4 11.2h-5l-8.4-25.2h6.1q.8 2.4 2 7.1.5 1.4 1.3 4.6l1.4 4.8h.2l2.1-7 3-9.5h4.8l3.7 12.4zm23.7-16.8q10.4 0 10.4 8.3v17h-5.7v-2.2h-.1q-2 2.5-6.6 2.5-4 0-6.4-2-2.3-2-2.3-5.6 0-3.2 2.3-5.3 2.3-2.2 6.3-2.2h6.8V161q0-3.6-5-3.6-3.8 0-6 2.1l-3-3.8q3.3-3.3 9.3-3.3zM931 170q0 1.4 1 2.3 1.1.8 3.4.8 5 0 5.4-3.5v-2.4H935q-4 0-4 2.8z"/>
  </g>
</svg>